<svg width="326" height="160" viewBox="0 0 326 160" fill="none" xmlns="http://www.w3.org/2000/svg">
<rect width="326" height="160" rx="32" fill="#8AD1BF"/>
<path d="M37.4205 23.7273V47H33.6705L22.7045 31.1477H22.5114V47H18.2955V23.7273H22.0682L33.0227 39.5909H33.2273V23.7273H37.4205ZM49.446 47.3409C47.7415 47.3409 46.2642 46.9659 45.0142 46.2159C43.7642 45.4659 42.7945 44.4167 42.1051 43.0682C41.4233 41.7197 41.0824 40.1439 41.0824 38.3409C41.0824 36.5379 41.4233 34.9583 42.1051 33.6023C42.7945 32.2462 43.7642 31.1932 45.0142 30.4432C46.2642 29.6932 47.7415 29.3182 49.446 29.3182C51.1506 29.3182 52.6278 29.6932 53.8778 30.4432C55.1278 31.1932 56.0938 32.2462 56.7756 33.6023C57.465 34.9583 57.8097 36.5379 57.8097 38.3409C57.8097 40.1439 57.465 41.7197 56.7756 43.0682C56.0938 44.4167 55.1278 45.4659 53.8778 46.2159C52.6278 46.9659 51.1506 47.3409 49.446 47.3409ZM49.4688 44.0455C50.393 44.0455 51.1657 43.7917 51.7869 43.2841C52.4081 42.7689 52.8703 42.0795 53.1733 41.2159C53.4839 40.3523 53.6392 39.3902 53.6392 38.3295C53.6392 37.2614 53.4839 36.2955 53.1733 35.4318C52.8703 34.5606 52.4081 33.8674 51.7869 33.3523C51.1657 32.8371 50.393 32.5795 49.4688 32.5795C48.5218 32.5795 47.7339 32.8371 47.1051 33.3523C46.4839 33.8674 46.018 34.5606 45.7074 35.4318C45.4044 36.2955 45.2528 37.2614 45.2528 38.3295C45.2528 39.3902 45.4044 40.3523 45.7074 41.2159C46.018 42.0795 46.4839 42.7689 47.1051 43.2841C47.7339 43.7917 48.5218 44.0455 49.4688 44.0455ZM67.7784 47.3068C66.4072 47.3068 65.1799 46.9545 64.0966 46.25C63.0133 45.5455 62.1572 44.5227 61.5284 43.1818C60.8996 41.8409 60.5852 40.2121 60.5852 38.2955C60.5852 36.3561 60.9034 34.7197 61.5398 33.3864C62.1837 32.0455 63.0511 31.0341 64.142 30.3523C65.233 29.6629 66.4489 29.3182 67.7898 29.3182C68.8125 29.3182 69.6534 29.4924 70.3125 29.8409C70.9716 30.1818 71.4943 30.5947 71.8807 31.0795C72.267 31.5568 72.5663 32.0076 72.7784 32.4318H72.9489V23.7273H77.0739V47H73.0284V44.25H72.7784C72.5663 44.6742 72.2595 45.125 71.858 45.6023C71.4564 46.072 70.9261 46.4735 70.267 46.8068C69.608 47.1402 68.7784 47.3068 67.7784 47.3068ZM68.9261 43.9318C69.7973 43.9318 70.5398 43.697 71.1534 43.2273C71.767 42.75 72.233 42.0871 72.5511 41.2386C72.8693 40.3902 73.0284 39.4015 73.0284 38.2727C73.0284 37.1439 72.8693 36.1629 72.5511 35.3295C72.2405 34.4962 71.7784 33.8485 71.1648 33.3864C70.5587 32.9242 69.8125 32.6932 68.9261 32.6932C68.0095 32.6932 67.2443 32.9318 66.6307 33.4091C66.017 33.8864 65.5549 34.5455 65.2443 35.3864C64.9337 36.2273 64.7784 37.1894 64.7784 38.2727C64.7784 39.3636 64.9337 40.3371 65.2443 41.1932C65.5625 42.0417 66.0284 42.7121 66.642 43.2045C67.2633 43.6894 68.0246 43.9318 68.9261 43.9318ZM89.1847 47.3409C87.4347 47.3409 85.9233 46.9773 84.6506 46.25C83.3854 45.5152 82.4119 44.4773 81.7301 43.1364C81.0483 41.7879 80.7074 40.2008 80.7074 38.375C80.7074 36.5795 81.0483 35.0038 81.7301 33.6477C82.4195 32.2841 83.3816 31.2235 84.6165 30.4659C85.8513 29.7008 87.3021 29.3182 88.9688 29.3182C90.0445 29.3182 91.0597 29.4924 92.0142 29.8409C92.9763 30.1818 93.8248 30.7121 94.5597 31.4318C95.3021 32.1515 95.8854 33.0682 96.3097 34.1818C96.7339 35.2879 96.946 36.6061 96.946 38.1364V39.3977H82.6392V36.625H93.0028C92.9953 35.8371 92.8248 35.1364 92.4915 34.5227C92.1581 33.9015 91.6922 33.4129 91.0938 33.0568C90.5028 32.7008 89.8134 32.5227 89.0256 32.5227C88.1847 32.5227 87.446 32.7273 86.8097 33.1364C86.1733 33.5379 85.6771 34.0682 85.321 34.7273C84.9725 35.3788 84.7945 36.0947 84.7869 36.875V39.2955C84.7869 40.3106 84.9725 41.1818 85.3438 41.9091C85.715 42.6288 86.2339 43.1818 86.9006 43.5682C87.5672 43.947 88.3475 44.1364 89.2415 44.1364C89.84 44.1364 90.3816 44.053 90.8665 43.8864C91.3513 43.7121 91.7718 43.4583 92.1278 43.125C92.4839 42.7917 92.7528 42.3788 92.9347 41.8864L96.7756 42.3182C96.5331 43.3333 96.071 44.2197 95.3892 44.9773C94.715 45.7273 93.8513 46.3106 92.7983 46.7273C91.7453 47.1364 90.5407 47.3409 89.1847 47.3409Z" fill="#343A40"/>
<path fill-rule="evenodd" clip-rule="evenodd" d="M21.8334 113.667C19.5322 113.667 17.6667 115.532 17.6667 117.833V126.167C17.6667 128.468 19.5322 130.333 21.8334 130.333H30.1667C32.4679 130.333 34.3334 128.468 34.3334 126.167V117.833C34.3334 115.532 32.4679 113.667 30.1667 113.667H21.8334ZM27.1208 118.222C26.6623 117.293 25.3375 117.293 24.879 118.222L24.2219 119.553L22.7528 119.766C21.7275 119.915 21.3181 121.175 22.06 121.899L23.1231 122.935L22.8721 124.398C22.697 125.419 23.7688 126.198 24.6858 125.716L25.9999 125.025L27.3139 125.716C28.2309 126.198 29.3027 125.419 29.1276 124.398L28.8766 122.935L29.9397 121.899C30.6816 121.175 30.2722 119.915 29.247 119.766L27.7778 119.553L27.1208 118.222Z" fill="#1A4238"/>
<path d="M40.6463 126V125.048L43.1712 122.573C43.4126 122.329 43.6139 122.113 43.7749 121.923C43.9358 121.734 44.0566 121.55 44.1371 121.373C44.2176 121.195 44.2578 121.006 44.2578 120.805C44.2578 120.575 44.2057 120.379 44.1016 120.215C43.9974 120.049 43.8542 119.922 43.6719 119.832C43.4896 119.742 43.2824 119.697 43.0504 119.697C42.8113 119.697 42.6018 119.746 42.4219 119.846C42.242 119.943 42.1023 120.081 42.0028 120.261C41.9058 120.441 41.8572 120.656 41.8572 120.904H40.6037C40.6037 120.442 40.709 120.041 40.9197 119.7C41.1304 119.359 41.4205 119.095 41.7898 118.908C42.1615 118.721 42.5876 118.628 43.0682 118.628C43.5559 118.628 43.9844 118.719 44.3537 118.901C44.723 119.084 45.0095 119.333 45.2131 119.651C45.419 119.968 45.522 120.33 45.522 120.737C45.522 121.009 45.4699 121.277 45.3658 121.54C45.2616 121.803 45.0781 122.094 44.8153 122.413C44.5549 122.733 44.1892 123.12 43.718 123.575L42.4645 124.849V124.899H45.6321V126H40.6463ZM46.8572 126V125.048L49.3821 122.573C49.6236 122.329 49.8248 122.113 49.9858 121.923C50.1468 121.734 50.2675 121.55 50.348 121.373C50.4285 121.195 50.4688 121.006 50.4688 120.805C50.4688 120.575 50.4167 120.379 50.3125 120.215C50.2083 120.049 50.0651 119.922 49.8828 119.832C49.7005 119.742 49.4934 119.697 49.2614 119.697C49.0223 119.697 48.8127 119.746 48.6328 119.846C48.4529 119.943 48.3132 120.081 48.2138 120.261C48.1167 120.441 48.0682 120.656 48.0682 120.904H46.8146C46.8146 120.442 46.92 120.041 47.1307 119.7C47.3414 119.359 47.6314 119.095 48.0007 118.908C48.3724 118.721 48.7985 118.628 49.2791 118.628C49.7668 118.628 50.1953 118.719 50.5646 118.901C50.9339 119.084 51.2204 119.333 51.424 119.651C51.63 119.968 51.733 120.33 51.733 120.737C51.733 121.009 51.6809 121.277 51.5767 121.54C51.4725 121.803 51.2891 122.094 51.0263 122.413C50.7659 122.733 50.4001 123.12 49.929 123.575L48.6754 124.849V124.899H51.843V126H46.8572ZM52.7805 124.651V123.603L55.8665 118.727H56.7401V120.219H56.2074L54.13 123.511V123.567H58.4375V124.651H52.7805ZM56.25 126V124.331L56.2642 123.862V118.727H57.5071V126H56.25Z" fill="black" fill-opacity="0.45"/>
<rect x="266" y="100" width="44" height="44" rx="15" fill="#1A4238"/>
<path fill-rule="evenodd" clip-rule="evenodd" d="M289.293 114.293C289.683 113.902 290.317 113.902 290.707 114.293L297.707 121.293C298.098 121.683 298.098 122.317 297.707 122.707L290.707 129.707C290.317 130.098 289.683 130.098 289.293 129.707C288.902 129.317 288.902 128.683 289.293 128.293L294.586 123H279C278.448 123 278 122.552 278 122C278 121.448 278.448 121 279 121H294.586L289.293 115.707C288.902 115.317 288.902 114.683 289.293 114.293Z" fill="#8AD1BF"/>
</svg>
