<svg width="326" height="160" viewBox="0 0 326 160" fill="none" xmlns="http://www.w3.org/2000/svg">
<rect width="326" height="160" rx="32" fill="#8AD1BF"/>
<path d="M30.9432 30.125C30.8371 29.1326 30.3902 28.3598 29.6023 27.8068C28.822 27.2538 27.8068 26.9773 26.5568 26.9773C25.678 26.9773 24.9242 27.1098 24.2955 27.375C23.6667 27.6402 23.1856 28 22.8523 28.4545C22.5189 28.9091 22.3485 29.428 22.3409 30.0114C22.3409 30.4962 22.4508 30.9167 22.6705 31.2727C22.8977 31.6288 23.2045 31.9318 23.5909 32.1818C23.9773 32.4242 24.4053 32.6288 24.875 32.7955C25.3447 32.9621 25.8182 33.1023 26.2955 33.2159L28.4773 33.7614C29.3561 33.9659 30.2008 34.2424 31.0114 34.5909C31.8295 34.9394 32.5606 35.3788 33.2045 35.9091C33.8561 36.4394 34.3712 37.0795 34.75 37.8295C35.1288 38.5795 35.3182 39.4583 35.3182 40.4659C35.3182 41.8295 34.9697 43.0303 34.2727 44.0682C33.5758 45.0985 32.5682 45.9053 31.25 46.4886C29.9394 47.0644 28.3523 47.3523 26.4886 47.3523C24.678 47.3523 23.1061 47.072 21.7727 46.5114C20.447 45.9508 19.4091 45.1326 18.6591 44.0568C17.9167 42.9811 17.5152 41.6705 17.4545 40.125H21.6023C21.6629 40.9356 21.9129 41.6098 22.3523 42.1477C22.7917 42.6856 23.3636 43.0871 24.0682 43.3523C24.7803 43.6174 25.5758 43.75 26.4545 43.75C27.3712 43.75 28.1742 43.6136 28.8636 43.3409C29.5606 43.0606 30.1061 42.6742 30.5 42.1818C30.8939 41.6818 31.0947 41.0985 31.1023 40.4318C31.0947 39.8258 30.9167 39.3258 30.5682 38.9318C30.2197 38.5303 29.7311 38.197 29.1023 37.9318C28.4811 37.6591 27.7538 37.4167 26.9205 37.2045L24.2727 36.5227C22.3561 36.0303 20.8409 35.2841 19.7273 34.2841C18.6212 33.2765 18.0682 31.9394 18.0682 30.2727C18.0682 28.9015 18.4394 27.7008 19.1818 26.6705C19.9318 25.6402 20.9508 24.8409 22.2386 24.2727C23.5265 23.697 24.9848 23.4091 26.6136 23.4091C28.2652 23.4091 29.7121 23.697 30.9545 24.2727C32.2045 24.8409 33.1856 25.6326 33.8977 26.6477C34.6098 27.6553 34.9773 28.8144 35 30.125H30.9432ZM46.5085 47.3409C44.804 47.3409 43.3267 46.9659 42.0767 46.2159C40.8267 45.4659 39.857 44.4167 39.1676 43.0682C38.4858 41.7197 38.1449 40.1439 38.1449 38.3409C38.1449 36.5379 38.4858 34.9583 39.1676 33.6023C39.857 32.2462 40.8267 31.1932 42.0767 30.4432C43.3267 29.6932 44.804 29.3182 46.5085 29.3182C48.2131 29.3182 49.6903 29.6932 50.9403 30.4432C52.1903 31.1932 53.1563 32.2462 53.8381 33.6023C54.5275 34.9583 54.8722 36.5379 54.8722 38.3409C54.8722 40.1439 54.5275 41.7197 53.8381 43.0682C53.1563 44.4167 52.1903 45.4659 50.9403 46.2159C49.6903 46.9659 48.2131 47.3409 46.5085 47.3409ZM46.5312 44.0455C47.4555 44.0455 48.2282 43.7917 48.8494 43.2841C49.4706 42.7689 49.9328 42.0795 50.2358 41.2159C50.5464 40.3523 50.7017 39.3902 50.7017 38.3295C50.7017 37.2614 50.5464 36.2955 50.2358 35.4318C49.9328 34.5606 49.4706 33.8674 48.8494 33.3523C48.2282 32.8371 47.4555 32.5795 46.5312 32.5795C45.5843 32.5795 44.7964 32.8371 44.1676 33.3523C43.5464 33.8674 43.0805 34.5606 42.7699 35.4318C42.4669 36.2955 42.3153 37.2614 42.3153 38.3295C42.3153 39.3902 42.4669 40.3523 42.7699 41.2159C43.0805 42.0795 43.5464 42.7689 44.1676 43.2841C44.7964 43.7917 45.5843 44.0455 46.5312 44.0455ZM65.9773 47.3409C64.2348 47.3409 62.7386 46.9583 61.4886 46.1932C60.2462 45.428 59.2879 44.3712 58.6136 43.0227C57.947 41.6667 57.6136 40.1061 57.6136 38.3409C57.6136 36.5682 57.9545 35.0038 58.6364 33.6477C59.3182 32.2841 60.2803 31.2235 61.5227 30.4659C62.7727 29.7008 64.25 29.3182 65.9545 29.3182C67.3712 29.3182 68.625 29.5795 69.7159 30.1023C70.8144 30.6174 71.6894 31.3485 72.3409 32.2955C72.9924 33.2348 73.3636 34.3333 73.4545 35.5909H69.5227C69.3636 34.75 68.9848 34.0492 68.3864 33.4886C67.7955 32.9205 67.0038 32.6364 66.0114 32.6364C65.1705 32.6364 64.4318 32.8636 63.7955 33.3182C63.1591 33.7652 62.6629 34.4091 62.3068 35.25C61.9583 36.0909 61.7841 37.0985 61.7841 38.2727C61.7841 39.4621 61.9583 40.4848 62.3068 41.3409C62.6553 42.1894 63.1439 42.8447 63.7727 43.3068C64.4091 43.7614 65.1553 43.9886 66.0114 43.9886C66.6174 43.9886 67.1591 43.875 67.6364 43.6477C68.1212 43.4129 68.5265 43.0758 68.8523 42.6364C69.178 42.197 69.4015 41.6629 69.5227 41.0341H73.4545C73.3561 42.2689 72.9924 43.3636 72.3636 44.3182C71.7348 45.2652 70.8788 46.0076 69.7955 46.5455C68.7121 47.0758 67.4394 47.3409 65.9773 47.3409ZM76.8324 47V29.5455H80.946V47H76.8324ZM78.9006 27.0682C78.2491 27.0682 77.6884 26.8523 77.2188 26.4205C76.7491 25.9811 76.5142 25.4545 76.5142 24.8409C76.5142 24.2197 76.7491 23.6932 77.2188 23.2614C77.6884 22.822 78.2491 22.6023 78.9006 22.6023C79.5597 22.6023 80.1203 22.822 80.5824 23.2614C81.0521 23.6932 81.2869 24.2197 81.2869 24.8409C81.2869 25.4545 81.0521 25.9811 80.5824 26.4205C80.1203 26.8523 79.5597 27.0682 78.9006 27.0682ZM92.7898 47.3409C91.0852 47.3409 89.608 46.9659 88.358 46.2159C87.108 45.4659 86.1383 44.4167 85.4489 43.0682C84.767 41.7197 84.4261 40.1439 84.4261 38.3409C84.4261 36.5379 84.767 34.9583 85.4489 33.6023C86.1383 32.2462 87.108 31.1932 88.358 30.4432C89.608 29.6932 91.0852 29.3182 92.7898 29.3182C94.4943 29.3182 95.9716 29.6932 97.2216 30.4432C98.4716 31.1932 99.4375 32.2462 100.119 33.6023C100.809 34.9583 101.153 36.5379 101.153 38.3409C101.153 40.1439 100.809 41.7197 100.119 43.0682C99.4375 44.4167 98.4716 45.4659 97.2216 46.2159C95.9716 46.9659 94.4943 47.3409 92.7898 47.3409ZM92.8125 44.0455C93.7367 44.0455 94.5095 43.7917 95.1307 43.2841C95.7519 42.7689 96.214 42.0795 96.517 41.2159C96.8277 40.3523 96.983 39.3902 96.983 38.3295C96.983 37.2614 96.8277 36.2955 96.517 35.4318C96.214 34.5606 95.7519 33.8674 95.1307 33.3523C94.5095 32.8371 93.7367 32.5795 92.8125 32.5795C91.8655 32.5795 91.0777 32.8371 90.4489 33.3523C89.8277 33.8674 89.3617 34.5606 89.0511 35.4318C88.7481 36.2955 88.5966 37.2614 88.5966 38.3295C88.5966 39.3902 88.7481 40.3523 89.0511 41.2159C89.3617 42.0795 89.8277 42.7689 90.4489 43.2841C91.0777 43.7917 91.8655 44.0455 92.8125 44.0455ZM108.759 23.7273V47H104.645V23.7273H108.759ZM120.602 47.3409C118.898 47.3409 117.42 46.9659 116.17 46.2159C114.92 45.4659 113.951 44.4167 113.261 43.0682C112.58 41.7197 112.239 40.1439 112.239 38.3409C112.239 36.5379 112.58 34.9583 113.261 33.6023C113.951 32.2462 114.92 31.1932 116.17 30.4432C117.42 29.6932 118.898 29.3182 120.602 29.3182C122.307 29.3182 123.784 29.6932 125.034 30.4432C126.284 31.1932 127.25 32.2462 127.932 33.6023C128.621 34.9583 128.966 36.5379 128.966 38.3409C128.966 40.1439 128.621 41.7197 127.932 43.0682C127.25 44.4167 126.284 45.4659 125.034 46.2159C123.784 46.9659 122.307 47.3409 120.602 47.3409ZM120.625 44.0455C121.549 44.0455 122.322 43.7917 122.943 43.2841C123.564 42.7689 124.027 42.0795 124.33 41.2159C124.64 40.3523 124.795 39.3902 124.795 38.3295C124.795 37.2614 124.64 36.2955 124.33 35.4318C124.027 34.5606 123.564 33.8674 122.943 33.3523C122.322 32.8371 121.549 32.5795 120.625 32.5795C119.678 32.5795 118.89 32.8371 118.261 33.3523C117.64 33.8674 117.174 34.5606 116.864 35.4318C116.561 36.2955 116.409 37.2614 116.409 38.3295C116.409 39.3902 116.561 40.3523 116.864 41.2159C117.174 42.0795 117.64 42.7689 118.261 43.2841C118.89 43.7917 119.678 44.0455 120.625 44.0455ZM140.048 53.9091C138.571 53.9091 137.302 53.7083 136.241 53.3068C135.181 52.9129 134.329 52.3826 133.685 51.7159C133.041 51.0492 132.594 50.3106 132.344 49.5L136.048 48.6023C136.215 48.9432 136.457 49.2803 136.776 49.6136C137.094 49.9545 137.522 50.2348 138.06 50.4545C138.605 50.6818 139.291 50.7955 140.116 50.7955C141.283 50.7955 142.249 50.5114 143.014 49.9432C143.779 49.3826 144.162 48.4583 144.162 47.1705V43.8636H143.957C143.745 44.2879 143.435 44.7235 143.026 45.1705C142.624 45.6174 142.09 45.9924 141.423 46.2955C140.764 46.5985 139.935 46.75 138.935 46.75C137.594 46.75 136.378 46.4356 135.287 45.8068C134.204 45.1705 133.34 44.2235 132.696 42.9659C132.06 41.7008 131.741 40.1174 131.741 38.2159C131.741 36.2992 132.06 34.6818 132.696 33.3636C133.34 32.0379 134.207 31.0341 135.298 30.3523C136.389 29.6629 137.605 29.3182 138.946 29.3182C139.969 29.3182 140.81 29.4924 141.469 29.8409C142.135 30.1818 142.666 30.5947 143.06 31.0795C143.454 31.5568 143.753 32.0076 143.957 32.4318H144.185V29.5455H148.241V47.2841C148.241 48.7765 147.885 50.0114 147.173 50.9886C146.461 51.9659 145.488 52.697 144.253 53.1818C143.018 53.6667 141.616 53.9091 140.048 53.9091ZM140.082 43.5227C140.954 43.5227 141.696 43.3106 142.31 42.8864C142.923 42.4621 143.389 41.8523 143.707 41.0568C144.026 40.2614 144.185 39.3068 144.185 38.1932C144.185 37.0947 144.026 36.1326 143.707 35.3068C143.397 34.4811 142.935 33.8409 142.321 33.3864C141.715 32.9242 140.969 32.6932 140.082 32.6932C139.166 32.6932 138.401 32.9318 137.787 33.4091C137.173 33.8864 136.711 34.5417 136.401 35.375C136.09 36.2008 135.935 37.1402 135.935 38.1932C135.935 39.2614 136.09 40.197 136.401 41C136.719 41.7955 137.185 42.4167 137.798 42.8636C138.42 43.303 139.181 43.5227 140.082 43.5227ZM152.457 47V29.5455H156.571V47H152.457ZM154.526 27.0682C153.874 27.0682 153.313 26.8523 152.844 26.4205C152.374 25.9811 152.139 25.4545 152.139 24.8409C152.139 24.2197 152.374 23.6932 152.844 23.2614C153.313 22.822 153.874 22.6023 154.526 22.6023C155.185 22.6023 155.745 22.822 156.207 23.2614C156.677 23.6932 156.912 24.2197 156.912 24.8409C156.912 25.4545 156.677 25.9811 156.207 26.4205C155.745 26.8523 155.185 27.0682 154.526 27.0682ZM165.824 47.3523C164.718 47.3523 163.722 47.1553 162.835 46.7614C161.956 46.3598 161.259 45.7689 160.744 44.9886C160.237 44.2083 159.983 43.2462 159.983 42.1023C159.983 41.1174 160.165 40.303 160.528 39.6591C160.892 39.0152 161.388 38.5 162.017 38.1136C162.646 37.7273 163.354 37.4356 164.142 37.2386C164.938 37.0341 165.759 36.8864 166.608 36.7955C167.631 36.6894 168.46 36.5947 169.097 36.5114C169.733 36.4205 170.195 36.2841 170.483 36.1023C170.778 35.9129 170.926 35.6212 170.926 35.2273V35.1591C170.926 34.303 170.672 33.6402 170.165 33.1705C169.657 32.7008 168.926 32.4659 167.972 32.4659C166.964 32.4659 166.165 32.6856 165.574 33.125C164.991 33.5644 164.597 34.0833 164.392 34.6818L160.551 34.1364C160.854 33.0758 161.354 32.1894 162.051 31.4773C162.748 30.7576 163.6 30.2197 164.608 29.8636C165.616 29.5 166.729 29.3182 167.949 29.3182C168.79 29.3182 169.627 29.4167 170.46 29.6136C171.294 29.8106 172.055 30.1364 172.744 30.5909C173.434 31.0379 173.987 31.6477 174.403 32.4205C174.828 33.1932 175.04 34.1591 175.04 35.3182V47H171.085V44.6023H170.949C170.699 45.0871 170.347 45.5417 169.892 45.9659C169.445 46.3826 168.881 46.7197 168.199 46.9773C167.525 47.2273 166.733 47.3523 165.824 47.3523ZM166.892 44.3295C167.718 44.3295 168.434 44.1667 169.04 43.8409C169.646 43.5076 170.112 43.0682 170.438 42.5227C170.771 41.9773 170.938 41.3826 170.938 40.7386V38.6818C170.809 38.7879 170.589 38.8864 170.278 38.9773C169.975 39.0682 169.634 39.1477 169.256 39.2159C168.877 39.2841 168.502 39.3447 168.131 39.3977C167.759 39.4508 167.438 39.4962 167.165 39.5341C166.551 39.6174 166.002 39.7538 165.517 39.9432C165.032 40.1326 164.65 40.3977 164.369 40.7386C164.089 41.072 163.949 41.5038 163.949 42.0341C163.949 42.7917 164.225 43.3636 164.778 43.75C165.331 44.1364 166.036 44.3295 166.892 44.3295Z" fill="#343A40"/>
<path fill-rule="evenodd" clip-rule="evenodd" d="M21.8334 113.667C19.5322 113.667 17.6667 115.532 17.6667 117.833V126.167C17.6667 128.468 19.5322 130.333 21.8334 130.333H30.1667C32.4679 130.333 34.3334 128.468 34.3334 126.167V117.833C34.3334 115.532 32.4679 113.667 30.1667 113.667H21.8334ZM27.1209 118.222C26.6623 117.293 25.3375 117.293 24.879 118.222L24.222 119.553L22.7529 119.766C21.7276 119.915 21.3182 121.175 22.0601 121.899L23.1232 122.935L22.8722 124.398C22.6971 125.419 23.7689 126.198 24.6859 125.716L25.9999 125.025L27.314 125.716C28.231 126.198 29.3028 125.419 29.1277 124.398L28.8767 122.935L29.9398 121.899C30.6817 121.175 30.2723 119.915 29.247 119.766L27.7779 119.553L27.1209 118.222Z" fill="#1A4238"/>
<path d="M43.6044 118.727V126H42.2869V120.009H42.2443L40.5433 121.096V119.888L42.3509 118.727H43.6044ZM48.4091 118.727V126H47.0916V120.009H47.049L45.348 121.096V119.888L47.1555 118.727H48.4091ZM52.8409 126.099C52.313 126.099 51.8442 126.011 51.4347 125.833C51.0275 125.656 50.7079 125.413 50.4759 125.105C50.2462 124.795 50.1326 124.443 50.1349 124.05C50.1326 123.745 50.1989 123.464 50.3338 123.209C50.4688 122.953 50.651 122.74 50.8807 122.57C51.1127 122.397 51.3707 122.287 51.6548 122.239V122.19C51.2808 122.107 50.9777 121.916 50.7457 121.618C50.5161 121.317 50.4025 120.97 50.4048 120.577C50.4025 120.203 50.5066 119.87 50.7173 119.576C50.928 119.282 51.2169 119.052 51.5838 118.884C51.9508 118.713 52.3698 118.628 52.8409 118.628C53.3073 118.628 53.7228 118.713 54.0874 118.884C54.4543 119.052 54.7431 119.282 54.9538 119.576C55.1669 119.87 55.2734 120.203 55.2734 120.577C55.2734 120.97 55.1562 121.317 54.9219 121.618C54.6899 121.916 54.3904 122.107 54.0234 122.19V122.239C54.3075 122.287 54.5632 122.397 54.7905 122.57C55.0201 122.74 55.2024 122.953 55.3374 123.209C55.4747 123.464 55.5433 123.745 55.5433 124.05C55.5433 124.443 55.4273 124.795 55.1953 125.105C54.9633 125.413 54.6437 125.656 54.2365 125.833C53.8317 126.011 53.3665 126.099 52.8409 126.099ZM52.8409 125.084C53.1132 125.084 53.3499 125.038 53.5511 124.945C53.7524 124.851 53.9086 124.718 54.0199 124.548C54.1312 124.377 54.188 124.181 54.1903 123.958C54.188 123.726 54.1276 123.521 54.0092 123.344C53.8932 123.164 53.7334 123.023 53.5298 122.921C53.3286 122.819 53.099 122.768 52.8409 122.768C52.5805 122.768 52.3485 122.819 52.1449 122.921C51.9413 123.023 51.7803 123.164 51.6619 123.344C51.5459 123.521 51.4891 123.726 51.4915 123.958C51.4891 124.181 51.5436 124.377 51.6548 124.548C51.7661 124.716 51.9223 124.847 52.1236 124.942C52.3272 125.036 52.5663 125.084 52.8409 125.084ZM52.8409 121.771C53.0634 121.771 53.2599 121.726 53.4304 121.636C53.6032 121.546 53.7393 121.42 53.8388 121.259C53.9382 121.098 53.9891 120.912 53.9915 120.702C53.9891 120.493 53.9394 120.311 53.8423 120.155C53.7453 119.996 53.6103 119.874 53.4375 119.789C53.2647 119.701 53.0658 119.658 52.8409 119.658C52.6113 119.658 52.4089 119.701 52.2337 119.789C52.0608 119.874 51.9259 119.996 51.8288 120.155C51.7341 120.311 51.688 120.493 51.6903 120.702C51.688 120.912 51.7353 121.098 51.8324 121.259C51.9318 121.418 52.0679 121.543 52.2408 121.636C52.416 121.726 52.616 121.771 52.8409 121.771Z" fill="black" fill-opacity="0.45"/>
<rect x="266" y="100" width="44" height="44" rx="15" fill="#1A4238"/>
<path fill-rule="evenodd" clip-rule="evenodd" d="M289.293 114.293C289.683 113.902 290.317 113.902 290.707 114.293L297.707 121.293C298.098 121.683 298.098 122.317 297.707 122.707L290.707 129.707C290.317 130.098 289.683 130.098 289.293 129.707C288.902 129.317 288.902 128.683 289.293 128.293L294.586 123H279C278.448 123 278 122.552 278 122C278 121.448 278.448 121 279 121H294.586L289.293 115.707C288.902 115.317 288.902 114.683 289.293 114.293Z" fill="#8AD1BF"/>
</svg>
