<svg width="326" height="160" viewBox="0 0 326 160" fill="none" xmlns="http://www.w3.org/2000/svg">
<rect width="326" height="160" rx="32" fill="#ADBDEB"/>
<path d="M18.2955 47V23.7273H27.0227C28.8106 23.7273 30.3106 24.0379 31.5227 24.6591C32.7424 25.2803 33.6629 26.1515 34.2841 27.2727C34.9129 28.3864 35.2273 29.6856 35.2273 31.1705C35.2273 32.6629 34.9091 33.9583 34.2727 35.0568C33.6439 36.1477 32.7159 36.9924 31.4886 37.5909C30.2614 38.1818 28.7538 38.4773 26.9659 38.4773H20.75V34.9773H26.3977C27.4432 34.9773 28.2992 34.8333 28.9659 34.5455C29.6326 34.25 30.125 33.822 30.4432 33.2614C30.7689 32.6932 30.9318 31.9962 30.9318 31.1705C30.9318 30.3447 30.7689 29.6402 30.4432 29.0568C30.1174 28.4659 29.6212 28.0189 28.9545 27.7159C28.2879 27.4053 27.428 27.25 26.375 27.25H22.5114V47H18.2955ZM30.3182 36.4545L36.0795 47H31.375L25.7159 36.4545H30.3182ZM46.4034 47.3409C44.6534 47.3409 43.142 46.9773 41.8693 46.25C40.6042 45.5152 39.6307 44.4773 38.9489 43.1364C38.267 41.7879 37.9261 40.2008 37.9261 38.375C37.9261 36.5795 38.267 35.0038 38.9489 33.6477C39.6383 32.2841 40.6004 31.2235 41.8352 30.4659C43.0701 29.7008 44.5208 29.3182 46.1875 29.3182C47.2633 29.3182 48.2784 29.4924 49.233 29.8409C50.1951 30.1818 51.0436 30.7121 51.7784 31.4318C52.5208 32.1515 53.1042 33.0682 53.5284 34.1818C53.9527 35.2879 54.1648 36.6061 54.1648 38.1364V39.3977H39.858V36.625H50.2216C50.214 35.8371 50.0436 35.1364 49.7102 34.5227C49.3769 33.9015 48.911 33.4129 48.3125 33.0568C47.7216 32.7008 47.0322 32.5227 46.2443 32.5227C45.4034 32.5227 44.6648 32.7273 44.0284 33.1364C43.392 33.5379 42.8958 34.0682 42.5398 34.7273C42.1913 35.3788 42.0133 36.0947 42.0057 36.875V39.2955C42.0057 40.3106 42.1913 41.1818 42.5625 41.9091C42.9337 42.6288 43.4527 43.1818 44.1193 43.5682C44.786 43.947 45.5663 44.1364 46.4602 44.1364C47.0587 44.1364 47.6004 44.053 48.0852 43.8864C48.5701 43.7121 48.9905 43.4583 49.3466 43.125C49.7027 42.7917 49.9716 42.3788 50.1534 41.8864L53.9943 42.3182C53.7519 43.3333 53.2898 44.2197 52.608 44.9773C51.9337 45.7273 51.0701 46.3106 50.017 46.7273C48.964 47.1364 47.7595 47.3409 46.4034 47.3409ZM72.7358 29.5455L66.5199 47H61.9744L55.7585 29.5455H60.1449L64.1562 42.5114H64.3381L68.3608 29.5455H72.7358ZM77.0227 47.25C76.3333 47.25 75.7424 47.0076 75.25 46.5227C74.7576 46.0379 74.5152 45.447 74.5227 44.75C74.5152 44.0682 74.7576 43.4848 75.25 43C75.7424 42.5152 76.3333 42.2727 77.0227 42.2727C77.6894 42.2727 78.2689 42.5152 78.7614 43C79.2614 43.4848 79.5152 44.0682 79.5227 44.75C79.5152 45.2121 79.3939 45.6326 79.1591 46.0114C78.9318 46.3902 78.6288 46.6932 78.25 46.9205C77.8788 47.1402 77.4697 47.25 77.0227 47.25ZM91.1705 47V23.7273H106.08V27.2614H95.3864V33.5795H105.057V37.1136H95.3864V47H91.1705ZM109.489 47V29.5455H113.477V32.4545H113.659C113.977 31.447 114.523 30.6705 115.295 30.125C116.076 29.572 116.966 29.2955 117.966 29.2955C118.193 29.2955 118.447 29.3068 118.727 29.3295C119.015 29.3447 119.254 29.3712 119.443 29.4091V33.1932C119.269 33.1326 118.992 33.0795 118.614 33.0341C118.242 32.9811 117.883 32.9545 117.534 32.9545C116.784 32.9545 116.11 33.1174 115.511 33.4432C114.92 33.7614 114.455 34.2045 114.114 34.7727C113.773 35.3409 113.602 35.9962 113.602 36.7386V47H109.489ZM126.886 47.3523C125.78 47.3523 124.784 47.1553 123.898 46.7614C123.019 46.3598 122.322 45.7689 121.807 44.9886C121.299 44.2083 121.045 43.2462 121.045 42.1023C121.045 41.1174 121.227 40.303 121.591 39.6591C121.955 39.0152 122.451 38.5 123.08 38.1136C123.708 37.7273 124.417 37.4356 125.205 37.2386C126 37.0341 126.822 36.8864 127.67 36.7955C128.693 36.6894 129.523 36.5947 130.159 36.5114C130.795 36.4205 131.258 36.2841 131.545 36.1023C131.841 35.9129 131.989 35.6212 131.989 35.2273V35.1591C131.989 34.303 131.735 33.6402 131.227 33.1705C130.72 32.7008 129.989 32.4659 129.034 32.4659C128.027 32.4659 127.227 32.6856 126.636 33.125C126.053 33.5644 125.659 34.0833 125.455 34.6818L121.614 34.1364C121.917 33.0758 122.417 32.1894 123.114 31.4773C123.811 30.7576 124.663 30.2197 125.67 29.8636C126.678 29.5 127.792 29.3182 129.011 29.3182C129.852 29.3182 130.689 29.4167 131.523 29.6136C132.356 29.8106 133.117 30.1364 133.807 30.5909C134.496 31.0379 135.049 31.6477 135.466 32.4205C135.89 33.1932 136.102 34.1591 136.102 35.3182V47H132.148V44.6023H132.011C131.761 45.0871 131.409 45.5417 130.955 45.9659C130.508 46.3826 129.943 46.7197 129.261 46.9773C128.587 47.2273 127.795 47.3523 126.886 47.3523ZM127.955 44.3295C128.78 44.3295 129.496 44.1667 130.102 43.8409C130.708 43.5076 131.174 43.0682 131.5 42.5227C131.833 41.9773 132 41.3826 132 40.7386V38.6818C131.871 38.7879 131.652 38.8864 131.341 38.9773C131.038 39.0682 130.697 39.1477 130.318 39.2159C129.939 39.2841 129.564 39.3447 129.193 39.3977C128.822 39.4508 128.5 39.4962 128.227 39.5341C127.614 39.6174 127.064 39.7538 126.58 39.9432C126.095 40.1326 125.712 40.3977 125.432 40.7386C125.152 41.072 125.011 41.5038 125.011 42.0341C125.011 42.7917 125.288 43.3636 125.841 43.75C126.394 44.1364 127.098 44.3295 127.955 44.3295ZM144.352 36.7727V47H140.239V29.5455H144.17V32.5114H144.375C144.777 31.5341 145.417 30.7576 146.295 30.1818C147.182 29.6061 148.277 29.3182 149.58 29.3182C150.784 29.3182 151.833 29.5758 152.727 30.0909C153.629 30.6061 154.326 31.3523 154.818 32.3295C155.318 33.3068 155.564 34.4924 155.557 35.8864V47H151.443V36.5227C151.443 35.3561 151.14 34.4432 150.534 33.7841C149.936 33.125 149.106 32.7955 148.045 32.7955C147.326 32.7955 146.686 32.9545 146.125 33.2727C145.572 33.5833 145.136 34.0341 144.818 34.625C144.508 35.2159 144.352 35.9318 144.352 36.7727ZM167.352 47.3409C165.61 47.3409 164.114 46.9583 162.864 46.1932C161.621 45.428 160.663 44.3712 159.989 43.0227C159.322 41.6667 158.989 40.1061 158.989 38.3409C158.989 36.5682 159.33 35.0038 160.011 33.6477C160.693 32.2841 161.655 31.2235 162.898 30.4659C164.148 29.7008 165.625 29.3182 167.33 29.3182C168.746 29.3182 170 29.5795 171.091 30.1023C172.189 30.6174 173.064 31.3485 173.716 32.2955C174.367 33.2348 174.739 34.3333 174.83 35.5909H170.898C170.739 34.75 170.36 34.0492 169.761 33.4886C169.17 32.9205 168.379 32.6364 167.386 32.6364C166.545 32.6364 165.807 32.8636 165.17 33.3182C164.534 33.7652 164.038 34.4091 163.682 35.25C163.333 36.0909 163.159 37.0985 163.159 38.2727C163.159 39.4621 163.333 40.4848 163.682 41.3409C164.03 42.1894 164.519 42.8447 165.148 43.3068C165.784 43.7614 166.53 43.9886 167.386 43.9886C167.992 43.9886 168.534 43.875 169.011 43.6477C169.496 43.4129 169.902 43.0758 170.227 42.6364C170.553 42.197 170.777 41.6629 170.898 41.0341H174.83C174.731 42.2689 174.367 43.3636 173.739 44.3182C173.11 45.2652 172.254 46.0076 171.17 46.5455C170.087 47.0758 168.814 47.3409 167.352 47.3409ZM185.935 47.3409C184.185 47.3409 182.673 46.9773 181.401 46.25C180.135 45.5152 179.162 44.4773 178.48 43.1364C177.798 41.7879 177.457 40.2008 177.457 38.375C177.457 36.5795 177.798 35.0038 178.48 33.6477C179.17 32.2841 180.132 31.2235 181.366 30.4659C182.601 29.7008 184.052 29.3182 185.719 29.3182C186.795 29.3182 187.81 29.4924 188.764 29.8409C189.726 30.1818 190.575 30.7121 191.31 31.4318C192.052 32.1515 192.635 33.0682 193.06 34.1818C193.484 35.2879 193.696 36.6061 193.696 38.1364V39.3977H179.389V36.625H189.753C189.745 35.8371 189.575 35.1364 189.241 34.5227C188.908 33.9015 188.442 33.4129 187.844 33.0568C187.253 32.7008 186.563 32.5227 185.776 32.5227C184.935 32.5227 184.196 32.7273 183.56 33.1364C182.923 33.5379 182.427 34.0682 182.071 34.7273C181.723 35.3788 181.545 36.0947 181.537 36.875V39.2955C181.537 40.3106 181.723 41.1818 182.094 41.9091C182.465 42.6288 182.984 43.1818 183.651 43.5682C184.317 43.947 185.098 44.1364 185.991 44.1364C186.59 44.1364 187.132 44.053 187.616 43.8864C188.101 43.7121 188.522 43.4583 188.878 43.125C189.234 42.7917 189.503 42.3788 189.685 41.8864L193.526 42.3182C193.283 43.3333 192.821 44.2197 192.139 44.9773C191.465 45.7273 190.601 46.3106 189.548 46.7273C188.495 47.1364 187.291 47.3409 185.935 47.3409ZM210.972 34.1591L207.222 34.5682C207.116 34.1894 206.93 33.8333 206.665 33.5C206.407 33.1667 206.059 32.8977 205.619 32.6932C205.18 32.4886 204.642 32.3864 204.006 32.3864C203.15 32.3864 202.43 32.572 201.847 32.9432C201.271 33.3144 200.987 33.7955 200.994 34.3864C200.987 34.8939 201.172 35.3068 201.551 35.625C201.938 35.9432 202.574 36.2045 203.46 36.4091L206.438 37.0455C208.089 37.4015 209.316 37.9659 210.119 38.7386C210.93 39.5114 211.339 40.5227 211.347 41.7727C211.339 42.8712 211.017 43.8409 210.381 44.6818C209.752 45.5152 208.877 46.1667 207.756 46.6364C206.634 47.1061 205.347 47.3409 203.892 47.3409C201.756 47.3409 200.036 46.8939 198.733 46C197.43 45.0985 196.653 43.8447 196.403 42.2386L200.415 41.8523C200.597 42.6402 200.983 43.2348 201.574 43.6364C202.165 44.0379 202.934 44.2386 203.881 44.2386C204.858 44.2386 205.642 44.0379 206.233 43.6364C206.831 43.2348 207.131 42.7386 207.131 42.1477C207.131 41.6477 206.938 41.2348 206.551 40.9091C206.172 40.5833 205.581 40.3333 204.778 40.1591L201.801 39.5341C200.127 39.1856 198.888 38.5985 198.085 37.7727C197.282 36.9394 196.884 35.8864 196.892 34.6136C196.884 33.5379 197.176 32.6061 197.767 31.8182C198.366 31.0227 199.195 30.4091 200.256 29.9773C201.324 29.5379 202.555 29.3182 203.949 29.3182C205.994 29.3182 207.604 29.7538 208.778 30.625C209.96 31.4962 210.691 32.6742 210.972 34.1591ZM219.761 47.3523C218.655 47.3523 217.659 47.1553 216.773 46.7614C215.894 46.3598 215.197 45.7689 214.682 44.9886C214.174 44.2083 213.92 43.2462 213.92 42.1023C213.92 41.1174 214.102 40.303 214.466 39.6591C214.83 39.0152 215.326 38.5 215.955 38.1136C216.583 37.7273 217.292 37.4356 218.08 37.2386C218.875 37.0341 219.697 36.8864 220.545 36.7955C221.568 36.6894 222.398 36.5947 223.034 36.5114C223.67 36.4205 224.133 36.2841 224.42 36.1023C224.716 35.9129 224.864 35.6212 224.864 35.2273V35.1591C224.864 34.303 224.61 33.6402 224.102 33.1705C223.595 32.7008 222.864 32.4659 221.909 32.4659C220.902 32.4659 220.102 32.6856 219.511 33.125C218.928 33.5644 218.534 34.0833 218.33 34.6818L214.489 34.1364C214.792 33.0758 215.292 32.1894 215.989 31.4773C216.686 30.7576 217.538 30.2197 218.545 29.8636C219.553 29.5 220.667 29.3182 221.886 29.3182C222.727 29.3182 223.564 29.4167 224.398 29.6136C225.231 29.8106 225.992 30.1364 226.682 30.5909C227.371 31.0379 227.924 31.6477 228.341 32.4205C228.765 33.1932 228.977 34.1591 228.977 35.3182V47H225.023V44.6023H224.886C224.636 45.0871 224.284 45.5417 223.83 45.9659C223.383 46.3826 222.818 46.7197 222.136 46.9773C221.462 47.2273 220.67 47.3523 219.761 47.3523ZM220.83 44.3295C221.655 44.3295 222.371 44.1667 222.977 43.8409C223.583 43.5076 224.049 43.0682 224.375 42.5227C224.708 41.9773 224.875 41.3826 224.875 40.7386V38.6818C224.746 38.7879 224.527 38.8864 224.216 38.9773C223.913 39.0682 223.572 39.1477 223.193 39.2159C222.814 39.2841 222.439 39.3447 222.068 39.3977C221.697 39.4508 221.375 39.4962 221.102 39.5341C220.489 39.6174 219.939 39.7538 219.455 39.9432C218.97 40.1326 218.587 40.3977 218.307 40.7386C218.027 41.072 217.886 41.5038 217.886 42.0341C217.886 42.7917 218.163 43.3636 218.716 43.75C219.269 44.1364 219.973 44.3295 220.83 44.3295Z" fill="#2947A3"/>
<path fill-rule="evenodd" clip-rule="evenodd" d="M21.8333 113.667C19.5321 113.667 17.6666 115.532 17.6666 117.833V126.167C17.6666 128.468 19.5321 130.333 21.8333 130.333H30.1666C32.4678 130.333 34.3333 128.468 34.3333 126.167V117.833C34.3333 115.532 32.4678 113.667 30.1666 113.667H21.8333ZM27.1207 118.222C26.6622 117.293 25.3374 117.293 24.8789 118.222L24.2219 119.553L22.7527 119.766C21.7275 119.915 21.3181 121.175 22.06 121.899L23.123 122.935L22.8721 124.398C22.6969 125.419 23.7687 126.198 24.6858 125.716L25.9998 125.025L27.3139 125.716C28.2309 126.198 29.3027 125.419 29.1275 124.398L28.8766 122.935L29.9397 121.899C30.6816 121.175 30.2722 119.915 29.2469 119.766L27.7778 119.553L27.1207 118.222Z" fill="#2947A3"/>
<path d="M43.6044 118.727V126H42.2869V120.009H42.2443L40.5433 121.096V119.888L42.3509 118.727H43.6044ZM47.9794 126.099C47.5059 126.099 47.0821 126.011 46.7081 125.833C46.334 125.653 46.0369 125.407 45.8168 125.094C45.599 124.782 45.483 124.424 45.4688 124.022H46.7472C46.7708 124.32 46.8999 124.564 47.1342 124.754C47.3686 124.941 47.6503 125.034 47.9794 125.034C48.2375 125.034 48.4671 124.975 48.6683 124.857C48.8696 124.738 49.0282 124.574 49.1442 124.363C49.2602 124.152 49.317 123.912 49.3146 123.642C49.317 123.367 49.259 123.124 49.1406 122.911C49.0223 122.697 48.8601 122.531 48.6541 122.41C48.4482 122.287 48.2114 122.225 47.9439 122.225C47.7261 122.223 47.5118 122.263 47.3011 122.346C47.0904 122.429 46.9235 122.538 46.8004 122.673L45.6108 122.477L45.9908 118.727H50.2095V119.828H47.081L46.8714 121.756H46.9141C47.049 121.598 47.2396 121.466 47.4858 121.362C47.732 121.256 48.0019 121.202 48.2955 121.202C48.7358 121.202 49.1288 121.307 49.4744 121.515C49.8201 121.721 50.0923 122.005 50.2912 122.367C50.4901 122.729 50.5895 123.144 50.5895 123.61C50.5895 124.091 50.4782 124.519 50.2557 124.896C50.0355 125.27 49.7289 125.564 49.3359 125.78C48.9453 125.993 48.4931 126.099 47.9794 126.099Z" fill="black" fill-opacity="0.45"/>
<rect x="266" y="100" width="44" height="44" rx="15" fill="#2947A3"/>
<path fill-rule="evenodd" clip-rule="evenodd" d="M289.293 114.293C289.683 113.902 290.317 113.902 290.707 114.293L297.707 121.293C298.098 121.683 298.098 122.317 297.707 122.707L290.707 129.707C290.317 130.098 289.683 130.098 289.293 129.707C288.902 129.317 288.902 128.683 289.293 128.293L294.586 123H279C278.448 123 278 122.552 278 122C278 121.448 278.448 121 279 121H294.586L289.293 115.707C288.902 115.317 288.902 114.683 289.293 114.293Z" fill="#ADBDEB"/>
</svg>
