<svg width="326" height="160" viewBox="0 0 326 160" fill="none" xmlns="http://www.w3.org/2000/svg">
<rect width="326" height="160" rx="32" fill="#C6B4E4"/>
<path d="M38.2159 31.5795H33.9659C33.8447 30.8826 33.6212 30.2652 33.2955 29.7273C32.9697 29.1818 32.5644 28.7197 32.0795 28.3409C31.5947 27.9621 31.0417 27.678 30.4205 27.4886C29.8068 27.2917 29.1439 27.1932 28.4318 27.1932C27.1667 27.1932 26.0455 27.5114 25.0682 28.1477C24.0909 28.7765 23.3258 29.7008 22.7727 30.9205C22.2197 32.1326 21.9432 33.6136 21.9432 35.3636C21.9432 37.1439 22.2197 38.6439 22.7727 39.8636C23.3333 41.0758 24.0985 41.9924 25.0682 42.6136C26.0455 43.2273 27.1629 43.5341 28.4205 43.5341C29.1174 43.5341 29.7689 43.4432 30.375 43.2614C30.9886 43.072 31.5379 42.7955 32.0227 42.4318C32.5152 42.0682 32.928 41.6212 33.2614 41.0909C33.6023 40.5606 33.8371 39.9545 33.9659 39.2727L38.2159 39.2955C38.0568 40.4015 37.7121 41.4394 37.1818 42.4091C36.6591 43.3788 35.9735 44.2348 35.125 44.9773C34.2765 45.7121 33.2841 46.2879 32.1477 46.7045C31.0114 47.1136 29.75 47.3182 28.3636 47.3182C26.3182 47.3182 24.4924 46.8447 22.8864 45.8977C21.2803 44.9508 20.0152 43.5833 19.0909 41.7955C18.1667 40.0076 17.7045 37.8636 17.7045 35.3636C17.7045 32.8561 18.1705 30.7121 19.1023 28.9318C20.0341 27.1439 21.303 25.7765 22.9091 24.8295C24.5152 23.8826 26.3333 23.4091 28.3636 23.4091C29.6591 23.4091 30.8636 23.5909 31.9773 23.9545C33.0909 24.3182 34.0833 24.8523 34.9545 25.5568C35.8258 26.2538 36.5417 27.1098 37.1023 28.125C37.6705 29.1326 38.0417 30.2841 38.2159 31.5795ZM49.5085 47.3409C47.804 47.3409 46.3267 46.9659 45.0767 46.2159C43.8267 45.4659 42.857 44.4167 42.1676 43.0682C41.4858 41.7197 41.1449 40.1439 41.1449 38.3409C41.1449 36.5379 41.4858 34.9583 42.1676 33.6023C42.857 32.2462 43.8267 31.1932 45.0767 30.4432C46.3267 29.6932 47.804 29.3182 49.5085 29.3182C51.2131 29.3182 52.6903 29.6932 53.9403 30.4432C55.1903 31.1932 56.1563 32.2462 56.8381 33.6023C57.5275 34.9583 57.8722 36.5379 57.8722 38.3409C57.8722 40.1439 57.5275 41.7197 56.8381 43.0682C56.1563 44.4167 55.1903 45.4659 53.9403 46.2159C52.6903 46.9659 51.2131 47.3409 49.5085 47.3409ZM49.5312 44.0455C50.4555 44.0455 51.2282 43.7917 51.8494 43.2841C52.4706 42.7689 52.9328 42.0795 53.2358 41.2159C53.5464 40.3523 53.7017 39.3902 53.7017 38.3295C53.7017 37.2614 53.5464 36.2955 53.2358 35.4318C52.9328 34.5606 52.4706 33.8674 51.8494 33.3523C51.2282 32.8371 50.4555 32.5795 49.5312 32.5795C48.5843 32.5795 47.7964 32.8371 47.1676 33.3523C46.5464 33.8674 46.0805 34.5606 45.7699 35.4318C45.4669 36.2955 45.3153 37.2614 45.3153 38.3295C45.3153 39.3902 45.4669 40.3523 45.7699 41.2159C46.0805 42.0795 46.5464 42.7689 47.1676 43.2841C47.7964 43.7917 48.5843 44.0455 49.5312 44.0455ZM61.3636 47V29.5455H65.2955V32.5114H65.5C65.8636 31.5114 66.4659 30.7311 67.3068 30.1705C68.1477 29.6023 69.1515 29.3182 70.3182 29.3182C71.5 29.3182 72.4962 29.6061 73.3068 30.1818C74.125 30.75 74.7008 31.5265 75.0341 32.5114H75.2159C75.6023 31.5417 76.2538 30.7689 77.1705 30.1932C78.0947 29.6098 79.1894 29.3182 80.4545 29.3182C82.0606 29.3182 83.3712 29.8258 84.3864 30.8409C85.4015 31.8561 85.9091 33.3371 85.9091 35.2841V47H81.7841V35.9205C81.7841 34.8371 81.4962 34.0455 80.9205 33.5455C80.3447 33.0379 79.6402 32.7841 78.8068 32.7841C77.8144 32.7841 77.0379 33.0947 76.4773 33.7159C75.9242 34.3295 75.6477 35.1288 75.6477 36.1136V47H71.6136V35.75C71.6136 34.8485 71.3409 34.1288 70.7955 33.5909C70.2576 33.053 69.553 32.7841 68.6818 32.7841C68.0909 32.7841 67.553 32.9356 67.0682 33.2386C66.5833 33.5341 66.197 33.9545 65.9091 34.5C65.6212 35.0379 65.4773 35.6667 65.4773 36.3864V47H61.3636ZM90.0824 53.5455V29.5455H94.1278V32.4318H94.3665C94.5786 32.0076 94.8778 31.5568 95.2642 31.0795C95.6506 30.5947 96.1733 30.1818 96.8324 29.8409C97.4915 29.4924 98.3324 29.3182 99.3551 29.3182C100.704 29.3182 101.92 29.6629 103.003 30.3523C104.094 31.0341 104.957 32.0455 105.594 33.3864C106.238 34.7197 106.56 36.3561 106.56 38.2955C106.56 40.2121 106.245 41.8409 105.616 43.1818C104.988 44.5227 104.132 45.5455 103.048 46.25C101.965 46.9545 100.738 47.3068 99.3665 47.3068C98.3665 47.3068 97.5369 47.1402 96.8778 46.8068C96.2188 46.4735 95.6884 46.072 95.2869 45.6023C94.893 45.125 94.5862 44.6742 94.3665 44.25H94.196V53.5455H90.0824ZM94.1165 38.2727C94.1165 39.4015 94.2756 40.3902 94.5938 41.2386C94.9195 42.0871 95.3854 42.75 95.9915 43.2273C96.6051 43.697 97.3475 43.9318 98.2188 43.9318C99.1278 43.9318 99.8892 43.6894 100.503 43.2045C101.116 42.7121 101.579 42.0417 101.889 41.1932C102.207 40.3371 102.366 39.3636 102.366 38.2727C102.366 37.1894 102.211 36.2273 101.901 35.3864C101.59 34.5455 101.128 33.8864 100.514 33.4091C99.9006 32.9318 99.1354 32.6932 98.2188 32.6932C97.34 32.6932 96.5938 32.9242 95.9801 33.3864C95.3665 33.8485 94.9006 34.4962 94.5824 35.3295C94.2718 36.1629 94.1165 37.1439 94.1165 38.2727ZM112.616 47.25C111.927 47.25 111.336 47.0076 110.844 46.5227C110.351 46.0379 110.109 45.447 110.116 44.75C110.109 44.0682 110.351 43.4848 110.844 43C111.336 42.5152 111.927 42.2727 112.616 42.2727C113.283 42.2727 113.863 42.5152 114.355 43C114.855 43.4848 115.109 44.0682 115.116 44.75C115.109 45.2121 114.988 45.6326 114.753 46.0114C114.526 46.3902 114.223 46.6932 113.844 46.9205C113.473 47.1402 113.063 47.25 112.616 47.25ZM135.435 39.1818H139.253L141.514 42.1136L143.128 44.0227L147.003 49H142.912L140.276 45.6591L139.151 44.0682L135.435 39.1818ZM147.56 35.3636C147.56 37.8712 147.09 40.0189 146.151 41.8068C145.219 43.5871 143.946 44.9508 142.332 45.8977C140.726 46.8447 138.904 47.3182 136.866 47.3182C134.829 47.3182 133.003 46.8447 131.389 45.8977C129.783 44.9432 128.51 43.5758 127.571 41.7955C126.639 40.0076 126.173 37.8636 126.173 35.3636C126.173 32.8561 126.639 30.7121 127.571 28.9318C128.51 27.1439 129.783 25.7765 131.389 24.8295C133.003 23.8826 134.829 23.4091 136.866 23.4091C138.904 23.4091 140.726 23.8826 142.332 24.8295C143.946 25.7765 145.219 27.1439 146.151 28.9318C147.09 30.7121 147.56 32.8561 147.56 35.3636ZM143.321 35.3636C143.321 33.5985 143.045 32.1098 142.491 30.8977C141.946 29.678 141.188 28.7576 140.219 28.1364C139.249 27.5076 138.132 27.1932 136.866 27.1932C135.601 27.1932 134.484 27.5076 133.514 28.1364C132.545 28.7576 131.783 29.678 131.23 30.8977C130.685 32.1098 130.412 33.5985 130.412 35.3636C130.412 37.1288 130.685 38.6212 131.23 39.8409C131.783 41.053 132.545 41.9735 133.514 42.6023C134.484 43.2235 135.601 43.5341 136.866 43.5341C138.132 43.5341 139.249 43.2235 140.219 42.6023C141.188 41.9735 141.946 41.053 142.491 39.8409C143.045 38.6212 143.321 37.1288 143.321 35.3636ZM162.52 39.6591V29.5455H166.634V47H162.645V43.8977H162.463C162.069 44.875 161.421 45.6742 160.52 46.2955C159.626 46.9167 158.524 47.2273 157.213 47.2273C156.069 47.2273 155.058 46.9735 154.179 46.4659C153.308 45.9508 152.626 45.2045 152.134 44.2273C151.641 43.2424 151.395 42.053 151.395 40.6591V29.5455H155.509V40.0227C155.509 41.1288 155.812 42.0076 156.418 42.6591C157.024 43.3106 157.819 43.6364 158.804 43.6364C159.41 43.6364 159.997 43.4886 160.565 43.1932C161.134 42.8977 161.599 42.4583 161.963 41.875C162.334 41.2841 162.52 40.5455 162.52 39.6591ZM175.886 47.3523C174.78 47.3523 173.784 47.1553 172.898 46.7614C172.019 46.3598 171.322 45.7689 170.807 44.9886C170.299 44.2083 170.045 43.2462 170.045 42.1023C170.045 41.1174 170.227 40.303 170.591 39.6591C170.955 39.0152 171.451 38.5 172.08 38.1136C172.708 37.7273 173.417 37.4356 174.205 37.2386C175 37.0341 175.822 36.8864 176.67 36.7955C177.693 36.6894 178.523 36.5947 179.159 36.5114C179.795 36.4205 180.258 36.2841 180.545 36.1023C180.841 35.9129 180.989 35.6212 180.989 35.2273V35.1591C180.989 34.303 180.735 33.6402 180.227 33.1705C179.72 32.7008 178.989 32.4659 178.034 32.4659C177.027 32.4659 176.227 32.6856 175.636 33.125C175.053 33.5644 174.659 34.0833 174.455 34.6818L170.614 34.1364C170.917 33.0758 171.417 32.1894 172.114 31.4773C172.811 30.7576 173.663 30.2197 174.67 29.8636C175.678 29.5 176.792 29.3182 178.011 29.3182C178.852 29.3182 179.689 29.4167 180.523 29.6136C181.356 29.8106 182.117 30.1364 182.807 30.5909C183.496 31.0379 184.049 31.6477 184.466 32.4205C184.89 33.1932 185.102 34.1591 185.102 35.3182V47H181.148V44.6023H181.011C180.761 45.0871 180.409 45.5417 179.955 45.9659C179.508 46.3826 178.943 46.7197 178.261 46.9773C177.587 47.2273 176.795 47.3523 175.886 47.3523ZM176.955 44.3295C177.78 44.3295 178.496 44.1667 179.102 43.8409C179.708 43.5076 180.174 43.0682 180.5 42.5227C180.833 41.9773 181 41.3826 181 40.7386V38.6818C180.871 38.7879 180.652 38.8864 180.341 38.9773C180.038 39.0682 179.697 39.1477 179.318 39.2159C178.939 39.2841 178.564 39.3447 178.193 39.3977C177.822 39.4508 177.5 39.4962 177.227 39.5341C176.614 39.6174 176.064 39.7538 175.58 39.9432C175.095 40.1326 174.712 40.3977 174.432 40.7386C174.152 41.072 174.011 41.5038 174.011 42.0341C174.011 42.7917 174.288 43.3636 174.841 43.75C175.394 44.1364 176.098 44.3295 176.955 44.3295ZM180.5 27.4545L178.193 24.5455L175.886 27.4545H172.284V27.2955L176.591 22.3864H179.807L184.102 27.2955V27.4545H180.5ZM193.352 36.7727V47H189.239V29.5455H193.17V32.5114H193.375C193.777 31.5341 194.417 30.7576 195.295 30.1818C196.182 29.6061 197.277 29.3182 198.58 29.3182C199.784 29.3182 200.833 29.5758 201.727 30.0909C202.629 30.6061 203.326 31.3523 203.818 32.3295C204.318 33.3068 204.564 34.4924 204.557 35.8864V47H200.443V36.5227C200.443 35.3561 200.14 34.4432 199.534 33.7841C198.936 33.125 198.106 32.7955 197.045 32.7955C196.326 32.7955 195.686 32.9545 195.125 33.2727C194.572 33.5833 194.136 34.0341 193.818 34.625C193.508 35.2159 193.352 35.9318 193.352 36.7727ZM217.455 29.5455V32.7273H207.42V29.5455H217.455ZM209.898 25.3636H214.011V41.75C214.011 42.303 214.095 42.7273 214.261 43.0227C214.436 43.3106 214.663 43.5076 214.943 43.6136C215.223 43.7197 215.534 43.7727 215.875 43.7727C216.133 43.7727 216.367 43.7538 216.58 43.7159C216.799 43.678 216.966 43.6439 217.08 43.6136L217.773 46.8295C217.553 46.9053 217.239 46.9886 216.83 47.0795C216.428 47.1705 215.936 47.2235 215.352 47.2386C214.322 47.2689 213.394 47.1136 212.568 46.7727C211.742 46.4242 211.087 45.8864 210.602 45.1591C210.125 44.4318 209.89 43.5227 209.898 42.4318V25.3636ZM220.895 47V29.5455H225.009V47H220.895ZM222.963 27.0682C222.312 27.0682 221.751 26.8523 221.281 26.4205C220.812 25.9811 220.577 25.4545 220.577 24.8409C220.577 24.2197 220.812 23.6932 221.281 23.2614C221.751 22.822 222.312 22.6023 222.963 22.6023C223.622 22.6023 224.183 22.822 224.645 23.2614C225.115 23.6932 225.349 24.2197 225.349 24.8409C225.349 25.4545 225.115 25.9811 224.645 26.4205C224.183 26.8523 223.622 27.0682 222.963 27.0682ZM236.852 47.3409C235.11 47.3409 233.614 46.9583 232.364 46.1932C231.121 45.428 230.163 44.3712 229.489 43.0227C228.822 41.6667 228.489 40.1061 228.489 38.3409C228.489 36.5682 228.83 35.0038 229.511 33.6477C230.193 32.2841 231.155 31.2235 232.398 30.4659C233.648 29.7008 235.125 29.3182 236.83 29.3182C238.246 29.3182 239.5 29.5795 240.591 30.1023C241.689 30.6174 242.564 31.3485 243.216 32.2955C243.867 33.2348 244.239 34.3333 244.33 35.5909H240.398C240.239 34.75 239.86 34.0492 239.261 33.4886C238.67 32.9205 237.879 32.6364 236.886 32.6364C236.045 32.6364 235.307 32.8636 234.67 33.3182C234.034 33.7652 233.538 34.4091 233.182 35.25C232.833 36.0909 232.659 37.0985 232.659 38.2727C232.659 39.4621 232.833 40.4848 233.182 41.3409C233.53 42.1894 234.019 42.8447 234.648 43.3068C235.284 43.7614 236.03 43.9886 236.886 43.9886C237.492 43.9886 238.034 43.875 238.511 43.6477C238.996 43.4129 239.402 43.0758 239.727 42.6364C240.053 42.197 240.277 41.6629 240.398 41.0341H244.33C244.231 42.2689 243.867 43.3636 243.239 44.3182C242.61 45.2652 241.754 46.0076 240.67 46.5455C239.587 47.0758 238.314 47.3409 236.852 47.3409ZM252.73 47.3523C251.624 47.3523 250.628 47.1553 249.741 46.7614C248.863 46.3598 248.166 45.7689 247.651 44.9886C247.143 44.2083 246.889 43.2462 246.889 42.1023C246.889 41.1174 247.071 40.303 247.435 39.6591C247.798 39.0152 248.295 38.5 248.923 38.1136C249.552 37.7273 250.26 37.4356 251.048 37.2386C251.844 37.0341 252.666 36.8864 253.514 36.7955C254.537 36.6894 255.366 36.5947 256.003 36.5114C256.639 36.4205 257.101 36.2841 257.389 36.1023C257.685 35.9129 257.832 35.6212 257.832 35.2273V35.1591C257.832 34.303 257.579 33.6402 257.071 33.1705C256.563 32.7008 255.832 32.4659 254.878 32.4659C253.87 32.4659 253.071 32.6856 252.48 33.125C251.897 33.5644 251.503 34.0833 251.298 34.6818L247.457 34.1364C247.76 33.0758 248.26 32.1894 248.957 31.4773C249.654 30.7576 250.507 30.2197 251.514 29.8636C252.522 29.5 253.635 29.3182 254.855 29.3182C255.696 29.3182 256.533 29.4167 257.366 29.6136C258.2 29.8106 258.961 30.1364 259.651 30.5909C260.34 31.0379 260.893 31.6477 261.31 32.4205C261.734 33.1932 261.946 34.1591 261.946 35.3182V47H257.991V44.6023H257.855C257.605 45.0871 257.253 45.5417 256.798 45.9659C256.351 46.3826 255.787 46.7197 255.105 46.9773C254.431 47.2273 253.639 47.3523 252.73 47.3523ZM253.798 44.3295C254.624 44.3295 255.34 44.1667 255.946 43.8409C256.552 43.5076 257.018 43.0682 257.344 42.5227C257.677 41.9773 257.844 41.3826 257.844 40.7386V38.6818C257.715 38.7879 257.495 38.8864 257.185 38.9773C256.882 39.0682 256.541 39.1477 256.162 39.2159C255.783 39.2841 255.408 39.3447 255.037 39.3977C254.666 39.4508 254.344 39.4962 254.071 39.5341C253.457 39.6174 252.908 39.7538 252.423 39.9432C251.938 40.1326 251.556 40.3977 251.276 40.7386C250.995 41.072 250.855 41.5038 250.855 42.0341C250.855 42.7917 251.132 43.3636 251.685 43.75C252.238 44.1364 252.942 44.3295 253.798 44.3295Z" fill="#5A3695"/>
<path fill-rule="evenodd" clip-rule="evenodd" d="M21.8333 113.667C19.5321 113.667 17.6666 115.532 17.6666 117.833V126.167C17.6666 128.468 19.5321 130.333 21.8333 130.333H30.1666C32.4678 130.333 34.3333 128.468 34.3333 126.167V117.833C34.3333 115.532 32.4678 113.667 30.1666 113.667H21.8333ZM27.1207 118.222C26.6622 117.293 25.3374 117.293 24.8789 118.222L24.2219 119.553L22.7527 119.766C21.7275 119.915 21.3181 121.175 22.06 121.899L23.123 122.935L22.8721 124.398C22.6969 125.419 23.7687 126.198 24.6858 125.716L25.9998 125.025L27.3139 125.716C28.2309 126.198 29.3027 125.419 29.1275 124.398L28.8766 122.935L29.9397 121.899C30.6816 121.175 30.2722 119.915 29.2469 119.766L27.7778 119.553L27.1207 118.222Z" fill="#5A3695"/>
<path d="M43.1747 126.099C42.7012 126.099 42.2775 126.011 41.9034 125.833C41.5294 125.653 41.2322 125.407 41.0121 125.094C40.7943 124.782 40.6783 124.424 40.6641 124.022H41.9425C41.9661 124.32 42.0952 124.564 42.3295 124.754C42.5639 124.941 42.8456 125.034 43.1747 125.034C43.4328 125.034 43.6624 124.975 43.8636 124.857C44.0649 124.738 44.2235 124.574 44.3395 124.363C44.4555 124.152 44.5123 123.912 44.5099 123.642C44.5123 123.367 44.4543 123.124 44.3359 122.911C44.2176 122.697 44.0554 122.531 43.8494 122.41C43.6435 122.287 43.4067 122.225 43.1392 122.225C42.9214 122.223 42.7071 122.263 42.4964 122.346C42.2857 122.429 42.1188 122.538 41.9957 122.673L40.8061 122.477L41.1861 118.727H45.4048V119.828H42.2763L42.0668 121.756H42.1094C42.2443 121.598 42.4349 121.466 42.6811 121.362C42.9273 121.256 43.1972 121.202 43.4908 121.202C43.9311 121.202 44.3241 121.307 44.6697 121.515C45.0154 121.721 45.2876 122.005 45.4865 122.367C45.6854 122.729 45.7848 123.144 45.7848 123.61C45.7848 124.091 45.6735 124.519 45.451 124.896C45.2308 125.27 44.9242 125.564 44.5312 125.78C44.1406 125.993 43.6884 126.099 43.1747 126.099ZM49.9325 118.727V126H48.6151V120.009H48.5724L46.8714 121.096V119.888L48.679 118.727H49.9325Z" fill="black" fill-opacity="0.45"/>
<rect x="266" y="100" width="44" height="44" rx="15" fill="#5A3695"/>
<path fill-rule="evenodd" clip-rule="evenodd" d="M289.293 114.293C289.683 113.902 290.317 113.902 290.707 114.293L297.707 121.293C298.098 121.683 298.098 122.317 297.707 122.707L290.707 129.707C290.317 130.098 289.683 130.098 289.293 129.707C288.902 129.317 288.902 128.683 289.293 128.293L294.586 123H279C278.448 123 278 122.552 278 122C278 121.448 278.448 121 279 121H294.586L289.293 115.707C288.902 115.317 288.902 114.683 289.293 114.293Z" fill="#C6B4E4"/>
</svg>
