<svg width="326" height="160" viewBox="0 0 326 160" fill="none" xmlns="http://www.w3.org/2000/svg">
<rect width="326" height="160" rx="32" fill="#EFD0B4"/>
<path d="M18.2955 23.7273H23.4545L30.3636 40.5909H30.6364L37.5455 23.7273H42.7045V47H38.6591V31.0114H38.4432L32.0114 46.9318H28.9886L22.5568 30.9773H22.3409V47H18.2955V23.7273ZM52.1364 47.3523C51.0303 47.3523 50.0341 47.1553 49.1477 46.7614C48.2689 46.3598 47.572 45.7689 47.0568 44.9886C46.5492 44.2083 46.2955 43.2462 46.2955 42.1023C46.2955 41.1174 46.4773 40.303 46.8409 39.6591C47.2045 39.0152 47.7008 38.5 48.3295 38.1136C48.9583 37.7273 49.6667 37.4356 50.4545 37.2386C51.25 37.0341 52.072 36.8864 52.9205 36.7955C53.9432 36.6894 54.7727 36.5947 55.4091 36.5114C56.0455 36.4205 56.5076 36.2841 56.7955 36.1023C57.0909 35.9129 57.2386 35.6212 57.2386 35.2273V35.1591C57.2386 34.303 56.9848 33.6402 56.4773 33.1705C55.9697 32.7008 55.2386 32.4659 54.2841 32.4659C53.2765 32.4659 52.4773 32.6856 51.8864 33.125C51.303 33.5644 50.9091 34.0833 50.7045 34.6818L46.8636 34.1364C47.1667 33.0758 47.6667 32.1894 48.3636 31.4773C49.0606 30.7576 49.9129 30.2197 50.9205 29.8636C51.928 29.5 53.0417 29.3182 54.2614 29.3182C55.1023 29.3182 55.9394 29.4167 56.7727 29.6136C57.6061 29.8106 58.3674 30.1364 59.0568 30.5909C59.7462 31.0379 60.2992 31.6477 60.7159 32.4205C61.1402 33.1932 61.3523 34.1591 61.3523 35.3182V47H57.3977V44.6023H57.2614C57.0114 45.0871 56.6591 45.5417 56.2045 45.9659C55.7576 46.3826 55.1932 46.7197 54.5114 46.9773C53.8371 47.2273 53.0455 47.3523 52.1364 47.3523ZM53.2045 44.3295C54.0303 44.3295 54.7462 44.1667 55.3523 43.8409C55.9583 43.5076 56.4242 43.0682 56.75 42.5227C57.0833 41.9773 57.25 41.3826 57.25 40.7386V38.6818C57.1212 38.7879 56.9015 38.8864 56.5909 38.9773C56.2879 39.0682 55.947 39.1477 55.5682 39.2159C55.1894 39.2841 54.8144 39.3447 54.4432 39.3977C54.072 39.4508 53.75 39.4962 53.4773 39.5341C52.8636 39.6174 52.3144 39.7538 51.8295 39.9432C51.3447 40.1326 50.9621 40.3977 50.6818 40.7386C50.4015 41.072 50.2614 41.5038 50.2614 42.0341C50.2614 42.7917 50.5379 43.3636 51.0909 43.75C51.6439 44.1364 52.3485 44.3295 53.2045 44.3295ZM74.2045 29.5455V32.7273H64.1705V29.5455H74.2045ZM66.6477 25.3636H70.7614V41.75C70.7614 42.303 70.8447 42.7273 71.0114 43.0227C71.1856 43.3106 71.4129 43.5076 71.6932 43.6136C71.9735 43.7197 72.2841 43.7727 72.625 43.7727C72.8826 43.7727 73.1174 43.7538 73.3295 43.7159C73.5492 43.678 73.7159 43.6439 73.8295 43.6136L74.5227 46.8295C74.303 46.9053 73.9886 46.9886 73.5795 47.0795C73.178 47.1705 72.6856 47.2235 72.1023 47.2386C71.072 47.2689 70.1439 47.1136 69.3182 46.7727C68.4924 46.4242 67.8371 45.8864 67.3523 45.1591C66.875 44.4318 66.6402 43.5227 66.6477 42.4318V25.3636ZM85.1847 47.3409C83.4347 47.3409 81.9233 46.9773 80.6506 46.25C79.3854 45.5152 78.4119 44.4773 77.7301 43.1364C77.0483 41.7879 76.7074 40.2008 76.7074 38.375C76.7074 36.5795 77.0483 35.0038 77.7301 33.6477C78.4195 32.2841 79.3816 31.2235 80.6165 30.4659C81.8513 29.7008 83.3021 29.3182 84.9688 29.3182C86.0445 29.3182 87.0597 29.4924 88.0142 29.8409C88.9763 30.1818 89.8248 30.7121 90.5597 31.4318C91.3021 32.1515 91.8854 33.0682 92.3097 34.1818C92.7339 35.2879 92.946 36.6061 92.946 38.1364V39.3977H78.6392V36.625H89.0028C88.9953 35.8371 88.8248 35.1364 88.4915 34.5227C88.1581 33.9015 87.6922 33.4129 87.0938 33.0568C86.5028 32.7008 85.8134 32.5227 85.0256 32.5227C84.1847 32.5227 83.446 32.7273 82.8097 33.1364C82.1733 33.5379 81.6771 34.0682 81.321 34.7273C80.9725 35.3788 80.7945 36.0947 80.7869 36.875V39.2955C80.7869 40.3106 80.9725 41.1818 81.3438 41.9091C81.715 42.6288 82.2339 43.1818 82.9006 43.5682C83.5672 43.947 84.3475 44.1364 85.2415 44.1364C85.84 44.1364 86.3816 44.053 86.8665 43.8864C87.3513 43.7121 87.7718 43.4583 88.1278 43.125C88.4839 42.7917 88.7528 42.3788 88.9347 41.8864L92.7756 42.3182C92.5331 43.3333 92.071 44.2197 91.3892 44.9773C90.715 45.7273 89.8513 46.3106 88.7983 46.7273C87.7453 47.1364 86.5407 47.3409 85.1847 47.3409ZM83.2756 27.25L85.821 22.0568H89.8438L86.3551 27.25H83.2756ZM96.4261 47V29.5455H100.415V32.4545H100.597C100.915 31.447 101.46 30.6705 102.233 30.125C103.013 29.572 103.903 29.2955 104.903 29.2955C105.131 29.2955 105.384 29.3068 105.665 29.3295C105.953 29.3447 106.191 29.3712 106.381 29.4091V33.1932C106.206 33.1326 105.93 33.0795 105.551 33.0341C105.18 32.9811 104.82 32.9545 104.472 32.9545C103.722 32.9545 103.047 33.1174 102.449 33.4432C101.858 33.7614 101.392 34.2045 101.051 34.7727C100.71 35.3409 100.54 35.9962 100.54 36.7386V47H96.4261ZM109.114 47V29.5455H113.227V47H109.114ZM111.182 27.0682C110.53 27.0682 109.97 26.8523 109.5 26.4205C109.03 25.9811 108.795 25.4545 108.795 24.8409C108.795 24.2197 109.03 23.6932 109.5 23.2614C109.97 22.822 110.53 22.6023 111.182 22.6023C111.841 22.6023 112.402 22.822 112.864 23.2614C113.333 23.6932 113.568 24.2197 113.568 24.8409C113.568 25.4545 113.333 25.9811 112.864 26.4205C112.402 26.8523 111.841 27.0682 111.182 27.0682ZM122.48 47.3523C121.374 47.3523 120.378 47.1553 119.491 46.7614C118.613 46.3598 117.916 45.7689 117.401 44.9886C116.893 44.2083 116.639 43.2462 116.639 42.1023C116.639 41.1174 116.821 40.303 117.185 39.6591C117.548 39.0152 118.045 38.5 118.673 38.1136C119.302 37.7273 120.01 37.4356 120.798 37.2386C121.594 37.0341 122.416 36.8864 123.264 36.7955C124.287 36.6894 125.116 36.5947 125.753 36.5114C126.389 36.4205 126.851 36.2841 127.139 36.1023C127.435 35.9129 127.582 35.6212 127.582 35.2273V35.1591C127.582 34.303 127.329 33.6402 126.821 33.1705C126.313 32.7008 125.582 32.4659 124.628 32.4659C123.62 32.4659 122.821 32.6856 122.23 33.125C121.647 33.5644 121.253 34.0833 121.048 34.6818L117.207 34.1364C117.51 33.0758 118.01 32.1894 118.707 31.4773C119.404 30.7576 120.257 30.2197 121.264 29.8636C122.272 29.5 123.385 29.3182 124.605 29.3182C125.446 29.3182 126.283 29.4167 127.116 29.6136C127.95 29.8106 128.711 30.1364 129.401 30.5909C130.09 31.0379 130.643 31.6477 131.06 32.4205C131.484 33.1932 131.696 34.1591 131.696 35.3182V47H127.741V44.6023H127.605C127.355 45.0871 127.003 45.5417 126.548 45.9659C126.101 46.3826 125.537 46.7197 124.855 46.9773C124.181 47.2273 123.389 47.3523 122.48 47.3523ZM123.548 44.3295C124.374 44.3295 125.09 44.1667 125.696 43.8409C126.302 43.5076 126.768 43.0682 127.094 42.5227C127.427 41.9773 127.594 41.3826 127.594 40.7386V38.6818C127.465 38.7879 127.245 38.8864 126.935 38.9773C126.632 39.0682 126.291 39.1477 125.912 39.2159C125.533 39.2841 125.158 39.3447 124.787 39.3977C124.416 39.4508 124.094 39.4962 123.821 39.5341C123.207 39.6174 122.658 39.7538 122.173 39.9432C121.688 40.1326 121.306 40.3977 121.026 40.7386C120.745 41.072 120.605 41.5038 120.605 42.0341C120.605 42.7917 120.882 43.3636 121.435 43.75C121.988 44.1364 122.692 44.3295 123.548 44.3295ZM143.952 47V23.7273H159.088V27.2614H148.168V33.5795H158.304V37.1136H148.168V43.4659H159.179V47H143.952ZM177.003 34.1591L173.253 34.5682C173.147 34.1894 172.961 33.8333 172.696 33.5C172.438 33.1667 172.09 32.8977 171.651 32.6932C171.211 32.4886 170.673 32.3864 170.037 32.3864C169.181 32.3864 168.461 32.572 167.878 32.9432C167.302 33.3144 167.018 33.7955 167.026 34.3864C167.018 34.8939 167.204 35.3068 167.582 35.625C167.969 35.9432 168.605 36.2045 169.491 36.4091L172.469 37.0455C174.12 37.4015 175.348 37.9659 176.151 38.7386C176.961 39.5114 177.37 40.5227 177.378 41.7727C177.37 42.8712 177.048 43.8409 176.412 44.6818C175.783 45.5152 174.908 46.1667 173.787 46.6364C172.666 47.1061 171.378 47.3409 169.923 47.3409C167.787 47.3409 166.067 46.8939 164.764 46C163.461 45.0985 162.685 43.8447 162.435 42.2386L166.446 41.8523C166.628 42.6402 167.014 43.2348 167.605 43.6364C168.196 44.0379 168.965 44.2386 169.912 44.2386C170.889 44.2386 171.673 44.0379 172.264 43.6364C172.863 43.2348 173.162 42.7386 173.162 42.1477C173.162 41.6477 172.969 41.2348 172.582 40.9091C172.204 40.5833 171.613 40.3333 170.81 40.1591L167.832 39.5341C166.158 39.1856 164.92 38.5985 164.116 37.7727C163.313 36.9394 162.916 35.8864 162.923 34.6136C162.916 33.5379 163.207 32.6061 163.798 31.8182C164.397 31.0227 165.226 30.4091 166.287 29.9773C167.355 29.5379 168.586 29.3182 169.98 29.3182C172.026 29.3182 173.635 29.7538 174.81 30.625C175.991 31.4962 176.723 32.6742 177.003 34.1591ZM188.384 47.3409C186.641 47.3409 185.145 46.9583 183.895 46.1932C182.652 45.428 181.694 44.3712 181.02 43.0227C180.353 41.6667 180.02 40.1061 180.02 38.3409C180.02 36.5682 180.361 35.0038 181.043 33.6477C181.724 32.2841 182.687 31.2235 183.929 30.4659C185.179 29.7008 186.656 29.3182 188.361 29.3182C189.777 29.3182 191.031 29.5795 192.122 30.1023C193.221 30.6174 194.096 31.3485 194.747 32.2955C195.399 33.2348 195.77 34.3333 195.861 35.5909H191.929C191.77 34.75 191.391 34.0492 190.793 33.4886C190.202 32.9205 189.41 32.6364 188.418 32.6364C187.577 32.6364 186.838 32.8636 186.202 33.3182C185.565 33.7652 185.069 34.4091 184.713 35.25C184.365 36.0909 184.19 37.0985 184.19 38.2727C184.19 39.4621 184.365 40.4848 184.713 41.3409C185.062 42.1894 185.55 42.8447 186.179 43.3068C186.815 43.7614 187.562 43.9886 188.418 43.9886C189.024 43.9886 189.565 43.875 190.043 43.6477C190.527 43.4129 190.933 43.0758 191.259 42.6364C191.584 42.197 191.808 41.6629 191.929 41.0341H195.861C195.762 42.2689 195.399 43.3636 194.77 44.3182C194.141 45.2652 193.285 46.0076 192.202 46.5455C191.118 47.0758 189.846 47.3409 188.384 47.3409ZM210.364 39.6591V29.5455H214.477V47H210.489V43.8977H210.307C209.913 44.875 209.265 45.6742 208.364 46.2955C207.47 46.9167 206.367 47.2273 205.057 47.2273C203.913 47.2273 202.902 46.9735 202.023 46.4659C201.152 45.9508 200.47 45.2045 199.977 44.2273C199.485 43.2424 199.239 42.053 199.239 40.6591V29.5455H203.352V40.0227C203.352 41.1288 203.655 42.0076 204.261 42.6591C204.867 43.3106 205.663 43.6364 206.648 43.6364C207.254 43.6364 207.841 43.4886 208.409 43.1932C208.977 42.8977 209.443 42.4583 209.807 41.875C210.178 41.2841 210.364 40.5455 210.364 39.6591ZM218.707 47V29.5455H222.696V32.4545H222.878C223.196 31.447 223.741 30.6705 224.514 30.125C225.295 29.572 226.185 29.2955 227.185 29.2955C227.412 29.2955 227.666 29.3068 227.946 29.3295C228.234 29.3447 228.473 29.3712 228.662 29.4091V33.1932C228.488 33.1326 228.211 33.0795 227.832 33.0341C227.461 32.9811 227.101 32.9545 226.753 32.9545C226.003 32.9545 225.329 33.1174 224.73 33.4432C224.139 33.7614 223.673 34.2045 223.332 34.7727C222.991 35.3409 222.821 35.9962 222.821 36.7386V47H218.707ZM236.105 47.3523C234.999 47.3523 234.003 47.1553 233.116 46.7614C232.238 46.3598 231.541 45.7689 231.026 44.9886C230.518 44.2083 230.264 43.2462 230.264 42.1023C230.264 41.1174 230.446 40.303 230.81 39.6591C231.173 39.0152 231.67 38.5 232.298 38.1136C232.927 37.7273 233.635 37.4356 234.423 37.2386C235.219 37.0341 236.041 36.8864 236.889 36.7955C237.912 36.6894 238.741 36.5947 239.378 36.5114C240.014 36.4205 240.476 36.2841 240.764 36.1023C241.06 35.9129 241.207 35.6212 241.207 35.2273V35.1591C241.207 34.303 240.954 33.6402 240.446 33.1705C239.938 32.7008 239.207 32.4659 238.253 32.4659C237.245 32.4659 236.446 32.6856 235.855 33.125C235.272 33.5644 234.878 34.0833 234.673 34.6818L230.832 34.1364C231.135 33.0758 231.635 32.1894 232.332 31.4773C233.029 30.7576 233.882 30.2197 234.889 29.8636C235.897 29.5 237.01 29.3182 238.23 29.3182C239.071 29.3182 239.908 29.4167 240.741 29.6136C241.575 29.8106 242.336 30.1364 243.026 30.5909C243.715 31.0379 244.268 31.6477 244.685 32.4205C245.109 33.1932 245.321 34.1591 245.321 35.3182V47H241.366V44.6023H241.23C240.98 45.0871 240.628 45.5417 240.173 45.9659C239.726 46.3826 239.162 46.7197 238.48 46.9773C237.806 47.2273 237.014 47.3523 236.105 47.3523ZM237.173 44.3295C237.999 44.3295 238.715 44.1667 239.321 43.8409C239.927 43.5076 240.393 43.0682 240.719 42.5227C241.052 41.9773 241.219 41.3826 241.219 40.7386V38.6818C241.09 38.7879 240.87 38.8864 240.56 38.9773C240.257 39.0682 239.916 39.1477 239.537 39.2159C239.158 39.2841 238.783 39.3447 238.412 39.3977C238.041 39.4508 237.719 39.4962 237.446 39.5341C236.832 39.6174 236.283 39.7538 235.798 39.9432C235.313 40.1326 234.931 40.3977 234.651 40.7386C234.37 41.072 234.23 41.5038 234.23 42.0341C234.23 42.7917 234.507 43.3636 235.06 43.75C235.613 44.1364 236.317 44.3295 237.173 44.3295Z" fill="#B06826"/>
<path fill-rule="evenodd" clip-rule="evenodd" d="M21.8333 113.667C19.5321 113.667 17.6666 115.532 17.6666 117.833V126.167C17.6666 128.468 19.5321 130.333 21.8333 130.333H30.1666C32.4678 130.333 34.3333 128.468 34.3333 126.167V117.833C34.3333 115.532 32.4678 113.667 30.1666 113.667H21.8333ZM27.1207 118.222C26.6622 117.293 25.3374 117.293 24.8789 118.222L24.2219 119.553L22.7527 119.766C21.7275 119.915 21.3181 121.175 22.06 121.899L23.123 122.935L22.8721 124.398C22.6969 125.419 23.7687 126.198 24.6858 125.716L25.9998 125.025L27.3139 125.716C28.2309 126.198 29.3027 125.419 29.1275 124.398L28.8766 122.935L29.9397 121.899C30.6816 121.175 30.2722 119.915 29.2469 119.766L27.7778 119.553L27.1207 118.222Z" fill="#B06826"/>
<path d="M43.2564 126.099C42.745 126.099 42.2905 126.012 41.8928 125.837C41.4974 125.661 41.1849 125.418 40.9553 125.105C40.7256 124.793 40.6037 124.432 40.5895 124.022H41.9247C41.9366 124.219 42.0017 124.39 42.12 124.537C42.2384 124.681 42.3958 124.794 42.5923 124.874C42.7888 124.955 43.009 124.995 43.2528 124.995C43.5133 124.995 43.7441 124.95 43.9453 124.86C44.1465 124.768 44.304 124.64 44.4176 124.477C44.5313 124.313 44.5869 124.125 44.5845 123.912C44.5869 123.692 44.5301 123.498 44.4141 123.33C44.2981 123.161 44.13 123.03 43.9098 122.935C43.692 122.841 43.4292 122.793 43.1214 122.793H42.4787V121.778H43.1214C43.3748 121.778 43.5961 121.734 43.7855 121.646C43.9773 121.559 44.1276 121.436 44.2365 121.277C44.3454 121.116 44.3987 120.93 44.3963 120.719C44.3987 120.513 44.3525 120.335 44.2578 120.183C44.1655 120.029 44.0341 119.91 43.8636 119.825C43.6955 119.739 43.4979 119.697 43.2706 119.697C43.0481 119.697 42.8421 119.737 42.6527 119.817C42.4633 119.898 42.3106 120.013 42.1946 120.162C42.0786 120.309 42.017 120.484 42.0099 120.688H40.7422C40.7517 120.28 40.8688 119.923 41.0938 119.615C41.321 119.305 41.6241 119.063 42.0028 118.891C42.3816 118.715 42.8066 118.628 43.2777 118.628C43.763 118.628 44.1844 118.719 44.5419 118.901C44.9018 119.081 45.1799 119.324 45.3764 119.629C45.5729 119.935 45.6712 120.272 45.6712 120.641C45.6735 121.051 45.5528 121.394 45.3089 121.671C45.0675 121.948 44.7502 122.129 44.3572 122.214V122.271C44.8686 122.342 45.2604 122.532 45.5327 122.839C45.8073 123.145 45.9434 123.525 45.9411 123.979C45.9411 124.387 45.825 124.751 45.593 125.073C45.3634 125.393 45.0462 125.644 44.6413 125.826C44.2389 126.008 43.7772 126.099 43.2564 126.099ZM49.7452 126.099C49.2173 126.099 48.7485 126.011 48.339 125.833C47.9318 125.656 47.6122 125.413 47.3801 125.105C47.1505 124.795 47.0369 124.443 47.0392 124.05C47.0369 123.745 47.1032 123.464 47.2381 123.209C47.373 122.953 47.5553 122.74 47.785 122.57C48.017 122.397 48.275 122.287 48.5591 122.239V122.19C48.1851 122.107 47.882 121.916 47.65 121.618C47.4204 121.317 47.3068 120.97 47.3091 120.577C47.3068 120.203 47.4109 119.87 47.6216 119.576C47.8323 119.282 48.1212 119.052 48.4881 118.884C48.8551 118.713 49.2741 118.628 49.7452 118.628C50.2116 118.628 50.6271 118.713 50.9917 118.884C51.3586 119.052 51.6474 119.282 51.8581 119.576C52.0712 119.87 52.1777 120.203 52.1777 120.577C52.1777 120.97 52.0605 121.317 51.8262 121.618C51.5942 121.916 51.2947 122.107 50.9277 122.19V122.239C51.2118 122.287 51.4675 122.397 51.6948 122.57C51.9244 122.74 52.1067 122.953 52.2417 123.209C52.379 123.464 52.4476 123.745 52.4476 124.05C52.4476 124.443 52.3316 124.795 52.0996 125.105C51.8676 125.413 51.548 125.656 51.1408 125.833C50.736 126.011 50.2708 126.099 49.7452 126.099ZM49.7452 125.084C50.0175 125.084 50.2542 125.038 50.4554 124.945C50.6567 124.851 50.8129 124.718 50.9242 124.548C51.0355 124.377 51.0923 124.181 51.0946 123.958C51.0923 123.726 51.0319 123.521 50.9135 123.344C50.7975 123.164 50.6377 123.023 50.4341 122.921C50.2329 122.819 50.0033 122.768 49.7452 122.768C49.4848 122.768 49.2528 122.819 49.0492 122.921C48.8456 123.023 48.6846 123.164 48.5662 123.344C48.4502 123.521 48.3934 123.726 48.3958 123.958C48.3934 124.181 48.4479 124.377 48.5591 124.548C48.6704 124.716 48.8266 124.847 49.0279 124.942C49.2315 125.036 49.4706 125.084 49.7452 125.084ZM49.7452 121.771C49.9677 121.771 50.1642 121.726 50.3347 121.636C50.5075 121.546 50.6436 121.42 50.7431 121.259C50.8425 121.098 50.8934 120.912 50.8958 120.702C50.8934 120.493 50.8437 120.311 50.7466 120.155C50.6496 119.996 50.5146 119.874 50.3418 119.789C50.169 119.701 49.9701 119.658 49.7452 119.658C49.5156 119.658 49.3132 119.701 49.138 119.789C48.9651 119.874 48.8302 119.996 48.7331 120.155C48.6384 120.311 48.5923 120.493 48.5946 120.702C48.5923 120.912 48.6396 121.098 48.7367 121.259C48.8361 121.418 48.9722 121.543 49.1451 121.636C49.3203 121.726 49.5203 121.771 49.7452 121.771Z" fill="black" fill-opacity="0.45"/>
<rect x="266" y="100" width="44" height="44" rx="15" fill="#B06826"/>
<path fill-rule="evenodd" clip-rule="evenodd" d="M289.293 114.293C289.683 113.902 290.317 113.902 290.707 114.293L297.707 121.293C298.098 121.683 298.098 122.317 297.707 122.707L290.707 129.707C290.317 130.098 289.683 130.098 289.293 129.707C288.902 129.317 288.902 128.683 289.293 128.293L294.586 123H279C278.448 123 278 122.552 278 122C278 121.448 278.448 121 279 121H294.586L289.293 115.707C288.902 115.317 288.902 114.683 289.293 114.293Z" fill="#EFD0B4"/>
</svg>
