<svg width="326" height="160" viewBox="0 0 326 160" fill="none" xmlns="http://www.w3.org/2000/svg">
<rect width="326" height="160" rx="32" fill="#E6B4B2"/>
<path d="M22.5114 23.7273V47H18.2955V23.7273H22.5114ZM30.0653 47H25.5653L33.7585 23.7273H38.9631L47.1676 47H42.6676L36.4517 28.5H36.2699L30.0653 47ZM30.2131 37.875H42.4858V41.2614H30.2131V37.875Z" fill="#9A3732"/>
<path fill-rule="evenodd" clip-rule="evenodd" d="M21.8334 113.667C19.5322 113.667 17.6667 115.532 17.6667 117.833V126.167C17.6667 128.468 19.5322 130.333 21.8334 130.333H30.1667C32.4679 130.333 34.3334 128.468 34.3334 126.167V117.833C34.3334 115.532 32.4679 113.667 30.1667 113.667H21.8334ZM27.1209 118.222C26.6623 117.293 25.3375 117.293 24.879 118.222L24.222 119.553L22.7529 119.766C21.7276 119.915 21.3182 121.175 22.0601 121.899L23.1232 122.935L22.8722 124.398C22.6971 125.419 23.7689 126.198 24.6859 125.716L25.9999 125.025L27.314 125.716C28.231 126.198 29.3028 125.419 29.1277 124.398L28.8767 122.935L29.9398 121.899C30.6817 121.175 30.2723 119.915 29.247 119.766L27.7779 119.553L27.1209 118.222Z" fill="#9A3732"/>
<path d="M43.6044 118.727V126H42.2869V120.009H42.2443L40.5433 121.096V119.888L42.3509 118.727H43.6044ZM45.3196 124.651V123.603L48.4055 118.727H49.2791V120.219H48.7464L46.669 123.511V123.567H50.9766V124.651H45.3196ZM48.7891 126V124.331L48.8033 123.862V118.727H50.0462V126H48.7891Z" fill="black" fill-opacity="0.45"/>
<rect x="266" y="100" width="44" height="44" rx="15" fill="#9A3732"/>
<path fill-rule="evenodd" clip-rule="evenodd" d="M289.293 114.293C289.683 113.902 290.317 113.902 290.707 114.293L297.707 121.293C298.098 121.683 298.098 122.317 297.707 122.707L290.707 129.707C290.317 130.098 289.683 130.098 289.293 129.707C288.902 129.317 288.902 128.683 289.293 128.293L294.586 123H279C278.448 123 278 122.552 278 122C278 121.448 278.448 121 279 121H294.586L289.293 115.707C288.902 115.317 288.902 114.683 289.293 114.293Z" fill="#E6B4B2"/>
</svg>
