<svg width="326" height="160" viewBox="0 0 326 160" fill="none" xmlns="http://www.w3.org/2000/svg">
<rect width="326" height="160" rx="32" fill="#ADBDEB"/>
<path d="M38.2159 31.5795H33.9659C33.8447 30.8826 33.6212 30.2652 33.2955 29.7273C32.9697 29.1818 32.5644 28.7197 32.0795 28.3409C31.5947 27.9621 31.0417 27.678 30.4205 27.4886C29.8068 27.2917 29.1439 27.1932 28.4318 27.1932C27.1667 27.1932 26.0455 27.5114 25.0682 28.1477C24.0909 28.7765 23.3258 29.7008 22.7727 30.9205C22.2197 32.1326 21.9432 33.6136 21.9432 35.3636C21.9432 37.1439 22.2197 38.6439 22.7727 39.8636C23.3333 41.0758 24.0985 41.9924 25.0682 42.6136C26.0455 43.2273 27.1629 43.5341 28.4205 43.5341C29.1174 43.5341 29.7689 43.4432 30.375 43.2614C30.9886 43.072 31.5379 42.7955 32.0227 42.4318C32.5152 42.0682 32.928 41.6212 33.2614 41.0909C33.6023 40.5606 33.8371 39.9545 33.9659 39.2727L38.2159 39.2955C38.0568 40.4015 37.7121 41.4394 37.1818 42.4091C36.6591 43.3788 35.9735 44.2348 35.125 44.9773C34.2765 45.7121 33.2841 46.2879 32.1477 46.7045C31.0114 47.1136 29.75 47.3182 28.3636 47.3182C26.3182 47.3182 24.4924 46.8447 22.8864 45.8977C21.2803 44.9508 20.0152 43.5833 19.0909 41.7955C18.1667 40.0076 17.7045 37.8636 17.7045 35.3636C17.7045 32.8561 18.1705 30.7121 19.1023 28.9318C20.0341 27.1439 21.303 25.7765 22.9091 24.8295C24.5152 23.8826 26.3333 23.4091 28.3636 23.4091C29.6591 23.4091 30.8636 23.5909 31.9773 23.9545C33.0909 24.3182 34.0833 24.8523 34.9545 25.5568C35.8258 26.2538 36.5417 27.1098 37.1023 28.125C37.6705 29.1326 38.0417 30.2841 38.2159 31.5795ZM46.9176 47.3523C45.8116 47.3523 44.8153 47.1553 43.929 46.7614C43.0502 46.3598 42.3532 45.7689 41.8381 44.9886C41.3305 44.2083 41.0767 43.2462 41.0767 42.1023C41.0767 41.1174 41.2585 40.303 41.6222 39.6591C41.9858 39.0152 42.482 38.5 43.1108 38.1136C43.7396 37.7273 44.4479 37.4356 45.2358 37.2386C46.0313 37.0341 46.8532 36.8864 47.7017 36.7955C48.7244 36.6894 49.554 36.5947 50.1903 36.5114C50.8267 36.4205 51.2888 36.2841 51.5767 36.1023C51.8722 35.9129 52.0199 35.6212 52.0199 35.2273V35.1591C52.0199 34.303 51.7661 33.6402 51.2585 33.1705C50.7509 32.7008 50.0199 32.4659 49.0653 32.4659C48.0578 32.4659 47.2585 32.6856 46.6676 33.125C46.0843 33.5644 45.6903 34.0833 45.4858 34.6818L41.6449 34.1364C41.9479 33.0758 42.4479 32.1894 43.1449 31.4773C43.8419 30.7576 44.6941 30.2197 45.7017 29.8636C46.7093 29.5 47.8229 29.3182 49.0426 29.3182C49.8835 29.3182 50.7206 29.4167 51.554 29.6136C52.3873 29.8106 53.1487 30.1364 53.8381 30.5909C54.5275 31.0379 55.0805 31.6477 55.4972 32.4205C55.9214 33.1932 56.1335 34.1591 56.1335 35.3182V47H52.179V44.6023H52.0426C51.7926 45.0871 51.4403 45.5417 50.9858 45.9659C50.5388 46.3826 49.9744 46.7197 49.2926 46.9773C48.6184 47.2273 47.8267 47.3523 46.9176 47.3523ZM47.9858 44.3295C48.8116 44.3295 49.5275 44.1667 50.1335 43.8409C50.7396 43.5076 51.2055 43.0682 51.5312 42.5227C51.8646 41.9773 52.0312 41.3826 52.0312 40.7386V38.6818C51.9025 38.7879 51.6828 38.8864 51.3722 38.9773C51.0691 39.0682 50.7282 39.1477 50.3494 39.2159C49.9706 39.2841 49.5956 39.3447 49.2244 39.3977C48.8532 39.4508 48.5313 39.4962 48.2585 39.5341C47.6449 39.6174 47.0956 39.7538 46.6108 39.9432C46.1259 40.1326 45.7434 40.3977 45.4631 40.7386C45.1828 41.072 45.0426 41.5038 45.0426 42.0341C45.0426 42.7917 45.3191 43.3636 45.8722 43.75C46.4252 44.1364 47.1297 44.3295 47.9858 44.3295ZM47.6449 27.25L50.1903 22.0568H54.2131L50.7244 27.25H47.6449ZM64.3835 23.7273V47H60.2699V23.7273H64.3835ZM76.2273 47.3409C74.4848 47.3409 72.9886 46.9583 71.7386 46.1932C70.4962 45.428 69.5379 44.3712 68.8636 43.0227C68.197 41.6667 67.8636 40.1061 67.8636 38.3409C67.8636 36.5682 68.2045 35.0038 68.8864 33.6477C69.5682 32.2841 70.5303 31.2235 71.7727 30.4659C73.0227 29.7008 74.5 29.3182 76.2045 29.3182C77.6212 29.3182 78.875 29.5795 79.9659 30.1023C81.0644 30.6174 81.9394 31.3485 82.5909 32.2955C83.2424 33.2348 83.6136 34.3333 83.7045 35.5909H79.7727C79.6136 34.75 79.2348 34.0492 78.6364 33.4886C78.0455 32.9205 77.2538 32.6364 76.2614 32.6364C75.4205 32.6364 74.6818 32.8636 74.0455 33.3182C73.4091 33.7652 72.9129 34.4091 72.5568 35.25C72.2083 36.0909 72.0341 37.0985 72.0341 38.2727C72.0341 39.4621 72.2083 40.4848 72.5568 41.3409C72.9053 42.1894 73.3939 42.8447 74.0227 43.3068C74.6591 43.7614 75.4053 43.9886 76.2614 43.9886C76.8674 43.9886 77.4091 43.875 77.8864 43.6477C78.3712 43.4129 78.7765 43.0758 79.1023 42.6364C79.428 42.197 79.6515 41.6629 79.7727 41.0341H83.7045C83.6061 42.2689 83.2424 43.3636 82.6136 44.3182C81.9848 45.2652 81.1288 46.0076 80.0455 46.5455C78.9621 47.0758 77.6894 47.3409 76.2273 47.3409ZM98.2074 39.6591V29.5455H102.321V47H98.3324V43.8977H98.1506C97.7566 44.875 97.1089 45.6742 96.2074 46.2955C95.3134 46.9167 94.2112 47.2273 92.9006 47.2273C91.7566 47.2273 90.7453 46.9735 89.8665 46.4659C88.9953 45.9508 88.3134 45.2045 87.821 44.2273C87.3286 43.2424 87.0824 42.053 87.0824 40.6591V29.5455H91.196V40.0227C91.196 41.1288 91.4991 42.0076 92.1051 42.6591C92.7112 43.3106 93.5066 43.6364 94.4915 43.6364C95.0975 43.6364 95.6847 43.4886 96.2528 43.1932C96.821 42.8977 97.2869 42.4583 97.6506 41.875C98.0218 41.2841 98.2074 40.5455 98.2074 39.6591ZM110.665 23.7273V47H106.551V23.7273H110.665ZM122.509 47.3409C120.804 47.3409 119.327 46.9659 118.077 46.2159C116.827 45.4659 115.857 44.4167 115.168 43.0682C114.486 41.7197 114.145 40.1439 114.145 38.3409C114.145 36.5379 114.486 34.9583 115.168 33.6023C115.857 32.2462 116.827 31.1932 118.077 30.4432C119.327 29.6932 120.804 29.3182 122.509 29.3182C124.213 29.3182 125.69 29.6932 126.94 30.4432C128.19 31.1932 129.156 32.2462 129.838 33.6023C130.527 34.9583 130.872 36.5379 130.872 38.3409C130.872 40.1439 130.527 41.7197 129.838 43.0682C129.156 44.4167 128.19 45.4659 126.94 46.2159C125.69 46.9659 124.213 47.3409 122.509 47.3409ZM122.531 44.0455C123.455 44.0455 124.228 43.7917 124.849 43.2841C125.471 42.7689 125.933 42.0795 126.236 41.2159C126.546 40.3523 126.702 39.3902 126.702 38.3295C126.702 37.2614 126.546 36.2955 126.236 35.4318C125.933 34.5606 125.471 33.8674 124.849 33.3523C124.228 32.8371 123.455 32.5795 122.531 32.5795C121.584 32.5795 120.796 32.8371 120.168 33.3523C119.546 33.8674 119.08 34.5606 118.77 35.4318C118.467 36.2955 118.315 37.2614 118.315 38.3295C118.315 39.3902 118.467 40.3523 118.77 41.2159C119.08 42.0795 119.546 42.7689 120.168 43.2841C120.796 43.7917 121.584 44.0455 122.531 44.0455ZM146.699 23.7273V47H142.483V23.7273H146.699Z" fill="#2947A3"/>
<path fill-rule="evenodd" clip-rule="evenodd" d="M21.8334 113.667C19.5322 113.667 17.6667 115.532 17.6667 117.833V126.167C17.6667 128.468 19.5322 130.333 21.8334 130.333H30.1667C32.4679 130.333 34.3334 128.468 34.3334 126.167V117.833C34.3334 115.532 32.4679 113.667 30.1667 113.667H21.8334ZM27.1209 118.222C26.6623 117.293 25.3375 117.293 24.879 118.222L24.222 119.553L22.7529 119.766C21.7276 119.915 21.3182 121.175 22.0601 121.899L23.1232 122.935L22.8722 124.398C22.6971 125.419 23.7689 126.198 24.6859 125.716L25.9999 125.025L27.314 125.716C28.231 126.198 29.3028 125.419 29.1277 124.398L28.8767 122.935L29.9398 121.899C30.6817 121.175 30.2723 119.915 29.247 119.766L27.7779 119.553L27.1209 118.222Z" fill="#2947A3"/>
<path d="M43.6044 118.727V126H42.2869V120.009H42.2443L40.5433 121.096V119.888L42.3509 118.727H43.6044ZM48.4091 118.727V126H47.0916V120.009H47.049L45.348 121.096V119.888L47.1555 118.727H48.4091ZM52.8409 126.099C52.313 126.099 51.8442 126.011 51.4347 125.833C51.0275 125.656 50.7079 125.413 50.4759 125.105C50.2462 124.795 50.1326 124.443 50.1349 124.05C50.1326 123.745 50.1989 123.464 50.3338 123.209C50.4688 122.953 50.651 122.74 50.8807 122.57C51.1127 122.397 51.3707 122.287 51.6548 122.239V122.19C51.2808 122.107 50.9777 121.916 50.7457 121.618C50.5161 121.317 50.4025 120.97 50.4048 120.577C50.4025 120.203 50.5066 119.87 50.7173 119.576C50.928 119.282 51.2169 119.052 51.5838 118.884C51.9508 118.713 52.3698 118.628 52.8409 118.628C53.3073 118.628 53.7228 118.713 54.0874 118.884C54.4543 119.052 54.7431 119.282 54.9538 119.576C55.1669 119.87 55.2734 120.203 55.2734 120.577C55.2734 120.97 55.1562 121.317 54.9219 121.618C54.6899 121.916 54.3904 122.107 54.0234 122.19V122.239C54.3075 122.287 54.5632 122.397 54.7905 122.57C55.0201 122.74 55.2024 122.953 55.3374 123.209C55.4747 123.464 55.5433 123.745 55.5433 124.05C55.5433 124.443 55.4273 124.795 55.1953 125.105C54.9633 125.413 54.6437 125.656 54.2365 125.833C53.8317 126.011 53.3665 126.099 52.8409 126.099ZM52.8409 125.084C53.1132 125.084 53.3499 125.038 53.5511 124.945C53.7524 124.851 53.9086 124.718 54.0199 124.548C54.1312 124.377 54.188 124.181 54.1903 123.958C54.188 123.726 54.1276 123.521 54.0092 123.344C53.8932 123.164 53.7334 123.023 53.5298 122.921C53.3286 122.819 53.099 122.768 52.8409 122.768C52.5805 122.768 52.3485 122.819 52.1449 122.921C51.9413 123.023 51.7803 123.164 51.6619 123.344C51.5459 123.521 51.4891 123.726 51.4915 123.958C51.4891 124.181 51.5436 124.377 51.6548 124.548C51.7661 124.716 51.9223 124.847 52.1236 124.942C52.3272 125.036 52.5663 125.084 52.8409 125.084ZM52.8409 121.771C53.0634 121.771 53.2599 121.726 53.4304 121.636C53.6032 121.546 53.7393 121.42 53.8388 121.259C53.9382 121.098 53.9891 120.912 53.9915 120.702C53.9891 120.493 53.9394 120.311 53.8423 120.155C53.7453 119.996 53.6103 119.874 53.4375 119.789C53.2647 119.701 53.0658 119.658 52.8409 119.658C52.6113 119.658 52.4089 119.701 52.2337 119.789C52.0608 119.874 51.9259 119.996 51.8288 120.155C51.7341 120.311 51.688 120.493 51.6903 120.702C51.688 120.912 51.7353 121.098 51.8324 121.259C51.9318 121.418 52.0679 121.543 52.2408 121.636C52.416 121.726 52.616 121.771 52.8409 121.771Z" fill="black" fill-opacity="0.45"/>
<rect x="266" y="100" width="44" height="44" rx="15" fill="#2947A3"/>
<path fill-rule="evenodd" clip-rule="evenodd" d="M289.293 114.293C289.683 113.902 290.317 113.902 290.707 114.293L297.707 121.293C298.098 121.683 298.098 122.317 297.707 122.707L290.707 129.707C290.317 130.098 289.683 130.098 289.293 129.707C288.902 129.317 288.902 128.683 289.293 128.293L294.586 123H279C278.448 123 278 122.552 278 122C278 121.448 278.448 121 279 121H294.586L289.293 115.707C288.902 115.317 288.902 114.683 289.293 114.293Z" fill="#ADBDEB"/>
</svg>
