<svg width="326" height="160" viewBox="0 0 326 160" fill="none" xmlns="http://www.w3.org/2000/svg">
<rect width="326" height="160" rx="32" fill="#8AD1BF"/>
<path d="M18.2955 47V23.7273H22.5114V33.5795H33.2955V23.7273H37.5227V47H33.2955V37.1136H22.5114V47H18.2955ZM41.9261 47V29.5455H46.0398V47H41.9261ZM43.9943 27.0682C43.3428 27.0682 42.7822 26.8523 42.3125 26.4205C41.8428 25.9811 41.608 25.4545 41.608 24.8409C41.608 24.2197 41.8428 23.6932 42.3125 23.2614C42.7822 22.822 43.3428 22.6023 43.9943 22.6023C44.6534 22.6023 45.214 22.822 45.6761 23.2614C46.1458 23.6932 46.3807 24.2197 46.3807 24.8409C46.3807 25.4545 46.1458 25.9811 45.6761 26.4205C45.214 26.8523 44.6534 27.0682 43.9943 27.0682ZM56.7472 47.3068C55.3759 47.3068 54.1487 46.9545 53.0653 46.25C51.982 45.5455 51.1259 44.5227 50.4972 43.1818C49.8684 41.8409 49.554 40.2121 49.554 38.2955C49.554 36.3561 49.8722 34.7197 50.5085 33.3864C51.1525 32.0455 52.0199 31.0341 53.1108 30.3523C54.2017 29.6629 55.4176 29.3182 56.7585 29.3182C57.7813 29.3182 58.6222 29.4924 59.2812 29.8409C59.9403 30.1818 60.4631 30.5947 60.8494 31.0795C61.2358 31.5568 61.535 32.0076 61.7472 32.4318H61.9176V23.7273H66.0426V47H61.9972V44.25H61.7472C61.535 44.6742 61.2282 45.125 60.8267 45.6023C60.4252 46.072 59.8949 46.4735 59.2358 46.8068C58.5767 47.1402 57.7472 47.3068 56.7472 47.3068ZM57.8949 43.9318C58.7661 43.9318 59.5085 43.697 60.1222 43.2273C60.7358 42.75 61.2017 42.0871 61.5199 41.2386C61.8381 40.3902 61.9972 39.4015 61.9972 38.2727C61.9972 37.1439 61.8381 36.1629 61.5199 35.3295C61.2093 34.4962 60.7472 33.8485 60.1335 33.3864C59.5275 32.9242 58.7813 32.6932 57.8949 32.6932C56.9782 32.6932 56.2131 32.9318 55.5994 33.4091C54.9858 33.8864 54.5237 34.5455 54.2131 35.3864C53.9025 36.2273 53.7472 37.1894 53.7472 38.2727C53.7472 39.3636 53.9025 40.3371 54.2131 41.1932C54.5313 42.0417 54.9972 42.7121 55.6108 43.2045C56.232 43.6894 56.9934 43.9318 57.8949 43.9318ZM70.4261 47V29.5455H74.4148V32.4545H74.5966C74.9148 31.447 75.4602 30.6705 76.233 30.125C77.0133 29.572 77.9034 29.2955 78.9034 29.2955C79.1307 29.2955 79.3845 29.3068 79.6648 29.3295C79.9527 29.3447 80.1913 29.3712 80.3807 29.4091V33.1932C80.2064 33.1326 79.9299 33.0795 79.5511 33.0341C79.1799 32.9811 78.8201 32.9545 78.4716 32.9545C77.7216 32.9545 77.0473 33.1174 76.4489 33.4432C75.858 33.7614 75.392 34.2045 75.0511 34.7727C74.7102 35.3409 74.5398 35.9962 74.5398 36.7386V47H70.4261ZM90.0085 47.3409C88.304 47.3409 86.8267 46.9659 85.5767 46.2159C84.3267 45.4659 83.357 44.4167 82.6676 43.0682C81.9858 41.7197 81.6449 40.1439 81.6449 38.3409C81.6449 36.5379 81.9858 34.9583 82.6676 33.6023C83.357 32.2462 84.3267 31.1932 85.5767 30.4432C86.8267 29.6932 88.304 29.3182 90.0085 29.3182C91.7131 29.3182 93.1903 29.6932 94.4403 30.4432C95.6903 31.1932 96.6563 32.2462 97.3381 33.6023C98.0275 34.9583 98.3722 36.5379 98.3722 38.3409C98.3722 40.1439 98.0275 41.7197 97.3381 43.0682C96.6563 44.4167 95.6903 45.4659 94.4403 46.2159C93.1903 46.9659 91.7131 47.3409 90.0085 47.3409ZM90.0312 44.0455C90.9555 44.0455 91.7282 43.7917 92.3494 43.2841C92.9706 42.7689 93.4328 42.0795 93.7358 41.2159C94.0464 40.3523 94.2017 39.3902 94.2017 38.3295C94.2017 37.2614 94.0464 36.2955 93.7358 35.4318C93.4328 34.5606 92.9706 33.8674 92.3494 33.3523C91.7282 32.8371 90.9555 32.5795 90.0312 32.5795C89.0843 32.5795 88.2964 32.8371 87.6676 33.3523C87.0464 33.8674 86.5805 34.5606 86.2699 35.4318C85.9669 36.2955 85.8153 37.2614 85.8153 38.3295C85.8153 39.3902 85.9669 40.3523 86.2699 41.2159C86.5805 42.0795 87.0464 42.7689 87.6676 43.2841C88.2964 43.7917 89.0843 44.0455 90.0312 44.0455ZM109.477 47.3409C107.735 47.3409 106.239 46.9583 104.989 46.1932C103.746 45.428 102.788 44.3712 102.114 43.0227C101.447 41.6667 101.114 40.1061 101.114 38.3409C101.114 36.5682 101.455 35.0038 102.136 33.6477C102.818 32.2841 103.78 31.2235 105.023 30.4659C106.273 29.7008 107.75 29.3182 109.455 29.3182C110.871 29.3182 112.125 29.5795 113.216 30.1023C114.314 30.6174 115.189 31.3485 115.841 32.2955C116.492 33.2348 116.864 34.3333 116.955 35.5909H113.023C112.864 34.75 112.485 34.0492 111.886 33.4886C111.295 32.9205 110.504 32.6364 109.511 32.6364C108.67 32.6364 107.932 32.8636 107.295 33.3182C106.659 33.7652 106.163 34.4091 105.807 35.25C105.458 36.0909 105.284 37.0985 105.284 38.2727C105.284 39.4621 105.458 40.4848 105.807 41.3409C106.155 42.1894 106.644 42.8447 107.273 43.3068C107.909 43.7614 108.655 43.9886 109.511 43.9886C110.117 43.9886 110.659 43.875 111.136 43.6477C111.621 43.4129 112.027 43.0758 112.352 42.6364C112.678 42.197 112.902 41.6629 113.023 41.0341H116.955C116.856 42.2689 116.492 43.3636 115.864 44.3182C115.235 45.2652 114.379 46.0076 113.295 46.5455C112.212 47.0758 110.939 47.3409 109.477 47.3409ZM125.355 47.3523C124.249 47.3523 123.253 47.1553 122.366 46.7614C121.488 46.3598 120.791 45.7689 120.276 44.9886C119.768 44.2083 119.514 43.2462 119.514 42.1023C119.514 41.1174 119.696 40.303 120.06 39.6591C120.423 39.0152 120.92 38.5 121.548 38.1136C122.177 37.7273 122.885 37.4356 123.673 37.2386C124.469 37.0341 125.291 36.8864 126.139 36.7955C127.162 36.6894 127.991 36.5947 128.628 36.5114C129.264 36.4205 129.726 36.2841 130.014 36.1023C130.31 35.9129 130.457 35.6212 130.457 35.2273V35.1591C130.457 34.303 130.204 33.6402 129.696 33.1705C129.188 32.7008 128.457 32.4659 127.503 32.4659C126.495 32.4659 125.696 32.6856 125.105 33.125C124.522 33.5644 124.128 34.0833 123.923 34.6818L120.082 34.1364C120.385 33.0758 120.885 32.1894 121.582 31.4773C122.279 30.7576 123.132 30.2197 124.139 29.8636C125.147 29.5 126.26 29.3182 127.48 29.3182C128.321 29.3182 129.158 29.4167 129.991 29.6136C130.825 29.8106 131.586 30.1364 132.276 30.5909C132.965 31.0379 133.518 31.6477 133.935 32.4205C134.359 33.1932 134.571 34.1591 134.571 35.3182V47H130.616V44.6023H130.48C130.23 45.0871 129.878 45.5417 129.423 45.9659C128.976 46.3826 128.412 46.7197 127.73 46.9773C127.056 47.2273 126.264 47.3523 125.355 47.3523ZM126.423 44.3295C127.249 44.3295 127.965 44.1667 128.571 43.8409C129.177 43.5076 129.643 43.0682 129.969 42.5227C130.302 41.9773 130.469 41.3826 130.469 40.7386V38.6818C130.34 38.7879 130.12 38.8864 129.81 38.9773C129.507 39.0682 129.166 39.1477 128.787 39.2159C128.408 39.2841 128.033 39.3447 127.662 39.3977C127.291 39.4508 126.969 39.4962 126.696 39.5341C126.082 39.6174 125.533 39.7538 125.048 39.9432C124.563 40.1326 124.181 40.3977 123.901 40.7386C123.62 41.072 123.48 41.5038 123.48 42.0341C123.48 42.7917 123.757 43.3636 124.31 43.75C124.863 44.1364 125.567 44.3295 126.423 44.3295ZM138.707 47V29.5455H142.696V32.4545H142.878C143.196 31.447 143.741 30.6705 144.514 30.125C145.295 29.572 146.185 29.2955 147.185 29.2955C147.412 29.2955 147.666 29.3068 147.946 29.3295C148.234 29.3447 148.473 29.3712 148.662 29.4091V33.1932C148.488 33.1326 148.211 33.0795 147.832 33.0341C147.461 32.9811 147.101 32.9545 146.753 32.9545C146.003 32.9545 145.329 33.1174 144.73 33.4432C144.139 33.7614 143.673 34.2045 143.332 34.7727C142.991 35.3409 142.821 35.9962 142.821 36.7386V47H138.707ZM151.577 47V23.7273H155.69V32.4318H155.861C156.073 32.0076 156.372 31.5568 156.759 31.0795C157.145 30.5947 157.668 30.1818 158.327 29.8409C158.986 29.4924 159.827 29.3182 160.849 29.3182C162.198 29.3182 163.414 29.6629 164.497 30.3523C165.588 31.0341 166.452 32.0455 167.088 33.3864C167.732 34.7197 168.054 36.3561 168.054 38.2955C168.054 40.2121 167.74 41.8409 167.111 43.1818C166.482 44.5227 165.626 45.5455 164.543 46.25C163.459 46.9545 162.232 47.3068 160.861 47.3068C159.861 47.3068 159.031 47.1402 158.372 46.8068C157.713 46.4735 157.183 46.072 156.781 45.6023C156.387 45.125 156.08 44.6742 155.861 44.25H155.622V47H151.577ZM155.611 38.2727C155.611 39.4015 155.77 40.3902 156.088 41.2386C156.414 42.0871 156.88 42.75 157.486 43.2273C158.099 43.697 158.842 43.9318 159.713 43.9318C160.622 43.9318 161.384 43.6894 161.997 43.2045C162.611 42.7121 163.073 42.0417 163.384 41.1932C163.702 40.3371 163.861 39.3636 163.861 38.2727C163.861 37.1894 163.705 36.2273 163.395 35.3864C163.084 34.5455 162.622 33.8864 162.009 33.4091C161.395 32.9318 160.63 32.6932 159.713 32.6932C158.834 32.6932 158.088 32.9242 157.474 33.3864C156.861 33.8485 156.395 34.4962 156.077 35.3295C155.766 36.1629 155.611 37.1439 155.611 38.2727ZM179.165 47.3409C177.46 47.3409 175.983 46.9659 174.733 46.2159C173.483 45.4659 172.513 44.4167 171.824 43.0682C171.142 41.7197 170.801 40.1439 170.801 38.3409C170.801 36.5379 171.142 34.9583 171.824 33.6023C172.513 32.2462 173.483 31.1932 174.733 30.4432C175.983 29.6932 177.46 29.3182 179.165 29.3182C180.869 29.3182 182.347 29.6932 183.597 30.4432C184.847 31.1932 185.813 32.2462 186.494 33.6023C187.184 34.9583 187.528 36.5379 187.528 38.3409C187.528 40.1439 187.184 41.7197 186.494 43.0682C185.813 44.4167 184.847 45.4659 183.597 46.2159C182.347 46.9659 180.869 47.3409 179.165 47.3409ZM179.188 44.0455C180.112 44.0455 180.884 43.7917 181.506 43.2841C182.127 42.7689 182.589 42.0795 182.892 41.2159C183.203 40.3523 183.358 39.3902 183.358 38.3295C183.358 37.2614 183.203 36.2955 182.892 35.4318C182.589 34.5606 182.127 33.8674 181.506 33.3523C180.884 32.8371 180.112 32.5795 179.188 32.5795C178.241 32.5795 177.453 32.8371 176.824 33.3523C176.203 33.8674 175.737 34.5606 175.426 35.4318C175.123 36.2955 174.972 37.2614 174.972 38.3295C174.972 39.3902 175.123 40.3523 175.426 41.2159C175.737 42.0795 176.203 42.7689 176.824 43.2841C177.453 43.7917 178.241 44.0455 179.188 44.0455ZM195.134 36.7727V47H191.02V29.5455H194.952V32.5114H195.156C195.558 31.5341 196.198 30.7576 197.077 30.1818C197.963 29.6061 199.058 29.3182 200.361 29.3182C201.565 29.3182 202.615 29.5758 203.509 30.0909C204.41 30.6061 205.107 31.3523 205.599 32.3295C206.099 33.3068 206.346 34.4924 206.338 35.8864V47H202.224V36.5227C202.224 35.3561 201.921 34.4432 201.315 33.7841C200.717 33.125 199.887 32.7955 198.827 32.7955C198.107 32.7955 197.467 32.9545 196.906 33.2727C196.353 33.5833 195.918 34.0341 195.599 34.625C195.289 35.2159 195.134 35.9318 195.134 36.7727ZM218.247 47.3409C216.497 47.3409 214.986 46.9773 213.713 46.25C212.448 45.5152 211.474 44.4773 210.793 43.1364C210.111 41.7879 209.77 40.2008 209.77 38.375C209.77 36.5795 210.111 35.0038 210.793 33.6477C211.482 32.2841 212.444 31.2235 213.679 30.4659C214.914 29.7008 216.365 29.3182 218.031 29.3182C219.107 29.3182 220.122 29.4924 221.077 29.8409C222.039 30.1818 222.887 30.7121 223.622 31.4318C224.365 32.1515 224.948 33.0682 225.372 34.1818C225.796 35.2879 226.009 36.6061 226.009 38.1364V39.3977H211.702V36.625H222.065C222.058 35.8371 221.887 35.1364 221.554 34.5227C221.221 33.9015 220.755 33.4129 220.156 33.0568C219.565 32.7008 218.876 32.5227 218.088 32.5227C217.247 32.5227 216.509 32.7273 215.872 33.1364C215.236 33.5379 214.74 34.0682 214.384 34.7273C214.035 35.3788 213.857 36.0947 213.849 36.875V39.2955C213.849 40.3106 214.035 41.1818 214.406 41.9091C214.777 42.6288 215.296 43.1818 215.963 43.5682C216.63 43.947 217.41 44.1364 218.304 44.1364C218.902 44.1364 219.444 44.053 219.929 43.8864C220.414 43.7121 220.834 43.4583 221.19 43.125C221.546 42.7917 221.815 42.3788 221.997 41.8864L225.838 42.3182C225.596 43.3333 225.134 44.2197 224.452 44.9773C223.777 45.7273 222.914 46.3106 221.861 46.7273C220.808 47.1364 219.603 47.3409 218.247 47.3409ZM238.205 29.5455V32.7273H228.17V29.5455H238.205ZM230.648 25.3636H234.761V41.75C234.761 42.303 234.845 42.7273 235.011 43.0227C235.186 43.3106 235.413 43.5076 235.693 43.6136C235.973 43.7197 236.284 43.7727 236.625 43.7727C236.883 43.7727 237.117 43.7538 237.33 43.7159C237.549 43.678 237.716 43.6439 237.83 43.6136L238.523 46.8295C238.303 46.9053 237.989 46.9886 237.58 47.0795C237.178 47.1705 236.686 47.2235 236.102 47.2386C235.072 47.2689 234.144 47.1136 233.318 46.7727C232.492 46.4242 231.837 45.8864 231.352 45.1591C230.875 44.4318 230.64 43.5227 230.648 42.4318V25.3636ZM249.071 47.3409C247.366 47.3409 245.889 46.9659 244.639 46.2159C243.389 45.4659 242.42 44.4167 241.73 43.0682C241.048 41.7197 240.707 40.1439 240.707 38.3409C240.707 36.5379 241.048 34.9583 241.73 33.6023C242.42 32.2462 243.389 31.1932 244.639 30.4432C245.889 29.6932 247.366 29.3182 249.071 29.3182C250.776 29.3182 252.253 29.6932 253.503 30.4432C254.753 31.1932 255.719 32.2462 256.401 33.6023C257.09 34.9583 257.435 36.5379 257.435 38.3409C257.435 40.1439 257.09 41.7197 256.401 43.0682C255.719 44.4167 254.753 45.4659 253.503 46.2159C252.253 46.9659 250.776 47.3409 249.071 47.3409ZM249.094 44.0455C250.018 44.0455 250.791 43.7917 251.412 43.2841C252.033 42.7689 252.495 42.0795 252.798 41.2159C253.109 40.3523 253.264 39.3902 253.264 38.3295C253.264 37.2614 253.109 36.2955 252.798 35.4318C252.495 34.5606 252.033 33.8674 251.412 33.3523C250.791 32.8371 250.018 32.5795 249.094 32.5795C248.147 32.5795 247.359 32.8371 246.73 33.3523C246.109 33.8674 245.643 34.5606 245.332 35.4318C245.029 36.2955 244.878 37.2614 244.878 38.3295C244.878 39.3902 245.029 40.3523 245.332 41.2159C245.643 42.0795 246.109 42.7689 246.73 43.2841C247.359 43.7917 248.147 44.0455 249.094 44.0455ZM274.722 34.1591L270.972 34.5682C270.866 34.1894 270.68 33.8333 270.415 33.5C270.157 33.1667 269.809 32.8977 269.369 32.6932C268.93 32.4886 268.392 32.3864 267.756 32.3864C266.9 32.3864 266.18 32.572 265.597 32.9432C265.021 33.3144 264.737 33.7955 264.744 34.3864C264.737 34.8939 264.922 35.3068 265.301 35.625C265.688 35.9432 266.324 36.2045 267.21 36.4091L270.188 37.0455C271.839 37.4015 273.066 37.9659 273.869 38.7386C274.68 39.5114 275.089 40.5227 275.097 41.7727C275.089 42.8712 274.767 43.8409 274.131 44.6818C273.502 45.5152 272.627 46.1667 271.506 46.6364C270.384 47.1061 269.097 47.3409 267.642 47.3409C265.506 47.3409 263.786 46.8939 262.483 46C261.18 45.0985 260.403 43.8447 260.153 42.2386L264.165 41.8523C264.347 42.6402 264.733 43.2348 265.324 43.6364C265.915 44.0379 266.684 44.2386 267.631 44.2386C268.608 44.2386 269.392 44.0379 269.983 43.6364C270.581 43.2348 270.881 42.7386 270.881 42.1477C270.881 41.6477 270.688 41.2348 270.301 40.9091C269.922 40.5833 269.331 40.3333 268.528 40.1591L265.551 39.5341C263.877 39.1856 262.638 38.5985 261.835 37.7727C261.032 36.9394 260.634 35.8864 260.642 34.6136C260.634 33.5379 260.926 32.6061 261.517 31.8182C262.116 31.0227 262.945 30.4091 264.006 29.9773C265.074 29.5379 266.305 29.3182 267.699 29.3182C269.744 29.3182 271.354 29.7538 272.528 30.625C273.71 31.4962 274.441 32.6742 274.722 34.1591Z" fill="#1A4238"/>
<path fill-rule="evenodd" clip-rule="evenodd" d="M21.8333 113.667C19.5321 113.667 17.6666 115.532 17.6666 117.833V126.167C17.6666 128.468 19.5321 130.333 21.8333 130.333H30.1666C32.4678 130.333 34.3333 128.468 34.3333 126.167V117.833C34.3333 115.532 32.4678 113.667 30.1666 113.667H21.8333ZM27.1207 118.222C26.6622 117.293 25.3374 117.293 24.8789 118.222L24.2219 119.553L22.7527 119.766C21.7275 119.915 21.3181 121.175 22.06 121.899L23.123 122.935L22.8721 124.398C22.6969 125.419 23.7687 126.198 24.6858 125.716L25.9998 125.025L27.3139 125.716C28.2309 126.198 29.3027 125.419 29.1275 124.398L28.8766 122.935L29.9397 121.899C30.6816 121.175 30.2722 119.915 29.2469 119.766L27.7778 119.553L27.1207 118.222Z" fill="#1A4238"/>
<path d="M43.1747 126.099C42.7012 126.099 42.2775 126.011 41.9034 125.833C41.5294 125.653 41.2322 125.407 41.0121 125.094C40.7943 124.782 40.6783 124.424 40.6641 124.022H41.9425C41.9661 124.32 42.0952 124.564 42.3295 124.754C42.5639 124.941 42.8456 125.034 43.1747 125.034C43.4328 125.034 43.6624 124.975 43.8636 124.857C44.0649 124.738 44.2235 124.574 44.3395 124.363C44.4555 124.152 44.5123 123.912 44.5099 123.642C44.5123 123.367 44.4543 123.124 44.3359 122.911C44.2176 122.697 44.0554 122.531 43.8494 122.41C43.6435 122.287 43.4067 122.225 43.1392 122.225C42.9214 122.223 42.7071 122.263 42.4964 122.346C42.2857 122.429 42.1188 122.538 41.9957 122.673L40.8061 122.477L41.1861 118.727H45.4048V119.828H42.2763L42.0668 121.756H42.1094C42.2443 121.598 42.4349 121.466 42.6811 121.362C42.9273 121.256 43.1972 121.202 43.4908 121.202C43.9311 121.202 44.3241 121.307 44.6697 121.515C45.0154 121.721 45.2876 122.005 45.4865 122.367C45.6854 122.729 45.7848 123.144 45.7848 123.61C45.7848 124.091 45.6735 124.519 45.451 124.896C45.2308 125.27 44.9242 125.564 44.5312 125.78C44.1406 125.993 43.6884 126.099 43.1747 126.099ZM49.9325 118.727V126H48.6151V120.009H48.5724L46.8714 121.096V119.888L48.679 118.727H49.9325Z" fill="black" fill-opacity="0.45"/>
<rect x="266" y="100" width="44" height="44" rx="15" fill="#1A4238"/>
<path fill-rule="evenodd" clip-rule="evenodd" d="M289.293 114.293C289.683 113.902 290.317 113.902 290.707 114.293L297.707 121.293C298.098 121.683 298.098 122.317 297.707 122.707L290.707 129.707C290.317 130.098 289.683 130.098 289.293 129.707C288.902 129.317 288.902 128.683 289.293 128.293L294.586 123H279C278.448 123 278 122.552 278 122C278 121.448 278.448 121 279 121H294.586L289.293 115.707C288.902 115.317 288.902 114.683 289.293 114.293Z" fill="#8AD1BF"/>
</svg>
