<svg width="326" height="160" viewBox="0 0 326 160" fill="none" xmlns="http://www.w3.org/2000/svg">
<rect width="326" height="160" rx="32" fill="#ADBDEB"/>
<path d="M18.2955 47V23.7273H33.4318V27.2614H22.5114V33.5795H32.6477V37.1136H22.5114V43.4659H33.5227V47H18.2955ZM45.1648 47.3409C43.4223 47.3409 41.9261 46.9583 40.6761 46.1932C39.4337 45.428 38.4754 44.3712 37.8011 43.0227C37.1345 41.6667 36.8011 40.1061 36.8011 38.3409C36.8011 36.5682 37.142 35.0038 37.8239 33.6477C38.5057 32.2841 39.4678 31.2235 40.7102 30.4659C41.9602 29.7008 43.4375 29.3182 45.142 29.3182C46.5587 29.3182 47.8125 29.5795 48.9034 30.1023C50.0019 30.6174 50.8769 31.3485 51.5284 32.2955C52.1799 33.2348 52.5511 34.3333 52.642 35.5909H48.7102C48.5511 34.75 48.1723 34.0492 47.5739 33.4886C46.983 32.9205 46.1913 32.6364 45.1989 32.6364C44.358 32.6364 43.6193 32.8636 42.983 33.3182C42.3466 33.7652 41.8504 34.4091 41.4943 35.25C41.1458 36.0909 40.9716 37.0985 40.9716 38.2727C40.9716 39.4621 41.1458 40.4848 41.4943 41.3409C41.8428 42.1894 42.3314 42.8447 42.9602 43.3068C43.5966 43.7614 44.3428 43.9886 45.1989 43.9886C45.8049 43.9886 46.3466 43.875 46.8239 43.6477C47.3087 43.4129 47.714 43.0758 48.0398 42.6364C48.3655 42.197 48.589 41.6629 48.7102 41.0341H52.642C52.5436 42.2689 52.1799 43.3636 51.5511 44.3182C50.9223 45.2652 50.0663 46.0076 48.983 46.5455C47.8996 47.0758 46.6269 47.3409 45.1648 47.3409ZM63.6335 47.3409C61.929 47.3409 60.4517 46.9659 59.2017 46.2159C57.9517 45.4659 56.982 44.4167 56.2926 43.0682C55.6108 41.7197 55.2699 40.1439 55.2699 38.3409C55.2699 36.5379 55.6108 34.9583 56.2926 33.6023C56.982 32.2462 57.9517 31.1932 59.2017 30.4432C60.4517 29.6932 61.929 29.3182 63.6335 29.3182C65.3381 29.3182 66.8153 29.6932 68.0653 30.4432C69.3153 31.1932 70.2813 32.2462 70.9631 33.6023C71.6525 34.9583 71.9972 36.5379 71.9972 38.3409C71.9972 40.1439 71.6525 41.7197 70.9631 43.0682C70.2813 44.4167 69.3153 45.4659 68.0653 46.2159C66.8153 46.9659 65.3381 47.3409 63.6335 47.3409ZM63.6562 44.0455C64.5805 44.0455 65.3532 43.7917 65.9744 43.2841C66.5956 42.7689 67.0578 42.0795 67.3608 41.2159C67.6714 40.3523 67.8267 39.3902 67.8267 38.3295C67.8267 37.2614 67.6714 36.2955 67.3608 35.4318C67.0578 34.5606 66.5956 33.8674 65.9744 33.3523C65.3532 32.8371 64.5805 32.5795 63.6562 32.5795C62.7093 32.5795 61.9214 32.8371 61.2926 33.3523C60.6714 33.8674 60.2055 34.5606 59.8949 35.4318C59.5919 36.2955 59.4403 37.2614 59.4403 38.3295C59.4403 39.3902 59.5919 40.3523 59.8949 41.2159C60.2055 42.0795 60.6714 42.7689 61.2926 43.2841C61.9214 43.7917 62.7093 44.0455 63.6562 44.0455ZM79.6023 36.7727V47H75.4886V29.5455H79.4205V32.5114H79.625C80.0265 31.5341 80.6667 30.7576 81.5455 30.1818C82.4318 29.6061 83.5265 29.3182 84.8295 29.3182C86.0341 29.3182 87.0833 29.5758 87.9773 30.0909C88.8788 30.6061 89.5758 31.3523 90.0682 32.3295C90.5682 33.3068 90.8144 34.4924 90.8068 35.8864V47H86.6932V36.5227C86.6932 35.3561 86.3902 34.4432 85.7841 33.7841C85.1856 33.125 84.3561 32.7955 83.2955 32.7955C82.5758 32.7955 81.9356 32.9545 81.375 33.2727C80.822 33.5833 80.3864 34.0341 80.0682 34.625C79.7576 35.2159 79.6023 35.9318 79.6023 36.7727ZM97.5227 47.25C96.8333 47.25 96.2424 47.0076 95.75 46.5227C95.2576 46.0379 95.0152 45.447 95.0227 44.75C95.0152 44.0682 95.2576 43.4848 95.75 43C96.2424 42.5152 96.8333 42.2727 97.5227 42.2727C98.1894 42.2727 98.7689 42.5152 99.2614 43C99.7614 43.4848 100.015 44.0682 100.023 44.75C100.015 45.2121 99.8939 45.6326 99.6591 46.0114C99.4318 46.3902 99.1288 46.6932 98.75 46.9205C98.3788 47.1402 97.9697 47.25 97.5227 47.25ZM111.67 47V23.7273H120.398C122.186 23.7273 123.686 24.0606 124.898 24.7273C126.117 25.3939 127.038 26.3106 127.659 27.4773C128.288 28.6364 128.602 29.9545 128.602 31.4318C128.602 32.9242 128.288 34.25 127.659 35.4091C127.03 36.5682 126.102 37.4811 124.875 38.1477C123.648 38.8068 122.136 39.1364 120.341 39.1364H114.557V35.6705H119.773C120.818 35.6705 121.674 35.4886 122.341 35.125C123.008 34.7614 123.5 34.2614 123.818 33.625C124.144 32.9886 124.307 32.2576 124.307 31.4318C124.307 30.6061 124.144 29.8788 123.818 29.25C123.5 28.6212 123.004 28.1326 122.33 27.7841C121.663 27.428 120.803 27.25 119.75 27.25H115.886V47H111.67ZM139.446 47.3409C137.741 47.3409 136.264 46.9659 135.014 46.2159C133.764 45.4659 132.795 44.4167 132.105 43.0682C131.423 41.7197 131.082 40.1439 131.082 38.3409C131.082 36.5379 131.423 34.9583 132.105 33.6023C132.795 32.2462 133.764 31.1932 135.014 30.4432C136.264 29.6932 137.741 29.3182 139.446 29.3182C141.151 29.3182 142.628 29.6932 143.878 30.4432C145.128 31.1932 146.094 32.2462 146.776 33.6023C147.465 34.9583 147.81 36.5379 147.81 38.3409C147.81 40.1439 147.465 41.7197 146.776 43.0682C146.094 44.4167 145.128 45.4659 143.878 46.2159C142.628 46.9659 141.151 47.3409 139.446 47.3409ZM139.469 44.0455C140.393 44.0455 141.166 43.7917 141.787 43.2841C142.408 42.7689 142.87 42.0795 143.173 41.2159C143.484 40.3523 143.639 39.3902 143.639 38.3295C143.639 37.2614 143.484 36.2955 143.173 35.4318C142.87 34.5606 142.408 33.8674 141.787 33.3523C141.166 32.8371 140.393 32.5795 139.469 32.5795C138.522 32.5795 137.734 32.8371 137.105 33.3523C136.484 33.8674 136.018 34.5606 135.707 35.4318C135.404 36.2955 135.253 37.2614 135.253 38.3295C135.253 39.3902 135.404 40.3523 135.707 41.2159C136.018 42.0795 136.484 42.7689 137.105 43.2841C137.734 43.7917 138.522 44.0455 139.469 44.0455ZM155.415 23.7273V47H151.301V23.7273H155.415ZM159.645 47V29.5455H163.759V47H159.645ZM160.134 27.25L162.679 22.0568H166.702L163.213 27.25H160.134ZM176.705 29.5455V32.7273H166.67V29.5455H176.705ZM169.148 25.3636H173.261V41.75C173.261 42.303 173.345 42.7273 173.511 43.0227C173.686 43.3106 173.913 43.5076 174.193 43.6136C174.473 43.7197 174.784 43.7727 175.125 43.7727C175.383 43.7727 175.617 43.7538 175.83 43.7159C176.049 43.678 176.216 43.6439 176.33 43.6136L177.023 46.8295C176.803 46.9053 176.489 46.9886 176.08 47.0795C175.678 47.1705 175.186 47.2235 174.602 47.2386C173.572 47.2689 172.644 47.1136 171.818 46.7727C170.992 46.4242 170.337 45.8864 169.852 45.1591C169.375 44.4318 169.14 43.5227 169.148 42.4318V25.3636ZM180.145 47V29.5455H184.259V47H180.145ZM182.213 27.0682C181.562 27.0682 181.001 26.8523 180.531 26.4205C180.062 25.9811 179.827 25.4545 179.827 24.8409C179.827 24.2197 180.062 23.6932 180.531 23.2614C181.001 22.822 181.562 22.6023 182.213 22.6023C182.872 22.6023 183.433 22.822 183.895 23.2614C184.365 23.6932 184.599 24.2197 184.599 24.8409C184.599 25.4545 184.365 25.9811 183.895 26.4205C183.433 26.8523 182.872 27.0682 182.213 27.0682ZM196.102 47.3409C194.36 47.3409 192.864 46.9583 191.614 46.1932C190.371 45.428 189.413 44.3712 188.739 43.0227C188.072 41.6667 187.739 40.1061 187.739 38.3409C187.739 36.5682 188.08 35.0038 188.761 33.6477C189.443 32.2841 190.405 31.2235 191.648 30.4659C192.898 29.7008 194.375 29.3182 196.08 29.3182C197.496 29.3182 198.75 29.5795 199.841 30.1023C200.939 30.6174 201.814 31.3485 202.466 32.2955C203.117 33.2348 203.489 34.3333 203.58 35.5909H199.648C199.489 34.75 199.11 34.0492 198.511 33.4886C197.92 32.9205 197.129 32.6364 196.136 32.6364C195.295 32.6364 194.557 32.8636 193.92 33.3182C193.284 33.7652 192.788 34.4091 192.432 35.25C192.083 36.0909 191.909 37.0985 191.909 38.2727C191.909 39.4621 192.083 40.4848 192.432 41.3409C192.78 42.1894 193.269 42.8447 193.898 43.3068C194.534 43.7614 195.28 43.9886 196.136 43.9886C196.742 43.9886 197.284 43.875 197.761 43.6477C198.246 43.4129 198.652 43.0758 198.977 42.6364C199.303 42.197 199.527 41.6629 199.648 41.0341H203.58C203.481 42.2689 203.117 43.3636 202.489 44.3182C201.86 45.2652 201.004 46.0076 199.92 46.5455C198.837 47.0758 197.564 47.3409 196.102 47.3409ZM211.98 47.3523C210.874 47.3523 209.878 47.1553 208.991 46.7614C208.113 46.3598 207.416 45.7689 206.901 44.9886C206.393 44.2083 206.139 43.2462 206.139 42.1023C206.139 41.1174 206.321 40.303 206.685 39.6591C207.048 39.0152 207.545 38.5 208.173 38.1136C208.802 37.7273 209.51 37.4356 210.298 37.2386C211.094 37.0341 211.916 36.8864 212.764 36.7955C213.787 36.6894 214.616 36.5947 215.253 36.5114C215.889 36.4205 216.351 36.2841 216.639 36.1023C216.935 35.9129 217.082 35.6212 217.082 35.2273V35.1591C217.082 34.303 216.829 33.6402 216.321 33.1705C215.813 32.7008 215.082 32.4659 214.128 32.4659C213.12 32.4659 212.321 32.6856 211.73 33.125C211.147 33.5644 210.753 34.0833 210.548 34.6818L206.707 34.1364C207.01 33.0758 207.51 32.1894 208.207 31.4773C208.904 30.7576 209.757 30.2197 210.764 29.8636C211.772 29.5 212.885 29.3182 214.105 29.3182C214.946 29.3182 215.783 29.4167 216.616 29.6136C217.45 29.8106 218.211 30.1364 218.901 30.5909C219.59 31.0379 220.143 31.6477 220.56 32.4205C220.984 33.1932 221.196 34.1591 221.196 35.3182V47H217.241V44.6023H217.105C216.855 45.0871 216.503 45.5417 216.048 45.9659C215.601 46.3826 215.037 46.7197 214.355 46.9773C213.681 47.2273 212.889 47.3523 211.98 47.3523ZM213.048 44.3295C213.874 44.3295 214.59 44.1667 215.196 43.8409C215.802 43.5076 216.268 43.0682 216.594 42.5227C216.927 41.9773 217.094 41.3826 217.094 40.7386V38.6818C216.965 38.7879 216.745 38.8864 216.435 38.9773C216.132 39.0682 215.791 39.1477 215.412 39.2159C215.033 39.2841 214.658 39.3447 214.287 39.3977C213.916 39.4508 213.594 39.4962 213.321 39.5341C212.707 39.6174 212.158 39.7538 211.673 39.9432C211.188 40.1326 210.806 40.3977 210.526 40.7386C210.245 41.072 210.105 41.5038 210.105 42.0341C210.105 42.7917 210.382 43.3636 210.935 43.75C211.488 44.1364 212.192 44.3295 213.048 44.3295Z" fill="#2947A3"/>
<path fill-rule="evenodd" clip-rule="evenodd" d="M21.8334 113.667C19.5322 113.667 17.6667 115.532 17.6667 117.833V126.167C17.6667 128.468 19.5322 130.333 21.8334 130.333H30.1667C32.4679 130.333 34.3334 128.468 34.3334 126.167V117.833C34.3334 115.532 32.4679 113.667 30.1667 113.667H21.8334ZM27.1209 118.222C26.6623 117.293 25.3375 117.293 24.879 118.222L24.222 119.553L22.7529 119.766C21.7276 119.915 21.3182 121.175 22.0601 121.899L23.1232 122.935L22.8722 124.398C22.6971 125.419 23.7689 126.198 24.6859 125.716L25.9999 125.025L27.314 125.716C28.231 126.198 29.3028 125.419 29.1277 124.398L28.8767 122.935L29.9398 121.899C30.6817 121.175 30.2723 119.915 29.247 119.766L27.7779 119.553L27.1209 118.222Z" fill="#2947A3"/>
<path d="M43.6044 118.727V126H42.2869V120.009H42.2443L40.5433 121.096V119.888L42.3509 118.727H43.6044ZM48.4091 118.727V126H47.0916V120.009H47.049L45.348 121.096V119.888L47.1555 118.727H48.4091ZM52.8409 126.099C52.313 126.099 51.8442 126.011 51.4347 125.833C51.0275 125.656 50.7079 125.413 50.4759 125.105C50.2462 124.795 50.1326 124.443 50.1349 124.05C50.1326 123.745 50.1989 123.464 50.3338 123.209C50.4688 122.953 50.651 122.74 50.8807 122.57C51.1127 122.397 51.3707 122.287 51.6548 122.239V122.19C51.2808 122.107 50.9777 121.916 50.7457 121.618C50.5161 121.317 50.4025 120.97 50.4048 120.577C50.4025 120.203 50.5066 119.87 50.7173 119.576C50.928 119.282 51.2169 119.052 51.5838 118.884C51.9508 118.713 52.3698 118.628 52.8409 118.628C53.3073 118.628 53.7228 118.713 54.0874 118.884C54.4543 119.052 54.7431 119.282 54.9538 119.576C55.1669 119.87 55.2734 120.203 55.2734 120.577C55.2734 120.97 55.1562 121.317 54.9219 121.618C54.6899 121.916 54.3904 122.107 54.0234 122.19V122.239C54.3075 122.287 54.5632 122.397 54.7905 122.57C55.0201 122.74 55.2024 122.953 55.3374 123.209C55.4747 123.464 55.5433 123.745 55.5433 124.05C55.5433 124.443 55.4273 124.795 55.1953 125.105C54.9633 125.413 54.6437 125.656 54.2365 125.833C53.8317 126.011 53.3665 126.099 52.8409 126.099ZM52.8409 125.084C53.1132 125.084 53.3499 125.038 53.5511 124.945C53.7524 124.851 53.9086 124.718 54.0199 124.548C54.1312 124.377 54.188 124.181 54.1903 123.958C54.188 123.726 54.1276 123.521 54.0092 123.344C53.8932 123.164 53.7334 123.023 53.5298 122.921C53.3286 122.819 53.099 122.768 52.8409 122.768C52.5805 122.768 52.3485 122.819 52.1449 122.921C51.9413 123.023 51.7803 123.164 51.6619 123.344C51.5459 123.521 51.4891 123.726 51.4915 123.958C51.4891 124.181 51.5436 124.377 51.6548 124.548C51.7661 124.716 51.9223 124.847 52.1236 124.942C52.3272 125.036 52.5663 125.084 52.8409 125.084ZM52.8409 121.771C53.0634 121.771 53.2599 121.726 53.4304 121.636C53.6032 121.546 53.7393 121.42 53.8388 121.259C53.9382 121.098 53.9891 120.912 53.9915 120.702C53.9891 120.493 53.9394 120.311 53.8423 120.155C53.7453 119.996 53.6103 119.874 53.4375 119.789C53.2647 119.701 53.0658 119.658 52.8409 119.658C52.6113 119.658 52.4089 119.701 52.2337 119.789C52.0608 119.874 51.9259 119.996 51.8288 120.155C51.7341 120.311 51.688 120.493 51.6903 120.702C51.688 120.912 51.7353 121.098 51.8324 121.259C51.9318 121.418 52.0679 121.543 52.2408 121.636C52.416 121.726 52.616 121.771 52.8409 121.771Z" fill="black" fill-opacity="0.45"/>
<rect x="266" y="100" width="44" height="44" rx="15" fill="#2947A3"/>
<path fill-rule="evenodd" clip-rule="evenodd" d="M289.293 114.293C289.683 113.902 290.317 113.902 290.707 114.293L297.707 121.293C298.098 121.683 298.098 122.317 297.707 122.707L290.707 129.707C290.317 130.098 289.683 130.098 289.293 129.707C288.902 129.317 288.902 128.683 289.293 128.293L294.586 123H279C278.448 123 278 122.552 278 122C278 121.448 278.448 121 279 121H294.586L289.293 115.707C288.902 115.317 288.902 114.683 289.293 114.293Z" fill="#ADBDEB"/>
</svg>
