<svg width="326" height="160" viewBox="0 0 326 160" fill="none" xmlns="http://www.w3.org/2000/svg">
<rect width="326" height="160" rx="32" fill="#C6B4E4"/>
<path d="M18.2955 47V23.7273H27.0227C28.8106 23.7273 30.3106 24.0606 31.5227 24.7273C32.7424 25.3939 33.6629 26.3106 34.2841 27.4773C34.9129 28.6364 35.2273 29.9545 35.2273 31.4318C35.2273 32.9242 34.9129 34.25 34.2841 35.4091C33.6553 36.5682 32.7273 37.4811 31.5 38.1477C30.2727 38.8068 28.7614 39.1364 26.9659 39.1364H21.1818V35.6705H26.3977C27.4432 35.6705 28.2992 35.4886 28.9659 35.125C29.6326 34.7614 30.125 34.2614 30.4432 33.625C30.7689 32.9886 30.9318 32.2576 30.9318 31.4318C30.9318 30.6061 30.7689 29.8788 30.4432 29.25C30.125 28.6212 29.6288 28.1326 28.9545 27.7841C28.2879 27.428 27.428 27.25 26.375 27.25H22.5114V47H18.2955ZM43.4176 47.3523C42.3116 47.3523 41.3153 47.1553 40.429 46.7614C39.5502 46.3598 38.8532 45.7689 38.3381 44.9886C37.8305 44.2083 37.5767 43.2462 37.5767 42.1023C37.5767 41.1174 37.7585 40.303 38.1222 39.6591C38.4858 39.0152 38.982 38.5 39.6108 38.1136C40.2396 37.7273 40.9479 37.4356 41.7358 37.2386C42.5313 37.0341 43.3532 36.8864 44.2017 36.7955C45.2244 36.6894 46.054 36.5947 46.6903 36.5114C47.3267 36.4205 47.7888 36.2841 48.0767 36.1023C48.3722 35.9129 48.5199 35.6212 48.5199 35.2273V35.1591C48.5199 34.303 48.2661 33.6402 47.7585 33.1705C47.2509 32.7008 46.5199 32.4659 45.5653 32.4659C44.5578 32.4659 43.7585 32.6856 43.1676 33.125C42.5843 33.5644 42.1903 34.0833 41.9858 34.6818L38.1449 34.1364C38.4479 33.0758 38.9479 32.1894 39.6449 31.4773C40.3419 30.7576 41.1941 30.2197 42.2017 29.8636C43.2093 29.5 44.3229 29.3182 45.5426 29.3182C46.3835 29.3182 47.2206 29.4167 48.054 29.6136C48.8873 29.8106 49.6487 30.1364 50.3381 30.5909C51.0275 31.0379 51.5805 31.6477 51.9972 32.4205C52.4214 33.1932 52.6335 34.1591 52.6335 35.3182V47H48.679V44.6023H48.5426C48.2926 45.0871 47.9403 45.5417 47.4858 45.9659C47.0388 46.3826 46.4744 46.7197 45.7926 46.9773C45.1184 47.2273 44.3267 47.3523 43.4176 47.3523ZM44.4858 44.3295C45.3116 44.3295 46.0275 44.1667 46.6335 43.8409C47.2396 43.5076 47.7055 43.0682 48.0312 42.5227C48.3646 41.9773 48.5312 41.3826 48.5312 40.7386V38.6818C48.4025 38.7879 48.1828 38.8864 47.8722 38.9773C47.5691 39.0682 47.2282 39.1477 46.8494 39.2159C46.4706 39.2841 46.0956 39.3447 45.7244 39.3977C45.3532 39.4508 45.0313 39.4962 44.7585 39.5341C44.1449 39.6174 43.5956 39.7538 43.1108 39.9432C42.6259 40.1326 42.2434 40.3977 41.9631 40.7386C41.6828 41.072 41.5426 41.5038 41.5426 42.0341C41.5426 42.7917 41.8191 43.3636 42.3722 43.75C42.9252 44.1364 43.6297 44.3295 44.4858 44.3295ZM65.4858 29.5455V32.7273H55.4517V29.5455H65.4858ZM57.929 25.3636H62.0426V41.75C62.0426 42.303 62.1259 42.7273 62.2926 43.0227C62.4669 43.3106 62.6941 43.5076 62.9744 43.6136C63.2547 43.7197 63.5653 43.7727 63.9062 43.7727C64.1638 43.7727 64.3987 43.7538 64.6108 43.7159C64.8305 43.678 64.9972 43.6439 65.1108 43.6136L65.804 46.8295C65.5843 46.9053 65.2699 46.9886 64.8608 47.0795C64.4593 47.1705 63.9669 47.2235 63.3835 47.2386C62.3532 47.2689 61.4252 47.1136 60.5994 46.7727C59.7737 46.4242 59.1184 45.8864 58.6335 45.1591C58.1563 44.4318 57.9214 43.5227 57.929 42.4318V25.3636ZM76.3523 47.3409C74.6477 47.3409 73.1705 46.9659 71.9205 46.2159C70.6705 45.4659 69.7008 44.4167 69.0114 43.0682C68.3295 41.7197 67.9886 40.1439 67.9886 38.3409C67.9886 36.5379 68.3295 34.9583 69.0114 33.6023C69.7008 32.2462 70.6705 31.1932 71.9205 30.4432C73.1705 29.6932 74.6477 29.3182 76.3523 29.3182C78.0568 29.3182 79.5341 29.6932 80.7841 30.4432C82.0341 31.1932 83 32.2462 83.6818 33.6023C84.3712 34.9583 84.7159 36.5379 84.7159 38.3409C84.7159 40.1439 84.3712 41.7197 83.6818 43.0682C83 44.4167 82.0341 45.4659 80.7841 46.2159C79.5341 46.9659 78.0568 47.3409 76.3523 47.3409ZM76.375 44.0455C77.2992 44.0455 78.072 43.7917 78.6932 43.2841C79.3144 42.7689 79.7765 42.0795 80.0795 41.2159C80.3902 40.3523 80.5455 39.3902 80.5455 38.3295C80.5455 37.2614 80.3902 36.2955 80.0795 35.4318C79.7765 34.5606 79.3144 33.8674 78.6932 33.3523C78.072 32.8371 77.2992 32.5795 76.375 32.5795C75.428 32.5795 74.6402 32.8371 74.0114 33.3523C73.3902 33.8674 72.9242 34.5606 72.6136 35.4318C72.3106 36.2955 72.1591 37.2614 72.1591 38.3295C72.1591 39.3902 72.3106 40.3523 72.6136 41.2159C72.9242 42.0795 73.3902 42.7689 74.0114 43.2841C74.6402 43.7917 75.428 44.0455 76.375 44.0455ZM92.321 23.7273V47H88.2074V23.7273H92.321ZM104.165 47.3409C102.46 47.3409 100.983 46.9659 99.733 46.2159C98.483 45.4659 97.5133 44.4167 96.8239 43.0682C96.142 41.7197 95.8011 40.1439 95.8011 38.3409C95.8011 36.5379 96.142 34.9583 96.8239 33.6023C97.5133 32.2462 98.483 31.1932 99.733 30.4432C100.983 29.6932 102.46 29.3182 104.165 29.3182C105.869 29.3182 107.347 29.6932 108.597 30.4432C109.847 31.1932 110.813 32.2462 111.494 33.6023C112.184 34.9583 112.528 36.5379 112.528 38.3409C112.528 40.1439 112.184 41.7197 111.494 43.0682C110.813 44.4167 109.847 45.4659 108.597 46.2159C107.347 46.9659 105.869 47.3409 104.165 47.3409ZM104.188 44.0455C105.112 44.0455 105.884 43.7917 106.506 43.2841C107.127 42.7689 107.589 42.0795 107.892 41.2159C108.203 40.3523 108.358 39.3902 108.358 38.3295C108.358 37.2614 108.203 36.2955 107.892 35.4318C107.589 34.5606 107.127 33.8674 106.506 33.3523C105.884 32.8371 105.112 32.5795 104.188 32.5795C103.241 32.5795 102.453 32.8371 101.824 33.3523C101.203 33.8674 100.737 34.5606 100.426 35.4318C100.123 36.2955 99.9716 37.2614 99.9716 38.3295C99.9716 39.3902 100.123 40.3523 100.426 41.2159C100.737 42.0795 101.203 42.7689 101.824 43.2841C102.453 43.7917 103.241 44.0455 104.188 44.0455ZM123.611 53.9091C122.134 53.9091 120.865 53.7083 119.804 53.3068C118.743 52.9129 117.891 52.3826 117.247 51.7159C116.603 51.0492 116.156 50.3106 115.906 49.5L119.611 48.6023C119.777 48.9432 120.02 49.2803 120.338 49.6136C120.656 49.9545 121.084 50.2348 121.622 50.4545C122.168 50.6818 122.853 50.7955 123.679 50.7955C124.846 50.7955 125.812 50.5114 126.577 49.9432C127.342 49.3826 127.724 48.4583 127.724 47.1705V43.8636H127.52C127.308 44.2879 126.997 44.7235 126.588 45.1705C126.187 45.6174 125.652 45.9924 124.986 46.2955C124.327 46.5985 123.497 46.75 122.497 46.75C121.156 46.75 119.94 46.4356 118.849 45.8068C117.766 45.1705 116.902 44.2235 116.259 42.9659C115.622 41.7008 115.304 40.1174 115.304 38.2159C115.304 36.2992 115.622 34.6818 116.259 33.3636C116.902 32.0379 117.77 31.0341 118.861 30.3523C119.952 29.6629 121.168 29.3182 122.509 29.3182C123.531 29.3182 124.372 29.4924 125.031 29.8409C125.698 30.1818 126.228 30.5947 126.622 31.0795C127.016 31.5568 127.315 32.0076 127.52 32.4318H127.747V29.5455H131.804V47.2841C131.804 48.7765 131.448 50.0114 130.736 50.9886C130.024 51.9659 129.05 52.697 127.815 53.1818C126.58 53.6667 125.179 53.9091 123.611 53.9091ZM123.645 43.5227C124.516 43.5227 125.259 43.3106 125.872 42.8864C126.486 42.4621 126.952 41.8523 127.27 41.0568C127.588 40.2614 127.747 39.3068 127.747 38.1932C127.747 37.0947 127.588 36.1326 127.27 35.3068C126.959 34.4811 126.497 33.8409 125.884 33.3864C125.277 32.9242 124.531 32.6932 123.645 32.6932C122.728 32.6932 121.963 32.9318 121.349 33.4091C120.736 33.8864 120.274 34.5417 119.963 35.375C119.652 36.2008 119.497 37.1402 119.497 38.1932C119.497 39.2614 119.652 40.197 119.963 41C120.281 41.7955 120.747 42.4167 121.361 42.8636C121.982 43.303 122.743 43.5227 123.645 43.5227ZM136.02 47V29.5455H140.134V47H136.02ZM138.088 27.0682C137.437 27.0682 136.876 26.8523 136.406 26.4205C135.937 25.9811 135.702 25.4545 135.702 24.8409C135.702 24.2197 135.937 23.6932 136.406 23.2614C136.876 22.822 137.437 22.6023 138.088 22.6023C138.747 22.6023 139.308 22.822 139.77 23.2614C140.24 23.6932 140.474 24.2197 140.474 24.8409C140.474 25.4545 140.24 25.9811 139.77 26.4205C139.308 26.8523 138.747 27.0682 138.088 27.0682ZM149.386 47.3523C148.28 47.3523 147.284 47.1553 146.398 46.7614C145.519 46.3598 144.822 45.7689 144.307 44.9886C143.799 44.2083 143.545 43.2462 143.545 42.1023C143.545 41.1174 143.727 40.303 144.091 39.6591C144.455 39.0152 144.951 38.5 145.58 38.1136C146.208 37.7273 146.917 37.4356 147.705 37.2386C148.5 37.0341 149.322 36.8864 150.17 36.7955C151.193 36.6894 152.023 36.5947 152.659 36.5114C153.295 36.4205 153.758 36.2841 154.045 36.1023C154.341 35.9129 154.489 35.6212 154.489 35.2273V35.1591C154.489 34.303 154.235 33.6402 153.727 33.1705C153.22 32.7008 152.489 32.4659 151.534 32.4659C150.527 32.4659 149.727 32.6856 149.136 33.125C148.553 33.5644 148.159 34.0833 147.955 34.6818L144.114 34.1364C144.417 33.0758 144.917 32.1894 145.614 31.4773C146.311 30.7576 147.163 30.2197 148.17 29.8636C149.178 29.5 150.292 29.3182 151.511 29.3182C152.352 29.3182 153.189 29.4167 154.023 29.6136C154.856 29.8106 155.617 30.1364 156.307 30.5909C156.996 31.0379 157.549 31.6477 157.966 32.4205C158.39 33.1932 158.602 34.1591 158.602 35.3182V47H154.648V44.6023H154.511C154.261 45.0871 153.909 45.5417 153.455 45.9659C153.008 46.3826 152.443 46.7197 151.761 46.9773C151.087 47.2273 150.295 47.3523 149.386 47.3523ZM150.455 44.3295C151.28 44.3295 151.996 44.1667 152.602 43.8409C153.208 43.5076 153.674 43.0682 154 42.5227C154.333 41.9773 154.5 41.3826 154.5 40.7386V38.6818C154.371 38.7879 154.152 38.8864 153.841 38.9773C153.538 39.0682 153.197 39.1477 152.818 39.2159C152.439 39.2841 152.064 39.3447 151.693 39.3977C151.322 39.4508 151 39.4962 150.727 39.5341C150.114 39.6174 149.564 39.7538 149.08 39.9432C148.595 40.1326 148.212 40.3977 147.932 40.7386C147.652 41.072 147.511 41.5038 147.511 42.0341C147.511 42.7917 147.788 43.3636 148.341 43.75C148.894 44.1364 149.598 44.3295 150.455 44.3295Z" fill="#5A3695"/>
<path fill-rule="evenodd" clip-rule="evenodd" d="M21.8333 113.667C19.5321 113.667 17.6666 115.532 17.6666 117.833V126.167C17.6666 128.468 19.5321 130.333 21.8333 130.333H30.1666C32.4678 130.333 34.3333 128.468 34.3333 126.167V117.833C34.3333 115.532 32.4678 113.667 30.1666 113.667H21.8333ZM27.1207 118.222C26.6622 117.293 25.3374 117.293 24.8789 118.222L24.2219 119.553L22.7527 119.766C21.7275 119.915 21.3181 121.175 22.06 121.899L23.123 122.935L22.8721 124.398C22.6969 125.419 23.7687 126.198 24.6858 125.716L25.9998 125.025L27.3139 125.716C28.2309 126.198 29.3027 125.419 29.1275 124.398L28.8766 122.935L29.9397 121.899C30.6816 121.175 30.2722 119.915 29.2469 119.766L27.7778 119.553L27.1207 118.222Z" fill="#5A3695"/>
<path d="M43.6044 118.727V126H42.2869V120.009H42.2443L40.5433 121.096V119.888L42.3509 118.727H43.6044ZM45.3196 124.651V123.603L48.4055 118.727H49.2791V120.219H48.7464L46.669 123.511V123.567H50.9766V124.651H45.3196ZM48.7891 126V124.331L48.8033 123.862V118.727H50.0462V126H48.7891Z" fill="black" fill-opacity="0.45"/>
<rect x="266" y="100" width="44" height="44" rx="15" fill="#5A3695"/>
<path fill-rule="evenodd" clip-rule="evenodd" d="M289.293 114.293C289.683 113.902 290.317 113.902 290.707 114.293L297.707 121.293C298.098 121.683 298.098 122.317 297.707 122.707L290.707 129.707C290.317 130.098 289.683 130.098 289.293 129.707C288.902 129.317 288.902 128.683 289.293 128.293L294.586 123H279C278.448 123 278 122.552 278 122C278 121.448 278.448 121 279 121H294.586L289.293 115.707C288.902 115.317 288.902 114.683 289.293 114.293Z" fill="#C6B4E4"/>
</svg>
