<svg width="326" height="160" viewBox="0 0 326 160" fill="none" xmlns="http://www.w3.org/2000/svg">
<rect width="326" height="160" rx="32" fill="#ADBDEB"/>
<path d="M18.2955 47V23.7273H27.0227C28.8106 23.7273 30.3106 24.0606 31.5227 24.7273C32.7424 25.3939 33.6629 26.3106 34.2841 27.4773C34.9129 28.6364 35.2273 29.9545 35.2273 31.4318C35.2273 32.9242 34.9129 34.25 34.2841 35.4091C33.6553 36.5682 32.7273 37.4811 31.5 38.1477C30.2727 38.8068 28.7614 39.1364 26.9659 39.1364H21.1818V35.6705H26.3977C27.4432 35.6705 28.2992 35.4886 28.9659 35.125C29.6326 34.7614 30.125 34.2614 30.4432 33.625C30.7689 32.9886 30.9318 32.2576 30.9318 31.4318C30.9318 30.6061 30.7689 29.8788 30.4432 29.25C30.125 28.6212 29.6288 28.1326 28.9545 27.7841C28.2879 27.428 27.428 27.25 26.375 27.25H22.5114V47H18.2955ZM38.7074 47V29.5455H42.696V32.4545H42.8778C43.196 31.447 43.7415 30.6705 44.5142 30.125C45.2945 29.572 46.1847 29.2955 47.1847 29.2955C47.4119 29.2955 47.6657 29.3068 47.946 29.3295C48.2339 29.3447 48.4725 29.3712 48.6619 29.4091V33.1932C48.4877 33.1326 48.2112 33.0795 47.8324 33.0341C47.4612 32.9811 47.1013 32.9545 46.7528 32.9545C46.0028 32.9545 45.3286 33.1174 44.7301 33.4432C44.1392 33.7614 43.6733 34.2045 43.3324 34.7727C42.9915 35.3409 42.821 35.9962 42.821 36.7386V47H38.7074ZM58.2898 47.3409C56.5852 47.3409 55.108 46.9659 53.858 46.2159C52.608 45.4659 51.6383 44.4167 50.9489 43.0682C50.267 41.7197 49.9261 40.1439 49.9261 38.3409C49.9261 36.5379 50.267 34.9583 50.9489 33.6023C51.6383 32.2462 52.608 31.1932 53.858 30.4432C55.108 29.6932 56.5852 29.3182 58.2898 29.3182C59.9943 29.3182 61.4716 29.6932 62.7216 30.4432C63.9716 31.1932 64.9375 32.2462 65.6193 33.6023C66.3087 34.9583 66.6534 36.5379 66.6534 38.3409C66.6534 40.1439 66.3087 41.7197 65.6193 43.0682C64.9375 44.4167 63.9716 45.4659 62.7216 46.2159C61.4716 46.9659 59.9943 47.3409 58.2898 47.3409ZM58.3125 44.0455C59.2367 44.0455 60.0095 43.7917 60.6307 43.2841C61.2519 42.7689 61.714 42.0795 62.017 41.2159C62.3277 40.3523 62.483 39.3902 62.483 38.3295C62.483 37.2614 62.3277 36.2955 62.017 35.4318C61.714 34.5606 61.2519 33.8674 60.6307 33.3523C60.0095 32.8371 59.2367 32.5795 58.3125 32.5795C57.3655 32.5795 56.5777 32.8371 55.9489 33.3523C55.3277 33.8674 54.8617 34.5606 54.5511 35.4318C54.2481 36.2955 54.0966 37.2614 54.0966 38.3295C54.0966 39.3902 54.2481 40.3523 54.5511 41.2159C54.8617 42.0795 55.3277 42.7689 55.9489 43.2841C56.5777 43.7917 57.3655 44.0455 58.3125 44.0455ZM74.2585 36.7727V47H70.1449V29.5455H74.0767V32.5114H74.2812C74.6828 31.5341 75.3229 30.7576 76.2017 30.1818C77.0881 29.6061 78.1828 29.3182 79.4858 29.3182C80.6903 29.3182 81.7396 29.5758 82.6335 30.0909C83.535 30.6061 84.232 31.3523 84.7244 32.3295C85.2244 33.3068 85.4706 34.4924 85.4631 35.8864V47H81.3494V36.5227C81.3494 35.3561 81.0464 34.4432 80.4403 33.7841C79.8419 33.125 79.0123 32.7955 77.9517 32.7955C77.232 32.7955 76.5919 32.9545 76.0312 33.2727C75.4782 33.5833 75.0426 34.0341 74.7244 34.625C74.4138 35.2159 74.2585 35.9318 74.2585 36.7727ZM100.77 39.6591V29.5455H104.884V47H100.895V43.8977H100.713C100.319 44.875 99.6714 45.6742 98.7699 46.2955C97.8759 46.9167 96.7737 47.2273 95.4631 47.2273C94.3191 47.2273 93.3078 46.9735 92.429 46.4659C91.5578 45.9508 90.8759 45.2045 90.3835 44.2273C89.8911 43.2424 89.6449 42.053 89.6449 40.6591V29.5455H93.7585V40.0227C93.7585 41.1288 94.0616 42.0076 94.6676 42.6591C95.2737 43.3106 96.0691 43.6364 97.054 43.6364C97.66 43.6364 98.2472 43.4886 98.8153 43.1932C99.3835 42.8977 99.8494 42.4583 100.213 41.875C100.584 41.2841 100.77 40.5455 100.77 39.6591ZM113.227 36.7727V47H109.114V29.5455H113.045V32.5114H113.25C113.652 31.5341 114.292 30.7576 115.17 30.1818C116.057 29.6061 117.152 29.3182 118.455 29.3182C119.659 29.3182 120.708 29.5758 121.602 30.0909C122.504 30.6061 123.201 31.3523 123.693 32.3295C124.193 33.3068 124.439 34.4924 124.432 35.8864V47H120.318V36.5227C120.318 35.3561 120.015 34.4432 119.409 33.7841C118.811 33.125 117.981 32.7955 116.92 32.7955C116.201 32.7955 115.561 32.9545 115 33.2727C114.447 33.5833 114.011 34.0341 113.693 34.625C113.383 35.2159 113.227 35.9318 113.227 36.7727ZM136.227 47.3409C134.485 47.3409 132.989 46.9583 131.739 46.1932C130.496 45.428 129.538 44.3712 128.864 43.0227C128.197 41.6667 127.864 40.1061 127.864 38.3409C127.864 36.5682 128.205 35.0038 128.886 33.6477C129.568 32.2841 130.53 31.2235 131.773 30.4659C133.023 29.7008 134.5 29.3182 136.205 29.3182C137.621 29.3182 138.875 29.5795 139.966 30.1023C141.064 30.6174 141.939 31.3485 142.591 32.2955C143.242 33.2348 143.614 34.3333 143.705 35.5909H139.773C139.614 34.75 139.235 34.0492 138.636 33.4886C138.045 32.9205 137.254 32.6364 136.261 32.6364C135.42 32.6364 134.682 32.8636 134.045 33.3182C133.409 33.7652 132.913 34.4091 132.557 35.25C132.208 36.0909 132.034 37.0985 132.034 38.2727C132.034 39.4621 132.208 40.4848 132.557 41.3409C132.905 42.1894 133.394 42.8447 134.023 43.3068C134.659 43.7614 135.405 43.9886 136.261 43.9886C136.867 43.9886 137.409 43.875 137.886 43.6477C138.371 43.4129 138.777 43.0758 139.102 42.6364C139.428 42.197 139.652 41.6629 139.773 41.0341H143.705C143.606 42.2689 143.242 43.3636 142.614 44.3182C141.985 45.2652 141.129 46.0076 140.045 46.5455C138.962 47.0758 137.689 47.3409 136.227 47.3409ZM147.082 47V29.5455H151.196V47H147.082ZM149.151 27.0682C148.499 27.0682 147.938 26.8523 147.469 26.4205C146.999 25.9811 146.764 25.4545 146.764 24.8409C146.764 24.2197 146.999 23.6932 147.469 23.2614C147.938 22.822 148.499 22.6023 149.151 22.6023C149.81 22.6023 150.37 22.822 150.832 23.2614C151.302 23.6932 151.537 24.2197 151.537 24.8409C151.537 25.4545 151.302 25.9811 150.832 26.4205C150.37 26.8523 149.81 27.0682 149.151 27.0682ZM160.449 47.3523C159.343 47.3523 158.347 47.1553 157.46 46.7614C156.581 46.3598 155.884 45.7689 155.369 44.9886C154.862 44.2083 154.608 43.2462 154.608 42.1023C154.608 41.1174 154.79 40.303 155.153 39.6591C155.517 39.0152 156.013 38.5 156.642 38.1136C157.271 37.7273 157.979 37.4356 158.767 37.2386C159.563 37.0341 160.384 36.8864 161.233 36.7955C162.256 36.6894 163.085 36.5947 163.722 36.5114C164.358 36.4205 164.82 36.2841 165.108 36.1023C165.403 35.9129 165.551 35.6212 165.551 35.2273V35.1591C165.551 34.303 165.297 33.6402 164.79 33.1705C164.282 32.7008 163.551 32.4659 162.597 32.4659C161.589 32.4659 160.79 32.6856 160.199 33.125C159.616 33.5644 159.222 34.0833 159.017 34.6818L155.176 34.1364C155.479 33.0758 155.979 32.1894 156.676 31.4773C157.373 30.7576 158.225 30.2197 159.233 29.8636C160.241 29.5 161.354 29.3182 162.574 29.3182C163.415 29.3182 164.252 29.4167 165.085 29.6136C165.919 29.8106 166.68 30.1364 167.369 30.5909C168.059 31.0379 168.612 31.6477 169.028 32.4205C169.453 33.1932 169.665 34.1591 169.665 35.3182V47H165.71V44.6023H165.574C165.324 45.0871 164.972 45.5417 164.517 45.9659C164.07 46.3826 163.506 46.7197 162.824 46.9773C162.15 47.2273 161.358 47.3523 160.449 47.3523ZM161.517 44.3295C162.343 44.3295 163.059 44.1667 163.665 43.8409C164.271 43.5076 164.737 43.0682 165.062 42.5227C165.396 41.9773 165.562 41.3826 165.562 40.7386V38.6818C165.434 38.7879 165.214 38.8864 164.903 38.9773C164.6 39.0682 164.259 39.1477 163.881 39.2159C163.502 39.2841 163.127 39.3447 162.756 39.3977C162.384 39.4508 162.063 39.4962 161.79 39.5341C161.176 39.6174 160.627 39.7538 160.142 39.9432C159.657 40.1326 159.275 40.3977 158.994 40.7386C158.714 41.072 158.574 41.5038 158.574 42.0341C158.574 42.7917 158.85 43.3636 159.403 43.75C159.956 44.1364 160.661 44.3295 161.517 44.3295ZM182.517 29.5455V32.7273H172.483V29.5455H182.517ZM174.96 25.3636H179.074V41.75C179.074 42.303 179.157 42.7273 179.324 43.0227C179.498 43.3106 179.725 43.5076 180.006 43.6136C180.286 43.7197 180.597 43.7727 180.938 43.7727C181.195 43.7727 181.43 43.7538 181.642 43.7159C181.862 43.678 182.028 43.6439 182.142 43.6136L182.835 46.8295C182.616 46.9053 182.301 46.9886 181.892 47.0795C181.491 47.1705 180.998 47.2235 180.415 47.2386C179.384 47.2689 178.456 47.1136 177.631 46.7727C176.805 46.4242 176.15 45.8864 175.665 45.1591C175.188 44.4318 174.953 43.5227 174.96 42.4318V25.3636ZM185.957 47V29.5455H190.071V47H185.957ZM188.026 27.0682C187.374 27.0682 186.813 26.8523 186.344 26.4205C185.874 25.9811 185.639 25.4545 185.639 24.8409C185.639 24.2197 185.874 23.6932 186.344 23.2614C186.813 22.822 187.374 22.6023 188.026 22.6023C188.685 22.6023 189.245 22.822 189.707 23.2614C190.177 23.6932 190.412 24.2197 190.412 24.8409C190.412 25.4545 190.177 25.9811 189.707 26.4205C189.245 26.8523 188.685 27.0682 188.026 27.0682ZM201.915 47.3409C200.21 47.3409 198.733 46.9659 197.483 46.2159C196.233 45.4659 195.263 44.4167 194.574 43.0682C193.892 41.7197 193.551 40.1439 193.551 38.3409C193.551 36.5379 193.892 34.9583 194.574 33.6023C195.263 32.2462 196.233 31.1932 197.483 30.4432C198.733 29.6932 200.21 29.3182 201.915 29.3182C203.619 29.3182 205.097 29.6932 206.347 30.4432C207.597 31.1932 208.563 32.2462 209.244 33.6023C209.934 34.9583 210.278 36.5379 210.278 38.3409C210.278 40.1439 209.934 41.7197 209.244 43.0682C208.563 44.4167 207.597 45.4659 206.347 46.2159C205.097 46.9659 203.619 47.3409 201.915 47.3409ZM201.938 44.0455C202.862 44.0455 203.634 43.7917 204.256 43.2841C204.877 42.7689 205.339 42.0795 205.642 41.2159C205.953 40.3523 206.108 39.3902 206.108 38.3295C206.108 37.2614 205.953 36.2955 205.642 35.4318C205.339 34.5606 204.877 33.8674 204.256 33.3523C203.634 32.8371 202.862 32.5795 201.938 32.5795C200.991 32.5795 200.203 32.8371 199.574 33.3523C198.953 33.8674 198.487 34.5606 198.176 35.4318C197.873 36.2955 197.722 37.2614 197.722 38.3295C197.722 39.3902 197.873 40.3523 198.176 41.2159C198.487 42.0795 198.953 42.7689 199.574 43.2841C200.203 43.7917 200.991 44.0455 201.938 44.0455ZM217.884 36.7727V47H213.77V29.5455H217.702V32.5114H217.906C218.308 31.5341 218.948 30.7576 219.827 30.1818C220.713 29.6061 221.808 29.3182 223.111 29.3182C224.315 29.3182 225.365 29.5758 226.259 30.0909C227.16 30.6061 227.857 31.3523 228.349 32.3295C228.849 33.3068 229.096 34.4924 229.088 35.8864V47H224.974V36.5227C224.974 35.3561 224.671 34.4432 224.065 33.7841C223.467 33.125 222.637 32.7955 221.577 32.7955C220.857 32.7955 220.217 32.9545 219.656 33.2727C219.103 33.5833 218.668 34.0341 218.349 34.625C218.039 35.2159 217.884 35.9318 217.884 36.7727Z" fill="#2947A3"/>
<path fill-rule="evenodd" clip-rule="evenodd" d="M21.8333 113.667C19.5321 113.667 17.6667 115.532 17.6667 117.833V126.167C17.6667 128.468 19.5321 130.333 21.8333 130.333H30.1667C32.4678 130.333 34.3333 128.468 34.3333 126.167V117.833C34.3333 115.532 32.4678 113.667 30.1667 113.667H21.8333ZM27.1208 118.222C26.6622 117.293 25.3374 117.293 24.8789 118.222L24.2219 119.553L22.7528 119.766C21.7275 119.915 21.3181 121.175 22.06 121.899L23.1231 122.935L22.8721 124.398C22.697 125.419 23.7688 126.198 24.6858 125.716L25.9998 125.025L27.3139 125.716C28.2309 126.198 29.3027 125.419 29.1276 124.398L28.8766 122.935L29.9397 121.899C30.6816 121.175 30.2722 119.915 29.2469 119.766L27.7778 119.553L27.1208 118.222Z" fill="#2947A3"/>
<path d="M40.6463 126V125.048L43.1712 122.573C43.4126 122.329 43.6139 122.113 43.7749 121.923C43.9358 121.734 44.0566 121.55 44.1371 121.373C44.2176 121.195 44.2578 121.006 44.2578 120.805C44.2578 120.575 44.2057 120.379 44.1016 120.215C43.9974 120.049 43.8542 119.922 43.6719 119.832C43.4896 119.742 43.2824 119.697 43.0504 119.697C42.8113 119.697 42.6018 119.746 42.4219 119.846C42.242 119.943 42.1023 120.081 42.0028 120.261C41.9058 120.441 41.8572 120.656 41.8572 120.904H40.6037C40.6037 120.442 40.709 120.041 40.9197 119.7C41.1304 119.359 41.4205 119.095 41.7898 118.908C42.1615 118.721 42.5876 118.628 43.0682 118.628C43.5559 118.628 43.9844 118.719 44.3537 118.901C44.723 119.084 45.0095 119.333 45.2131 119.651C45.419 119.968 45.522 120.33 45.522 120.737C45.522 121.009 45.4699 121.277 45.3658 121.54C45.2616 121.803 45.0781 122.094 44.8153 122.413C44.5549 122.733 44.1892 123.12 43.718 123.575L42.4645 124.849V124.899H45.6321V126H40.6463ZM46.8572 126V125.048L49.3821 122.573C49.6236 122.329 49.8248 122.113 49.9858 121.923C50.1468 121.734 50.2675 121.55 50.348 121.373C50.4285 121.195 50.4688 121.006 50.4688 120.805C50.4688 120.575 50.4167 120.379 50.3125 120.215C50.2083 120.049 50.0651 119.922 49.8828 119.832C49.7005 119.742 49.4934 119.697 49.2614 119.697C49.0223 119.697 48.8127 119.746 48.6328 119.846C48.4529 119.943 48.3132 120.081 48.2138 120.261C48.1167 120.441 48.0682 120.656 48.0682 120.904H46.8146C46.8146 120.442 46.92 120.041 47.1307 119.7C47.3414 119.359 47.6314 119.095 48.0007 118.908C48.3724 118.721 48.7985 118.628 49.2791 118.628C49.7668 118.628 50.1953 118.719 50.5646 118.901C50.9339 119.084 51.2204 119.333 51.424 119.651C51.63 119.968 51.733 120.33 51.733 120.737C51.733 121.009 51.6809 121.277 51.5767 121.54C51.4725 121.803 51.2891 122.094 51.0263 122.413C50.7659 122.733 50.4001 123.12 49.929 123.575L48.6754 124.849V124.899H51.843V126H46.8572ZM52.7805 124.651V123.603L55.8665 118.727H56.7401V120.219H56.2074L54.13 123.511V123.567H58.4375V124.651H52.7805ZM56.25 126V124.331L56.2642 123.862V118.727H57.5071V126H56.25Z" fill="black" fill-opacity="0.45"/>
<rect x="266" y="100" width="44" height="44" rx="15" fill="#2947A3"/>
<path fill-rule="evenodd" clip-rule="evenodd" d="M289.293 114.293C289.683 113.902 290.317 113.902 290.707 114.293L297.707 121.293C298.098 121.683 298.098 122.317 297.707 122.707L290.707 129.707C290.317 130.098 289.683 130.098 289.293 129.707C288.902 129.317 288.902 128.683 289.293 128.293L294.586 123H279C278.448 123 278 122.552 278 122C278 121.448 278.448 121 279 121H294.586L289.293 115.707C288.902 115.317 288.902 114.683 289.293 114.293Z" fill="#ADBDEB"/>
</svg>
