<svg width="326" height="160" viewBox="0 0 326 160" fill="none" xmlns="http://www.w3.org/2000/svg">
<rect width="326" height="160" rx="32" fill="#E6B4B2"/>
<path d="M22.5114 23.7273V47H18.2955V23.7273H22.5114ZM31.0085 36.7727V47H26.8949V29.5455H30.8267V32.5114H31.0312C31.4328 31.5341 32.0729 30.7576 32.9517 30.1818C33.8381 29.6061 34.9328 29.3182 36.2358 29.3182C37.4403 29.3182 38.4896 29.5758 39.3835 30.0909C40.285 30.6061 40.982 31.3523 41.4744 32.3295C41.9744 33.3068 42.2206 34.4924 42.2131 35.8864V47H38.0994V36.5227C38.0994 35.3561 37.7964 34.4432 37.1903 33.7841C36.5919 33.125 35.7623 32.7955 34.7017 32.7955C33.982 32.7955 33.3419 32.9545 32.7812 33.2727C32.2282 33.5833 31.7926 34.0341 31.4744 34.625C31.1638 35.2159 31.0085 35.9318 31.0085 36.7727ZM52.8722 47.3068C51.5009 47.3068 50.2737 46.9545 49.1903 46.25C48.107 45.5455 47.2509 44.5227 46.6222 43.1818C45.9934 41.8409 45.679 40.2121 45.679 38.2955C45.679 36.3561 45.9972 34.7197 46.6335 33.3864C47.2775 32.0455 48.1449 31.0341 49.2358 30.3523C50.3267 29.6629 51.5426 29.3182 52.8835 29.3182C53.9063 29.3182 54.7472 29.4924 55.4062 29.8409C56.0653 30.1818 56.5881 30.5947 56.9744 31.0795C57.3608 31.5568 57.66 32.0076 57.8722 32.4318H58.0426V23.7273H62.1676V47H58.1222V44.25H57.8722C57.66 44.6742 57.3532 45.125 56.9517 45.6023C56.5502 46.072 56.0199 46.4735 55.3608 46.8068C54.7017 47.1402 53.8722 47.3068 52.8722 47.3068ZM54.0199 43.9318C54.8911 43.9318 55.6335 43.697 56.2472 43.2273C56.8608 42.75 57.3267 42.0871 57.6449 41.2386C57.9631 40.3902 58.1222 39.4015 58.1222 38.2727C58.1222 37.1439 57.9631 36.1629 57.6449 35.3295C57.3343 34.4962 56.8722 33.8485 56.2585 33.3864C55.6525 32.9242 54.9063 32.6932 54.0199 32.6932C53.1032 32.6932 52.3381 32.9318 51.7244 33.4091C51.1108 33.8864 50.6487 34.5455 50.3381 35.3864C50.0275 36.2273 49.8722 37.1894 49.8722 38.2727C49.8722 39.3636 50.0275 40.3371 50.3381 41.1932C50.6563 42.0417 51.1222 42.7121 51.7358 43.2045C52.357 43.6894 53.1184 43.9318 54.0199 43.9318ZM77.6761 39.6591V29.5455H81.7898V47H77.8011V43.8977H77.6193C77.2254 44.875 76.5777 45.6742 75.6761 46.2955C74.7822 46.9167 73.6799 47.2273 72.3693 47.2273C71.2254 47.2273 70.214 46.9735 69.3352 46.4659C68.464 45.9508 67.7822 45.2045 67.2898 44.2273C66.7973 43.2424 66.5511 42.053 66.5511 40.6591V29.5455H70.6648V40.0227C70.6648 41.1288 70.9678 42.0076 71.5739 42.6591C72.1799 43.3106 72.9754 43.6364 73.9602 43.6364C74.5663 43.6364 75.1534 43.4886 75.7216 43.1932C76.2898 42.8977 76.7557 42.4583 77.1193 41.875C77.4905 41.2841 77.6761 40.5455 77.6761 39.6591ZM72.6193 27.25L75.1648 22.0568H79.1875L75.6989 27.25H72.6193ZM99.8153 34.1591L96.0653 34.5682C95.9593 34.1894 95.7737 33.8333 95.5085 33.5C95.2509 33.1667 94.9025 32.8977 94.4631 32.6932C94.0237 32.4886 93.4858 32.3864 92.8494 32.3864C91.9934 32.3864 91.2737 32.572 90.6903 32.9432C90.1146 33.3144 89.8305 33.7955 89.8381 34.3864C89.8305 34.8939 90.0161 35.3068 90.3949 35.625C90.7813 35.9432 91.4176 36.2045 92.304 36.4091L95.2812 37.0455C96.9328 37.4015 98.16 37.9659 98.9631 38.7386C99.7737 39.5114 100.183 40.5227 100.19 41.7727C100.183 42.8712 99.8608 43.8409 99.2244 44.6818C98.5956 45.5152 97.7206 46.1667 96.5994 46.6364C95.4782 47.1061 94.1903 47.3409 92.7358 47.3409C90.5994 47.3409 88.8797 46.8939 87.5767 46C86.2737 45.0985 85.4972 43.8447 85.2472 42.2386L89.2585 41.8523C89.4403 42.6402 89.8267 43.2348 90.4176 43.6364C91.0085 44.0379 91.7775 44.2386 92.7244 44.2386C93.7017 44.2386 94.4858 44.0379 95.0767 43.6364C95.6752 43.2348 95.9744 42.7386 95.9744 42.1477C95.9744 41.6477 95.7813 41.2348 95.3949 40.9091C95.0161 40.5833 94.4252 40.3333 93.6222 40.1591L90.6449 39.5341C88.9706 39.1856 87.732 38.5985 86.929 37.7727C86.1259 36.9394 85.7282 35.8864 85.7358 34.6136C85.7282 33.5379 86.0199 32.6061 86.6108 31.8182C87.2093 31.0227 88.0388 30.4091 89.0994 29.9773C90.1676 29.5379 91.3987 29.3182 92.7926 29.3182C94.8381 29.3182 96.4479 29.7538 97.6222 30.625C98.804 31.4962 99.535 32.6742 99.8153 34.1591ZM112.298 29.5455V32.7273H102.264V29.5455H112.298ZM104.741 25.3636H108.855V41.75C108.855 42.303 108.938 42.7273 109.105 43.0227C109.279 43.3106 109.507 43.5076 109.787 43.6136C110.067 43.7197 110.378 43.7727 110.719 43.7727C110.976 43.7727 111.211 43.7538 111.423 43.7159C111.643 43.678 111.81 43.6439 111.923 43.6136L112.616 46.8295C112.397 46.9053 112.082 46.9886 111.673 47.0795C111.272 47.1705 110.779 47.2235 110.196 47.2386C109.166 47.2689 108.238 47.1136 107.412 46.7727C106.586 46.4242 105.931 45.8864 105.446 45.1591C104.969 44.4318 104.734 43.5227 104.741 42.4318V25.3636ZM115.739 47V29.5455H119.727V32.4545H119.909C120.227 31.447 120.773 30.6705 121.545 30.125C122.326 29.572 123.216 29.2955 124.216 29.2955C124.443 29.2955 124.697 29.3068 124.977 29.3295C125.265 29.3447 125.504 29.3712 125.693 29.4091V33.1932C125.519 33.1326 125.242 33.0795 124.864 33.0341C124.492 32.9811 124.133 32.9545 123.784 32.9545C123.034 32.9545 122.36 33.1174 121.761 33.4432C121.17 33.7614 120.705 34.2045 120.364 34.7727C120.023 35.3409 119.852 35.9962 119.852 36.7386V47H115.739ZM128.426 47V29.5455H132.54V47H128.426ZM130.494 27.0682C129.843 27.0682 129.282 26.8523 128.812 26.4205C128.343 25.9811 128.108 25.4545 128.108 24.8409C128.108 24.2197 128.343 23.6932 128.812 23.2614C129.282 22.822 129.843 22.6023 130.494 22.6023C131.153 22.6023 131.714 22.822 132.176 23.2614C132.646 23.6932 132.881 24.2197 132.881 24.8409C132.881 25.4545 132.646 25.9811 132.176 26.4205C131.714 26.8523 131.153 27.0682 130.494 27.0682ZM141.793 47.3523C140.687 47.3523 139.69 47.1553 138.804 46.7614C137.925 46.3598 137.228 45.7689 136.713 44.9886C136.205 44.2083 135.952 43.2462 135.952 42.1023C135.952 41.1174 136.134 40.303 136.497 39.6591C136.861 39.0152 137.357 38.5 137.986 38.1136C138.615 37.7273 139.323 37.4356 140.111 37.2386C140.906 37.0341 141.728 36.8864 142.577 36.7955C143.599 36.6894 144.429 36.5947 145.065 36.5114C145.702 36.4205 146.164 36.2841 146.452 36.1023C146.747 35.9129 146.895 35.6212 146.895 35.2273V35.1591C146.895 34.303 146.641 33.6402 146.134 33.1705C145.626 32.7008 144.895 32.4659 143.94 32.4659C142.933 32.4659 142.134 32.6856 141.543 33.125C140.959 33.5644 140.565 34.0833 140.361 34.6818L136.52 34.1364C136.823 33.0758 137.323 32.1894 138.02 31.4773C138.717 30.7576 139.569 30.2197 140.577 29.8636C141.584 29.5 142.698 29.3182 143.918 29.3182C144.759 29.3182 145.596 29.4167 146.429 29.6136C147.262 29.8106 148.024 30.1364 148.713 30.5909C149.402 31.0379 149.955 31.6477 150.372 32.4205C150.796 33.1932 151.009 34.1591 151.009 35.3182V47H147.054V44.6023H146.918C146.668 45.0871 146.315 45.5417 145.861 45.9659C145.414 46.3826 144.849 46.7197 144.168 46.9773C143.493 47.2273 142.702 47.3523 141.793 47.3523ZM142.861 44.3295C143.687 44.3295 144.402 44.1667 145.009 43.8409C145.615 43.5076 146.08 43.0682 146.406 42.5227C146.74 41.9773 146.906 41.3826 146.906 40.7386V38.6818C146.777 38.7879 146.558 38.8864 146.247 38.9773C145.944 39.0682 145.603 39.1477 145.224 39.2159C144.846 39.2841 144.471 39.3447 144.099 39.3977C143.728 39.4508 143.406 39.4962 143.134 39.5341C142.52 39.6174 141.971 39.7538 141.486 39.9432C141.001 40.1326 140.618 40.3977 140.338 40.7386C140.058 41.072 139.918 41.5038 139.918 42.0341C139.918 42.7917 140.194 43.3636 140.747 43.75C141.3 44.1364 142.005 44.3295 142.861 44.3295ZM162.616 42.6818V39.3295L172.491 23.7273H175.287V28.5H173.582L166.935 39.0341V39.2159H180.719V42.6818H162.616ZM173.719 47V41.6591L173.764 40.1591V23.7273H177.741V47H173.719ZM186.273 47.25C185.583 47.25 184.992 47.0076 184.5 46.5227C184.008 46.0379 183.765 45.447 183.773 44.75C183.765 44.0682 184.008 43.4848 184.5 43C184.992 42.5152 185.583 42.2727 186.273 42.2727C186.939 42.2727 187.519 42.5152 188.011 43C188.511 43.4848 188.765 44.0682 188.773 44.75C188.765 45.2121 188.644 45.6326 188.409 46.0114C188.182 46.3902 187.879 46.6932 187.5 46.9205C187.129 47.1402 186.72 47.25 186.273 47.25ZM200.67 47.4432C198.799 47.4432 197.193 46.9697 195.852 46.0227C194.519 45.0682 193.492 43.6932 192.773 41.8977C192.061 40.0947 191.705 37.9242 191.705 35.3864C191.712 32.8485 192.072 30.6894 192.784 28.9091C193.504 27.1212 194.53 25.7576 195.864 24.8182C197.205 23.8788 198.807 23.4091 200.67 23.4091C202.534 23.4091 204.136 23.8788 205.477 24.8182C206.818 25.7576 207.845 27.1212 208.557 28.9091C209.277 30.697 209.636 32.8561 209.636 35.3864C209.636 37.9318 209.277 40.1061 208.557 41.9091C207.845 43.7045 206.818 45.0758 205.477 46.0227C204.144 46.9697 202.542 47.4432 200.67 47.4432ZM200.67 43.8864C202.125 43.8864 203.273 43.1705 204.114 41.7386C204.962 40.2992 205.386 38.1818 205.386 35.3864C205.386 33.5379 205.193 31.9848 204.807 30.7273C204.42 29.4697 203.875 28.5227 203.17 27.8864C202.466 27.2424 201.633 26.9205 200.67 26.9205C199.223 26.9205 198.08 27.6402 197.239 29.0795C196.398 30.5114 195.973 32.6136 195.966 35.3864C195.958 37.2424 196.144 38.803 196.523 40.0682C196.909 41.3333 197.455 42.2879 198.159 42.9318C198.864 43.5682 199.701 43.8864 200.67 43.8864Z" fill="#9A3732"/>
<rect width="294" height="44" transform="translate(16 100)" fill="#E6B4B2"/>
<path fill-rule="evenodd" clip-rule="evenodd" d="M21.8334 113.667C19.5322 113.667 17.6667 115.532 17.6667 117.833V126.167C17.6667 128.468 19.5322 130.333 21.8334 130.333H30.1667C32.4679 130.333 34.3334 128.468 34.3334 126.167V117.833C34.3334 115.532 32.4679 113.667 30.1667 113.667H21.8334ZM27.1209 118.222C26.6623 117.293 25.3375 117.293 24.879 118.222L24.222 119.553L22.7529 119.766C21.7276 119.915 21.3182 121.175 22.0601 121.899L23.1232 122.935L22.8722 124.398C22.6971 125.419 23.7689 126.198 24.6859 125.716L25.9999 125.025L27.314 125.716C28.231 126.198 29.3028 125.419 29.1277 124.398L28.8767 122.935L29.9398 121.899C30.6817 121.175 30.2723 119.915 29.247 119.766L27.7779 119.553L27.1209 118.222Z" fill="#9A3732"/>
<path d="M43.6044 118.727V126H42.2869V120.009H42.2443L40.5433 121.096V119.888L42.3509 118.727H43.6044ZM48.4091 118.727V126H47.0916V120.009H47.049L45.348 121.096V119.888L47.1555 118.727H48.4091ZM52.8409 126.099C52.313 126.099 51.8442 126.011 51.4347 125.833C51.0275 125.656 50.7079 125.413 50.4759 125.105C50.2462 124.795 50.1326 124.443 50.1349 124.05C50.1326 123.745 50.1989 123.464 50.3338 123.209C50.4688 122.953 50.651 122.74 50.8807 122.57C51.1127 122.397 51.3707 122.287 51.6548 122.239V122.19C51.2808 122.107 50.9777 121.916 50.7457 121.618C50.5161 121.317 50.4025 120.97 50.4048 120.577C50.4025 120.203 50.5066 119.87 50.7173 119.576C50.928 119.282 51.2169 119.052 51.5838 118.884C51.9508 118.713 52.3698 118.628 52.8409 118.628C53.3073 118.628 53.7228 118.713 54.0874 118.884C54.4543 119.052 54.7431 119.282 54.9538 119.576C55.1669 119.87 55.2734 120.203 55.2734 120.577C55.2734 120.97 55.1562 121.317 54.9219 121.618C54.6899 121.916 54.3904 122.107 54.0234 122.19V122.239C54.3075 122.287 54.5632 122.397 54.7905 122.57C55.0201 122.74 55.2024 122.953 55.3374 123.209C55.4747 123.464 55.5433 123.745 55.5433 124.05C55.5433 124.443 55.4273 124.795 55.1953 125.105C54.9633 125.413 54.6437 125.656 54.2365 125.833C53.8317 126.011 53.3665 126.099 52.8409 126.099ZM52.8409 125.084C53.1132 125.084 53.3499 125.038 53.5511 124.945C53.7524 124.851 53.9086 124.718 54.0199 124.548C54.1312 124.377 54.188 124.181 54.1903 123.958C54.188 123.726 54.1276 123.521 54.0092 123.344C53.8932 123.164 53.7334 123.023 53.5298 122.921C53.3286 122.819 53.099 122.768 52.8409 122.768C52.5805 122.768 52.3485 122.819 52.1449 122.921C51.9413 123.023 51.7803 123.164 51.6619 123.344C51.5459 123.521 51.4891 123.726 51.4915 123.958C51.4891 124.181 51.5436 124.377 51.6548 124.548C51.7661 124.716 51.9223 124.847 52.1236 124.942C52.3272 125.036 52.5663 125.084 52.8409 125.084ZM52.8409 121.771C53.0634 121.771 53.2599 121.726 53.4304 121.636C53.6032 121.546 53.7393 121.42 53.8388 121.259C53.9382 121.098 53.9891 120.912 53.9915 120.702C53.9891 120.493 53.9394 120.311 53.8423 120.155C53.7453 119.996 53.6103 119.874 53.4375 119.789C53.2647 119.701 53.0658 119.658 52.8409 119.658C52.6113 119.658 52.4089 119.701 52.2337 119.789C52.0608 119.874 51.9259 119.996 51.8288 120.155C51.7341 120.311 51.688 120.493 51.6903 120.702C51.688 120.912 51.7353 121.098 51.8324 121.259C51.9318 121.418 52.0679 121.543 52.2408 121.636C52.416 121.726 52.616 121.771 52.8409 121.771Z" fill="black" fill-opacity="0.45"/>
<rect x="266" y="100" width="44" height="44" rx="15" fill="#9A3732"/>
<path fill-rule="evenodd" clip-rule="evenodd" d="M289.293 114.293C289.683 113.902 290.317 113.902 290.707 114.293L297.707 121.293C298.098 121.683 298.098 122.317 297.707 122.707L290.707 129.707C290.317 130.098 289.683 130.098 289.293 129.707C288.902 129.317 288.902 128.683 289.293 128.293L294.586 123H279C278.448 123 278 122.552 278 122C278 121.448 278.448 121 279 121H294.586L289.293 115.707C288.902 115.317 288.902 114.683 289.293 114.293Z" fill="#E6B4B2"/>
</svg>
