<svg width="326" height="160" viewBox="0 0 326 160" fill="none" xmlns="http://www.w3.org/2000/svg">
<rect width="326" height="160" rx="32" fill="#EFD0B4"/>
<path d="M17.2727 27.2614V23.7273H35.8409V27.2614H28.6477V47H24.4659V27.2614H17.2727ZM41.8864 47.3523C40.7803 47.3523 39.7841 47.1553 38.8977 46.7614C38.0189 46.3598 37.322 45.7689 36.8068 44.9886C36.2992 44.2083 36.0455 43.2462 36.0455 42.1023C36.0455 41.1174 36.2273 40.303 36.5909 39.6591C36.9545 39.0152 37.4508 38.5 38.0795 38.1136C38.7083 37.7273 39.4167 37.4356 40.2045 37.2386C41 37.0341 41.822 36.8864 42.6705 36.7955C43.6932 36.6894 44.5227 36.5947 45.1591 36.5114C45.7955 36.4205 46.2576 36.2841 46.5455 36.1023C46.8409 35.9129 46.9886 35.6212 46.9886 35.2273V35.1591C46.9886 34.303 46.7348 33.6402 46.2273 33.1705C45.7197 32.7008 44.9886 32.4659 44.0341 32.4659C43.0265 32.4659 42.2273 32.6856 41.6364 33.125C41.053 33.5644 40.6591 34.0833 40.4545 34.6818L36.6136 34.1364C36.9167 33.0758 37.4167 32.1894 38.1136 31.4773C38.8106 30.7576 39.6629 30.2197 40.6705 29.8636C41.678 29.5 42.7917 29.3182 44.0114 29.3182C44.8523 29.3182 45.6894 29.4167 46.5227 29.6136C47.3561 29.8106 48.1174 30.1364 48.8068 30.5909C49.4962 31.0379 50.0492 31.6477 50.4659 32.4205C50.8902 33.1932 51.1023 34.1591 51.1023 35.3182V47H47.1477V44.6023H47.0114C46.7614 45.0871 46.4091 45.5417 45.9545 45.9659C45.5076 46.3826 44.9432 46.7197 44.2614 46.9773C43.5871 47.2273 42.7955 47.3523 41.8864 47.3523ZM42.9545 44.3295C43.7803 44.3295 44.4962 44.1667 45.1023 43.8409C45.7083 43.5076 46.1742 43.0682 46.5 42.5227C46.8333 41.9773 47 41.3826 47 40.7386V38.6818C46.8712 38.7879 46.6515 38.8864 46.3409 38.9773C46.0379 39.0682 45.697 39.1477 45.3182 39.2159C44.9394 39.2841 44.5644 39.3447 44.1932 39.3977C43.822 39.4508 43.5 39.4962 43.2273 39.5341C42.6136 39.6174 42.0644 39.7538 41.5795 39.9432C41.0947 40.1326 40.7121 40.3977 40.4318 40.7386C40.1515 41.072 40.0114 41.5038 40.0114 42.0341C40.0114 42.7917 40.2879 43.3636 40.8409 43.75C41.3939 44.1364 42.0985 44.3295 42.9545 44.3295ZM55.4205 47V23.7273H59.5341V32.4318H59.7045C59.9167 32.0076 60.2159 31.5568 60.6023 31.0795C60.9886 30.5947 61.5114 30.1818 62.1705 29.8409C62.8295 29.4924 63.6705 29.3182 64.6932 29.3182C66.0417 29.3182 67.2576 29.6629 68.3409 30.3523C69.4318 31.0341 70.2955 32.0455 70.9318 33.3864C71.5758 34.7197 71.8977 36.3561 71.8977 38.2955C71.8977 40.2121 71.5833 41.8409 70.9545 43.1818C70.3258 44.5227 69.4697 45.5455 68.3864 46.25C67.303 46.9545 66.0758 47.3068 64.7045 47.3068C63.7045 47.3068 62.875 47.1402 62.2159 46.8068C61.5568 46.4735 61.0265 46.072 60.625 45.6023C60.2311 45.125 59.9242 44.6742 59.7045 44.25H59.4659V47H55.4205ZM59.4545 38.2727C59.4545 39.4015 59.6136 40.3902 59.9318 41.2386C60.2576 42.0871 60.7235 42.75 61.3295 43.2273C61.9432 43.697 62.6856 43.9318 63.5568 43.9318C64.4659 43.9318 65.2273 43.6894 65.8409 43.2045C66.4545 42.7121 66.9167 42.0417 67.2273 41.1932C67.5455 40.3371 67.7045 39.3636 67.7045 38.2727C67.7045 37.1894 67.5492 36.2273 67.2386 35.3864C66.928 34.5455 66.4659 33.8864 65.8523 33.4091C65.2386 32.9318 64.4735 32.6932 63.5568 32.6932C62.678 32.6932 61.9318 32.9242 61.3182 33.3864C60.7045 33.8485 60.2386 34.4962 59.9205 35.3295C59.6098 36.1629 59.4545 37.1439 59.4545 38.2727ZM83.1222 47.3409C81.3722 47.3409 79.8608 46.9773 78.5881 46.25C77.3229 45.5152 76.3494 44.4773 75.6676 43.1364C74.9858 41.7879 74.6449 40.2008 74.6449 38.375C74.6449 36.5795 74.9858 35.0038 75.6676 33.6477C76.357 32.2841 77.3191 31.2235 78.554 30.4659C79.7888 29.7008 81.2396 29.3182 82.9062 29.3182C83.982 29.3182 84.9972 29.4924 85.9517 29.8409C86.9138 30.1818 87.7623 30.7121 88.4972 31.4318C89.2396 32.1515 89.8229 33.0682 90.2472 34.1818C90.6714 35.2879 90.8835 36.6061 90.8835 38.1364V39.3977H76.5767V36.625H86.9403C86.9328 35.8371 86.7623 35.1364 86.429 34.5227C86.0956 33.9015 85.6297 33.4129 85.0312 33.0568C84.4403 32.7008 83.7509 32.5227 82.9631 32.5227C82.1222 32.5227 81.3835 32.7273 80.7472 33.1364C80.1108 33.5379 79.6146 34.0682 79.2585 34.7273C78.91 35.3788 78.732 36.0947 78.7244 36.875V39.2955C78.7244 40.3106 78.91 41.1818 79.2812 41.9091C79.6525 42.6288 80.1714 43.1818 80.8381 43.5682C81.5047 43.947 82.285 44.1364 83.179 44.1364C83.7775 44.1364 84.3191 44.053 84.804 43.8864C85.2888 43.7121 85.7093 43.4583 86.0653 43.125C86.4214 42.7917 86.6903 42.3788 86.8722 41.8864L90.7131 42.3182C90.4706 43.3333 90.0085 44.2197 89.3267 44.9773C88.6525 45.7273 87.7888 46.3106 86.7358 46.7273C85.6828 47.1364 84.4782 47.3409 83.1222 47.3409ZM98.4773 23.7273V47H94.3636V23.7273H98.4773ZM107.73 47.3523C106.624 47.3523 105.628 47.1553 104.741 46.7614C103.863 46.3598 103.166 45.7689 102.651 44.9886C102.143 44.2083 101.889 43.2462 101.889 42.1023C101.889 41.1174 102.071 40.303 102.435 39.6591C102.798 39.0152 103.295 38.5 103.923 38.1136C104.552 37.7273 105.26 37.4356 106.048 37.2386C106.844 37.0341 107.666 36.8864 108.514 36.7955C109.537 36.6894 110.366 36.5947 111.003 36.5114C111.639 36.4205 112.101 36.2841 112.389 36.1023C112.685 35.9129 112.832 35.6212 112.832 35.2273V35.1591C112.832 34.303 112.579 33.6402 112.071 33.1705C111.563 32.7008 110.832 32.4659 109.878 32.4659C108.87 32.4659 108.071 32.6856 107.48 33.125C106.897 33.5644 106.503 34.0833 106.298 34.6818L102.457 34.1364C102.76 33.0758 103.26 32.1894 103.957 31.4773C104.654 30.7576 105.507 30.2197 106.514 29.8636C107.522 29.5 108.635 29.3182 109.855 29.3182C110.696 29.3182 111.533 29.4167 112.366 29.6136C113.2 29.8106 113.961 30.1364 114.651 30.5909C115.34 31.0379 115.893 31.6477 116.31 32.4205C116.734 33.1932 116.946 34.1591 116.946 35.3182V47H112.991V44.6023H112.855C112.605 45.0871 112.253 45.5417 111.798 45.9659C111.351 46.3826 110.787 46.7197 110.105 46.9773C109.431 47.2273 108.639 47.3523 107.73 47.3523ZM108.798 44.3295C109.624 44.3295 110.34 44.1667 110.946 43.8409C111.552 43.5076 112.018 43.0682 112.344 42.5227C112.677 41.9773 112.844 41.3826 112.844 40.7386V38.6818C112.715 38.7879 112.495 38.8864 112.185 38.9773C111.882 39.0682 111.541 39.1477 111.162 39.2159C110.783 39.2841 110.408 39.3447 110.037 39.3977C109.666 39.4508 109.344 39.4962 109.071 39.5341C108.457 39.6174 107.908 39.7538 107.423 39.9432C106.938 40.1326 106.556 40.3977 106.276 40.7386C105.995 41.072 105.855 41.5038 105.855 42.0341C105.855 42.7917 106.132 43.3636 106.685 43.75C107.238 44.1364 107.942 44.3295 108.798 44.3295ZM129.202 47V23.7273H137.929C139.717 23.7273 141.217 24.0606 142.429 24.7273C143.649 25.3939 144.569 26.3106 145.19 27.4773C145.819 28.6364 146.134 29.9545 146.134 31.4318C146.134 32.9242 145.819 34.25 145.19 35.4091C144.562 36.5682 143.634 37.4811 142.406 38.1477C141.179 38.8068 139.668 39.1364 137.872 39.1364H132.088V35.6705H137.304C138.349 35.6705 139.205 35.4886 139.872 35.125C140.539 34.7614 141.031 34.2614 141.349 33.625C141.675 32.9886 141.838 32.2576 141.838 31.4318C141.838 30.6061 141.675 29.8788 141.349 29.25C141.031 28.6212 140.535 28.1326 139.861 27.7841C139.194 27.428 138.334 27.25 137.281 27.25H133.418V47H129.202ZM157.091 47.3409C155.341 47.3409 153.83 46.9773 152.557 46.25C151.292 45.5152 150.318 44.4773 149.636 43.1364C148.955 41.7879 148.614 40.2008 148.614 38.375C148.614 36.5795 148.955 35.0038 149.636 33.6477C150.326 32.2841 151.288 31.2235 152.523 30.4659C153.758 29.7008 155.208 29.3182 156.875 29.3182C157.951 29.3182 158.966 29.4924 159.92 29.8409C160.883 30.1818 161.731 30.7121 162.466 31.4318C163.208 32.1515 163.792 33.0682 164.216 34.1818C164.64 35.2879 164.852 36.6061 164.852 38.1364V39.3977H150.545V36.625H160.909C160.902 35.8371 160.731 35.1364 160.398 34.5227C160.064 33.9015 159.598 33.4129 159 33.0568C158.409 32.7008 157.72 32.5227 156.932 32.5227C156.091 32.5227 155.352 32.7273 154.716 33.1364C154.08 33.5379 153.583 34.0682 153.227 34.7273C152.879 35.3788 152.701 36.0947 152.693 36.875V39.2955C152.693 40.3106 152.879 41.1818 153.25 41.9091C153.621 42.6288 154.14 43.1818 154.807 43.5682C155.473 43.947 156.254 44.1364 157.148 44.1364C157.746 44.1364 158.288 44.053 158.773 43.8864C159.258 43.7121 159.678 43.4583 160.034 43.125C160.39 42.7917 160.659 42.3788 160.841 41.8864L164.682 42.3182C164.439 43.3333 163.977 44.2197 163.295 44.9773C162.621 45.7273 161.758 46.3106 160.705 46.7273C159.652 47.1364 158.447 47.3409 157.091 47.3409ZM168.332 47V29.5455H172.321V32.4545H172.503C172.821 31.447 173.366 30.6705 174.139 30.125C174.92 29.572 175.81 29.2955 176.81 29.2955C177.037 29.2955 177.291 29.3068 177.571 29.3295C177.859 29.3447 178.098 29.3712 178.287 29.4091V33.1932C178.113 33.1326 177.836 33.0795 177.457 33.0341C177.086 32.9811 176.726 32.9545 176.378 32.9545C175.628 32.9545 174.954 33.1174 174.355 33.4432C173.764 33.7614 173.298 34.2045 172.957 34.7727C172.616 35.3409 172.446 35.9962 172.446 36.7386V47H168.332ZM181.02 47V29.5455H185.134V47H181.02ZM183.088 27.0682C182.437 27.0682 181.876 26.8523 181.406 26.4205C180.937 25.9811 180.702 25.4545 180.702 24.8409C180.702 24.2197 180.937 23.6932 181.406 23.2614C181.876 22.822 182.437 22.6023 183.088 22.6023C183.747 22.6023 184.308 22.822 184.77 23.2614C185.24 23.6932 185.474 24.2197 185.474 24.8409C185.474 25.4545 185.24 25.9811 184.77 26.4205C184.308 26.8523 183.747 27.0682 183.088 27.0682ZM196.977 47.3409C195.273 47.3409 193.795 46.9659 192.545 46.2159C191.295 45.4659 190.326 44.4167 189.636 43.0682C188.955 41.7197 188.614 40.1439 188.614 38.3409C188.614 36.5379 188.955 34.9583 189.636 33.6023C190.326 32.2462 191.295 31.1932 192.545 30.4432C193.795 29.6932 195.273 29.3182 196.977 29.3182C198.682 29.3182 200.159 29.6932 201.409 30.4432C202.659 31.1932 203.625 32.2462 204.307 33.6023C204.996 34.9583 205.341 36.5379 205.341 38.3409C205.341 40.1439 204.996 41.7197 204.307 43.0682C203.625 44.4167 202.659 45.4659 201.409 46.2159C200.159 46.9659 198.682 47.3409 196.977 47.3409ZM197 44.0455C197.924 44.0455 198.697 43.7917 199.318 43.2841C199.939 42.7689 200.402 42.0795 200.705 41.2159C201.015 40.3523 201.17 39.3902 201.17 38.3295C201.17 37.2614 201.015 36.2955 200.705 35.4318C200.402 34.5606 199.939 33.8674 199.318 33.3523C198.697 32.8371 197.924 32.5795 197 32.5795C196.053 32.5795 195.265 32.8371 194.636 33.3523C194.015 33.8674 193.549 34.5606 193.239 35.4318C192.936 36.2955 192.784 37.2614 192.784 38.3295C192.784 39.3902 192.936 40.3523 193.239 41.2159C193.549 42.0795 194.015 42.7689 194.636 43.2841C195.265 43.7917 196.053 44.0455 197 44.0455ZM195.398 27.25L197.943 22.0568H201.966L198.477 27.25H195.398ZM215.31 47.3068C213.938 47.3068 212.711 46.9545 211.628 46.25C210.545 45.5455 209.688 44.5227 209.06 43.1818C208.431 41.8409 208.116 40.2121 208.116 38.2955C208.116 36.3561 208.435 34.7197 209.071 33.3864C209.715 32.0455 210.582 31.0341 211.673 30.3523C212.764 29.6629 213.98 29.3182 215.321 29.3182C216.344 29.3182 217.185 29.4924 217.844 29.8409C218.503 30.1818 219.026 30.5947 219.412 31.0795C219.798 31.5568 220.098 32.0076 220.31 32.4318H220.48V23.7273H224.605V47H220.56V44.25H220.31C220.098 44.6742 219.791 45.125 219.389 45.6023C218.988 46.072 218.457 46.4735 217.798 46.8068C217.139 47.1402 216.31 47.3068 215.31 47.3068ZM216.457 43.9318C217.329 43.9318 218.071 43.697 218.685 43.2273C219.298 42.75 219.764 42.0871 220.082 41.2386C220.401 40.3902 220.56 39.4015 220.56 38.2727C220.56 37.1439 220.401 36.1629 220.082 35.3295C219.772 34.4962 219.31 33.8485 218.696 33.3864C218.09 32.9242 217.344 32.6932 216.457 32.6932C215.541 32.6932 214.776 32.9318 214.162 33.4091C213.548 33.8864 213.086 34.5455 212.776 35.3864C212.465 36.2273 212.31 37.1894 212.31 38.2727C212.31 39.3636 212.465 40.3371 212.776 41.1932C213.094 42.0417 213.56 42.7121 214.173 43.2045C214.795 43.6894 215.556 43.9318 216.457 43.9318ZM228.989 47V29.5455H233.102V47H228.989ZM231.057 27.0682C230.405 27.0682 229.845 26.8523 229.375 26.4205C228.905 25.9811 228.67 25.4545 228.67 24.8409C228.67 24.2197 228.905 23.6932 229.375 23.2614C229.845 22.822 230.405 22.6023 231.057 22.6023C231.716 22.6023 232.277 22.822 232.739 23.2614C233.208 23.6932 233.443 24.2197 233.443 24.8409C233.443 25.4545 233.208 25.9811 232.739 26.4205C232.277 26.8523 231.716 27.0682 231.057 27.0682ZM244.946 47.3409C243.204 47.3409 241.707 46.9583 240.457 46.1932C239.215 45.428 238.257 44.3712 237.582 43.0227C236.916 41.6667 236.582 40.1061 236.582 38.3409C236.582 36.5682 236.923 35.0038 237.605 33.6477C238.287 32.2841 239.249 31.2235 240.491 30.4659C241.741 29.7008 243.219 29.3182 244.923 29.3182C246.34 29.3182 247.594 29.5795 248.685 30.1023C249.783 30.6174 250.658 31.3485 251.31 32.2955C251.961 33.2348 252.332 34.3333 252.423 35.5909H248.491C248.332 34.75 247.954 34.0492 247.355 33.4886C246.764 32.9205 245.973 32.6364 244.98 32.6364C244.139 32.6364 243.401 32.8636 242.764 33.3182C242.128 33.7652 241.632 34.4091 241.276 35.25C240.927 36.0909 240.753 37.0985 240.753 38.2727C240.753 39.4621 240.927 40.4848 241.276 41.3409C241.624 42.1894 242.113 42.8447 242.741 43.3068C243.378 43.7614 244.124 43.9886 244.98 43.9886C245.586 43.9886 246.128 43.875 246.605 43.6477C247.09 43.4129 247.495 43.0758 247.821 42.6364C248.147 42.197 248.37 41.6629 248.491 41.0341H252.423C252.325 42.2689 251.961 43.3636 251.332 44.3182C250.704 45.2652 249.848 46.0076 248.764 46.5455C247.681 47.0758 246.408 47.3409 244.946 47.3409ZM260.824 47.3523C259.718 47.3523 258.722 47.1553 257.835 46.7614C256.956 46.3598 256.259 45.7689 255.744 44.9886C255.237 44.2083 254.983 43.2462 254.983 42.1023C254.983 41.1174 255.165 40.303 255.528 39.6591C255.892 39.0152 256.388 38.5 257.017 38.1136C257.646 37.7273 258.354 37.4356 259.142 37.2386C259.938 37.0341 260.759 36.8864 261.608 36.7955C262.631 36.6894 263.46 36.5947 264.097 36.5114C264.733 36.4205 265.195 36.2841 265.483 36.1023C265.778 35.9129 265.926 35.6212 265.926 35.2273V35.1591C265.926 34.303 265.672 33.6402 265.165 33.1705C264.657 32.7008 263.926 32.4659 262.972 32.4659C261.964 32.4659 261.165 32.6856 260.574 33.125C259.991 33.5644 259.597 34.0833 259.392 34.6818L255.551 34.1364C255.854 33.0758 256.354 32.1894 257.051 31.4773C257.748 30.7576 258.6 30.2197 259.608 29.8636C260.616 29.5 261.729 29.3182 262.949 29.3182C263.79 29.3182 264.627 29.4167 265.46 29.6136C266.294 29.8106 267.055 30.1364 267.744 30.5909C268.434 31.0379 268.987 31.6477 269.403 32.4205C269.828 33.1932 270.04 34.1591 270.04 35.3182V47H266.085V44.6023H265.949C265.699 45.0871 265.347 45.5417 264.892 45.9659C264.445 46.3826 263.881 46.7197 263.199 46.9773C262.525 47.2273 261.733 47.3523 260.824 47.3523ZM261.892 44.3295C262.718 44.3295 263.434 44.1667 264.04 43.8409C264.646 43.5076 265.112 43.0682 265.438 42.5227C265.771 41.9773 265.938 41.3826 265.938 40.7386V38.6818C265.809 38.7879 265.589 38.8864 265.278 38.9773C264.975 39.0682 264.634 39.1477 264.256 39.2159C263.877 39.2841 263.502 39.3447 263.131 39.3977C262.759 39.4508 262.438 39.4962 262.165 39.5341C261.551 39.6174 261.002 39.7538 260.517 39.9432C260.032 40.1326 259.65 40.3977 259.369 40.7386C259.089 41.072 258.949 41.5038 258.949 42.0341C258.949 42.7917 259.225 43.3636 259.778 43.75C260.331 44.1364 261.036 44.3295 261.892 44.3295Z" fill="#B06826"/>
<path fill-rule="evenodd" clip-rule="evenodd" d="M21.8334 113.667C19.5322 113.667 17.6667 115.532 17.6667 117.833V126.167C17.6667 128.468 19.5322 130.333 21.8334 130.333H30.1667C32.4679 130.333 34.3334 128.468 34.3334 126.167V117.833C34.3334 115.532 32.4679 113.667 30.1667 113.667H21.8334ZM27.1209 118.222C26.6623 117.293 25.3375 117.293 24.879 118.222L24.222 119.553L22.7529 119.766C21.7276 119.915 21.3182 121.175 22.0601 121.899L23.1232 122.935L22.8722 124.398C22.6971 125.419 23.7689 126.198 24.6859 125.716L25.9999 125.025L27.314 125.716C28.231 126.198 29.3028 125.419 29.1277 124.398L28.8767 122.935L29.9398 121.899C30.6817 121.175 30.2723 119.915 29.247 119.766L27.7779 119.553L27.1209 118.222Z" fill="#B06826"/>
<path d="M43.6044 118.727V126H42.2869V120.009H42.2443L40.5433 121.096V119.888L42.3509 118.727H43.6044ZM48.4091 118.727V126H47.0916V120.009H47.049L45.348 121.096V119.888L47.1555 118.727H48.4091ZM52.8409 126.099C52.313 126.099 51.8442 126.011 51.4347 125.833C51.0275 125.656 50.7079 125.413 50.4759 125.105C50.2462 124.795 50.1326 124.443 50.1349 124.05C50.1326 123.745 50.1989 123.464 50.3338 123.209C50.4688 122.953 50.651 122.74 50.8807 122.57C51.1127 122.397 51.3707 122.287 51.6548 122.239V122.19C51.2808 122.107 50.9777 121.916 50.7457 121.618C50.5161 121.317 50.4025 120.97 50.4048 120.577C50.4025 120.203 50.5066 119.87 50.7173 119.576C50.928 119.282 51.2169 119.052 51.5838 118.884C51.9508 118.713 52.3698 118.628 52.8409 118.628C53.3073 118.628 53.7228 118.713 54.0874 118.884C54.4543 119.052 54.7431 119.282 54.9538 119.576C55.1669 119.87 55.2734 120.203 55.2734 120.577C55.2734 120.97 55.1562 121.317 54.9219 121.618C54.6899 121.916 54.3904 122.107 54.0234 122.19V122.239C54.3075 122.287 54.5632 122.397 54.7905 122.57C55.0201 122.74 55.2024 122.953 55.3374 123.209C55.4747 123.464 55.5433 123.745 55.5433 124.05C55.5433 124.443 55.4273 124.795 55.1953 125.105C54.9633 125.413 54.6437 125.656 54.2365 125.833C53.8317 126.011 53.3665 126.099 52.8409 126.099ZM52.8409 125.084C53.1132 125.084 53.3499 125.038 53.5511 124.945C53.7524 124.851 53.9086 124.718 54.0199 124.548C54.1312 124.377 54.188 124.181 54.1903 123.958C54.188 123.726 54.1276 123.521 54.0092 123.344C53.8932 123.164 53.7334 123.023 53.5298 122.921C53.3286 122.819 53.099 122.768 52.8409 122.768C52.5805 122.768 52.3485 122.819 52.1449 122.921C51.9413 123.023 51.7803 123.164 51.6619 123.344C51.5459 123.521 51.4891 123.726 51.4915 123.958C51.4891 124.181 51.5436 124.377 51.6548 124.548C51.7661 124.716 51.9223 124.847 52.1236 124.942C52.3272 125.036 52.5663 125.084 52.8409 125.084ZM52.8409 121.771C53.0634 121.771 53.2599 121.726 53.4304 121.636C53.6032 121.546 53.7393 121.42 53.8388 121.259C53.9382 121.098 53.9891 120.912 53.9915 120.702C53.9891 120.493 53.9394 120.311 53.8423 120.155C53.7453 119.996 53.6103 119.874 53.4375 119.789C53.2647 119.701 53.0658 119.658 52.8409 119.658C52.6113 119.658 52.4089 119.701 52.2337 119.789C52.0608 119.874 51.9259 119.996 51.8288 120.155C51.7341 120.311 51.688 120.493 51.6903 120.702C51.688 120.912 51.7353 121.098 51.8324 121.259C51.9318 121.418 52.0679 121.543 52.2408 121.636C52.416 121.726 52.616 121.771 52.8409 121.771Z" fill="black" fill-opacity="0.45"/>
<rect x="266" y="100" width="44" height="44" rx="15" fill="#B06826"/>
<path fill-rule="evenodd" clip-rule="evenodd" d="M289.293 114.293C289.683 113.902 290.317 113.902 290.707 114.293L297.707 121.293C298.098 121.683 298.098 122.317 297.707 122.707L290.707 129.707C290.317 130.098 289.683 130.098 289.293 129.707C288.902 129.317 288.902 128.683 289.293 128.293L294.586 123H279C278.448 123 278 122.552 278 122C278 121.448 278.448 121 279 121H294.586L289.293 115.707C288.902 115.317 288.902 114.683 289.293 114.293Z" fill="#EFD0B4"/>
</svg>
