<svg width="326" height="160" viewBox="0 0 326 160" fill="none" xmlns="http://www.w3.org/2000/svg">
<rect width="326" height="160" rx="32" fill="#EFD0B4"/>
<path d="M22.5114 23.7273V47H18.2955V23.7273H22.5114ZM27.0767 47V23.7273H35.804C37.5919 23.7273 39.0919 24.0606 40.304 24.7273C41.5237 25.3939 42.4441 26.3106 43.0653 27.4773C43.6941 28.6364 44.0085 29.9545 44.0085 31.4318C44.0085 32.9242 43.6941 34.25 43.0653 35.4091C42.4366 36.5682 41.5085 37.4811 40.2812 38.1477C39.054 38.8068 37.5426 39.1364 35.7472 39.1364H29.9631V35.6705H35.179C36.2244 35.6705 37.0805 35.4886 37.7472 35.125C38.4138 34.7614 38.9063 34.2614 39.2244 33.625C39.5502 32.9886 39.7131 32.2576 39.7131 31.4318C39.7131 30.6061 39.5502 29.8788 39.2244 29.25C38.9063 28.6212 38.41 28.1326 37.7358 27.7841C37.0691 27.428 36.2093 27.25 35.1562 27.25H31.2926V47H27.0767ZM50.7841 23.7273L56.8409 42.0455H57.0795L63.125 23.7273H67.7614L59.5568 47H54.3523L46.1591 23.7273H50.7841ZM69.0852 42.6818V39.3295L78.9602 23.7273H81.7557V28.5H80.0511L73.4034 39.0341V39.2159H87.1875V42.6818H69.0852ZM80.1875 47V41.6591L80.233 40.1591V23.7273H84.2102V47H80.1875ZM105.756 47.3409C104.165 47.3409 102.797 47.053 101.653 46.4773C100.509 45.9015 99.6269 45.125 99.0057 44.1477C98.392 43.1629 98.0852 42.053 98.0852 40.8182C98.0852 39.8864 98.2746 39.0606 98.6534 38.3409C99.0398 37.6212 99.5701 36.9545 100.244 36.3409C100.926 35.7273 101.714 35.1174 102.608 34.5114L106.733 31.7045C107.339 31.3106 107.797 30.8939 108.108 30.4545C108.426 30.0152 108.585 29.5 108.585 28.9091C108.585 28.4091 108.373 27.9356 107.949 27.4886C107.532 27.0417 106.956 26.8182 106.222 26.8182C105.729 26.8182 105.294 26.9356 104.915 27.1705C104.544 27.3977 104.252 27.697 104.04 28.0682C103.835 28.4394 103.733 28.8333 103.733 29.25C103.733 29.7576 103.873 30.2727 104.153 30.7955C104.441 31.3182 104.813 31.8598 105.267 32.4205C105.729 32.9811 106.222 33.5758 106.744 34.2045L117.665 47H113.21L104.142 36.6136C103.468 35.8258 102.816 35.0492 102.188 34.2841C101.566 33.5189 101.055 32.7235 100.653 31.8977C100.259 31.0644 100.062 30.1629 100.062 29.1932C100.062 28.0947 100.316 27.1136 100.824 26.25C101.331 25.3788 102.04 24.6932 102.949 24.1932C103.866 23.6932 104.938 23.4432 106.165 23.4432C107.392 23.4432 108.445 23.6856 109.324 24.1705C110.203 24.6553 110.881 25.2992 111.358 26.1023C111.835 26.9053 112.074 27.7803 112.074 28.7273C112.074 29.8258 111.801 30.8106 111.256 31.6818C110.71 32.5455 109.953 33.3295 108.983 34.0341L104.278 37.4773C103.506 38.0379 102.953 38.6061 102.619 39.1818C102.286 39.75 102.119 40.2348 102.119 40.6364C102.119 41.25 102.275 41.8068 102.585 42.3068C102.896 42.8068 103.331 43.2083 103.892 43.5114C104.46 43.8068 105.123 43.9545 105.881 43.9545C106.714 43.9545 107.536 43.7689 108.347 43.3977C109.157 43.0189 109.896 42.4811 110.562 41.7841C111.229 41.0871 111.759 40.2538 112.153 39.2841C112.547 38.3068 112.744 37.2235 112.744 36.0341H116.278C116.278 37.5038 116.116 38.7841 115.79 39.875C115.464 40.9583 115.044 41.875 114.528 42.625C114.013 43.3674 113.468 43.9621 112.892 44.4091C112.71 44.5379 112.536 44.6667 112.369 44.7955C112.203 44.9242 112.028 45.053 111.847 45.1818C111.028 45.9242 110.07 46.4697 108.972 46.8182C107.881 47.1667 106.809 47.3409 105.756 47.3409ZM132.355 23.7273V47H128.139V23.7273H132.355ZM136.92 47V23.7273H145.648C147.436 23.7273 148.936 24.0606 150.148 24.7273C151.367 25.3939 152.288 26.3106 152.909 27.4773C153.538 28.6364 153.852 29.9545 153.852 31.4318C153.852 32.9242 153.538 34.25 152.909 35.4091C152.28 36.5682 151.352 37.4811 150.125 38.1477C148.898 38.8068 147.386 39.1364 145.591 39.1364H139.807V35.6705H145.023C146.068 35.6705 146.924 35.4886 147.591 35.125C148.258 34.7614 148.75 34.2614 149.068 33.625C149.394 32.9886 149.557 32.2576 149.557 31.4318C149.557 30.6061 149.394 29.8788 149.068 29.25C148.75 28.6212 148.254 28.1326 147.58 27.7841C146.913 27.428 146.053 27.25 145 27.25H141.136V47H136.92ZM160.628 23.7273L166.685 42.0455H166.923L172.969 23.7273H177.605L169.401 47H164.196L156.003 23.7273H160.628ZM188.966 47.3182C187.852 47.3106 186.765 47.1174 185.705 46.7386C184.644 46.3523 183.689 45.7273 182.841 44.8636C181.992 43.9924 181.318 42.8371 180.818 41.3977C180.318 39.9508 180.072 38.1591 180.08 36.0227C180.08 34.0303 180.292 32.2538 180.716 30.6932C181.14 29.1326 181.75 27.8144 182.545 26.7386C183.341 25.6553 184.299 24.8295 185.42 24.2614C186.549 23.6932 187.811 23.4091 189.205 23.4091C190.667 23.4091 191.962 23.697 193.091 24.2727C194.227 24.8485 195.144 25.6364 195.841 26.6364C196.538 27.6288 196.97 28.75 197.136 30H192.989C192.777 29.1061 192.341 28.3939 191.682 27.8636C191.03 27.3258 190.205 27.0568 189.205 27.0568C187.591 27.0568 186.348 27.7576 185.477 29.1591C184.614 30.5606 184.178 32.4848 184.17 34.9318H184.33C184.701 34.2652 185.182 33.6932 185.773 33.2159C186.364 32.7386 187.03 32.3712 187.773 32.1136C188.523 31.8485 189.314 31.7159 190.148 31.7159C191.511 31.7159 192.735 32.0417 193.818 32.6932C194.909 33.3447 195.773 34.2424 196.409 35.3864C197.045 36.5227 197.36 37.8258 197.352 39.2955C197.36 40.8258 197.011 42.2008 196.307 43.4205C195.602 44.6326 194.621 45.5871 193.364 46.2841C192.106 46.9811 190.64 47.3258 188.966 47.3182ZM188.943 43.9091C189.769 43.9091 190.508 43.7083 191.159 43.3068C191.811 42.9053 192.326 42.3636 192.705 41.6818C193.083 41 193.269 40.2348 193.261 39.3864C193.269 38.553 193.087 37.7992 192.716 37.125C192.352 36.4508 191.848 35.9167 191.205 35.5227C190.561 35.1288 189.826 34.9318 189 34.9318C188.386 34.9318 187.814 35.0492 187.284 35.2841C186.754 35.5189 186.292 35.8447 185.898 36.2614C185.504 36.6705 185.193 37.1477 184.966 37.6932C184.746 38.2311 184.633 38.8068 184.625 39.4205C184.633 40.2311 184.822 40.9773 185.193 41.6591C185.564 42.3409 186.076 42.8864 186.727 43.2955C187.379 43.7045 188.117 43.9091 188.943 43.9091Z" fill="#B06826"/>
<path fill-rule="evenodd" clip-rule="evenodd" d="M21.8334 113.667C19.5322 113.667 17.6667 115.532 17.6667 117.833V126.167C17.6667 128.468 19.5322 130.333 21.8334 130.333H30.1667C32.4679 130.333 34.3334 128.468 34.3334 126.167V117.833C34.3334 115.532 32.4679 113.667 30.1667 113.667H21.8334ZM27.1208 118.222C26.6623 117.293 25.3375 117.293 24.879 118.222L24.2219 119.553L22.7528 119.766C21.7275 119.915 21.3181 121.175 22.06 121.899L23.1231 122.935L22.8721 124.398C22.697 125.419 23.7688 126.198 24.6858 125.716L25.9999 125.025L27.3139 125.716C28.2309 126.198 29.3027 125.419 29.1276 124.398L28.8766 122.935L29.9397 121.899C30.6816 121.175 30.2722 119.915 29.247 119.766L27.7778 119.553L27.1208 118.222Z" fill="#B06826"/>
<path d="M43.6044 118.727V126H42.2869V120.009H42.2443L40.5433 121.096V119.888L42.3509 118.727H43.6044ZM47.9794 126.099C47.5059 126.099 47.0821 126.011 46.7081 125.833C46.334 125.653 46.0369 125.407 45.8168 125.094C45.599 124.782 45.483 124.424 45.4688 124.022H46.7472C46.7708 124.32 46.8999 124.564 47.1342 124.754C47.3686 124.941 47.6503 125.034 47.9794 125.034C48.2375 125.034 48.4671 124.975 48.6683 124.857C48.8696 124.738 49.0282 124.574 49.1442 124.363C49.2602 124.152 49.317 123.912 49.3146 123.642C49.317 123.367 49.259 123.124 49.1406 122.911C49.0223 122.697 48.8601 122.531 48.6541 122.41C48.4482 122.287 48.2114 122.225 47.9439 122.225C47.7261 122.223 47.5118 122.263 47.3011 122.346C47.0904 122.429 46.9235 122.538 46.8004 122.673L45.6108 122.477L45.9908 118.727H50.2095V119.828H47.081L46.8714 121.756H46.9141C47.049 121.598 47.2396 121.466 47.4858 121.362C47.732 121.256 48.0019 121.202 48.2955 121.202C48.7358 121.202 49.1288 121.307 49.4744 121.515C49.8201 121.721 50.0923 122.005 50.2912 122.367C50.4901 122.729 50.5895 123.144 50.5895 123.61C50.5895 124.091 50.4782 124.519 50.2557 124.896C50.0355 125.27 49.7289 125.564 49.3359 125.78C48.9453 125.993 48.4931 126.099 47.9794 126.099Z" fill="black" fill-opacity="0.45"/>
<rect x="266" y="100" width="44" height="44" rx="15" fill="#B06826"/>
<path fill-rule="evenodd" clip-rule="evenodd" d="M289.293 114.293C289.683 113.902 290.317 113.902 290.707 114.293L297.707 121.293C298.098 121.683 298.098 122.317 297.707 122.707L290.707 129.707C290.317 130.098 289.683 130.098 289.293 129.707C288.902 129.317 288.902 128.683 289.293 128.293L294.586 123H279C278.448 123 278 122.552 278 122C278 121.448 278.448 121 279 121H294.586L289.293 115.707C288.902 115.317 288.902 114.683 289.293 114.293Z" fill="#EFD0B4"/>
</svg>
