<svg width="326" height="160" viewBox="0 0 326 160" fill="none" xmlns="http://www.w3.org/2000/svg">
<rect width="326" height="160" rx="32" fill="#E6B4B2"/>
<path d="M17.2727 27.2614V23.7273H35.8409V27.2614H28.6477V47H24.4659V27.2614H17.2727ZM44.4347 47.3409C42.6847 47.3409 41.1733 46.9773 39.9006 46.25C38.6354 45.5152 37.6619 44.4773 36.9801 43.1364C36.2983 41.7879 35.9574 40.2008 35.9574 38.375C35.9574 36.5795 36.2983 35.0038 36.9801 33.6477C37.6695 32.2841 38.6316 31.2235 39.8665 30.4659C41.1013 29.7008 42.5521 29.3182 44.2188 29.3182C45.2945 29.3182 46.3097 29.4924 47.2642 29.8409C48.2263 30.1818 49.0748 30.7121 49.8097 31.4318C50.5521 32.1515 51.1354 33.0682 51.5597 34.1818C51.9839 35.2879 52.196 36.6061 52.196 38.1364V39.3977H37.8892V36.625H48.2528C48.2453 35.8371 48.0748 35.1364 47.7415 34.5227C47.4081 33.9015 46.9422 33.4129 46.3438 33.0568C45.7528 32.7008 45.0634 32.5227 44.2756 32.5227C43.4347 32.5227 42.696 32.7273 42.0597 33.1364C41.4233 33.5379 40.9271 34.0682 40.571 34.7273C40.2225 35.3788 40.0445 36.0947 40.0369 36.875V39.2955C40.0369 40.3106 40.2225 41.1818 40.5938 41.9091C40.965 42.6288 41.4839 43.1818 42.1506 43.5682C42.8172 43.947 43.5975 44.1364 44.4915 44.1364C45.09 44.1364 45.6316 44.053 46.1165 43.8864C46.6013 43.7121 47.0218 43.4583 47.3778 43.125C47.7339 42.7917 48.0028 42.3788 48.1847 41.8864L52.0256 42.3182C51.7831 43.3333 51.321 44.2197 50.6392 44.9773C49.965 45.7273 49.1013 46.3106 48.0483 46.7273C46.9953 47.1364 45.7907 47.3409 44.4347 47.3409ZM55.6761 47V29.5455H59.6648V32.4545H59.8466C60.1648 31.447 60.7102 30.6705 61.483 30.125C62.2633 29.572 63.1534 29.2955 64.1534 29.2955C64.3807 29.2955 64.6345 29.3068 64.9148 29.3295C65.2027 29.3447 65.4413 29.3712 65.6307 29.4091V33.1932C65.4564 33.1326 65.1799 33.0795 64.8011 33.0341C64.4299 32.9811 64.0701 32.9545 63.7216 32.9545C62.9716 32.9545 62.2973 33.1174 61.6989 33.4432C61.108 33.7614 60.642 34.2045 60.3011 34.7727C59.9602 35.3409 59.7898 35.9962 59.7898 36.7386V47H55.6761ZM68.3636 47V29.5455H72.2955V32.5114H72.5C72.8636 31.5114 73.4659 30.7311 74.3068 30.1705C75.1477 29.6023 76.1515 29.3182 77.3182 29.3182C78.5 29.3182 79.4962 29.6061 80.3068 30.1818C81.125 30.75 81.7008 31.5265 82.0341 32.5114H82.2159C82.6023 31.5417 83.2538 30.7689 84.1705 30.1932C85.0947 29.6098 86.1894 29.3182 87.4545 29.3182C89.0606 29.3182 90.3712 29.8258 91.3864 30.8409C92.4015 31.8561 92.9091 33.3371 92.9091 35.2841V47H88.7841V35.9205C88.7841 34.8371 88.4962 34.0455 87.9205 33.5455C87.3447 33.0379 86.6402 32.7841 85.8068 32.7841C84.8144 32.7841 84.0379 33.0947 83.4773 33.7159C82.9242 34.3295 82.6477 35.1288 82.6477 36.1136V47H78.6136V35.75C78.6136 34.8485 78.3409 34.1288 77.7955 33.5909C77.2576 33.053 76.553 32.7841 75.6818 32.7841C75.0909 32.7841 74.553 32.9356 74.0682 33.2386C73.5833 33.5341 73.197 33.9545 72.9091 34.5C72.6212 35.0379 72.4773 35.6667 72.4773 36.3864V47H68.3636ZM104.696 47.3409C102.991 47.3409 101.514 46.9659 100.264 46.2159C99.0142 45.4659 98.0445 44.4167 97.3551 43.0682C96.6733 41.7197 96.3324 40.1439 96.3324 38.3409C96.3324 36.5379 96.6733 34.9583 97.3551 33.6023C98.0445 32.2462 99.0142 31.1932 100.264 30.4432C101.514 29.6932 102.991 29.3182 104.696 29.3182C106.401 29.3182 107.878 29.6932 109.128 30.4432C110.378 31.1932 111.344 32.2462 112.026 33.6023C112.715 34.9583 113.06 36.5379 113.06 38.3409C113.06 40.1439 112.715 41.7197 112.026 43.0682C111.344 44.4167 110.378 45.4659 109.128 46.2159C107.878 46.9659 106.401 47.3409 104.696 47.3409ZM104.719 44.0455C105.643 44.0455 106.416 43.7917 107.037 43.2841C107.658 42.7689 108.12 42.0795 108.423 41.2159C108.734 40.3523 108.889 39.3902 108.889 38.3295C108.889 37.2614 108.734 36.2955 108.423 35.4318C108.12 34.5606 107.658 33.8674 107.037 33.3523C106.416 32.8371 105.643 32.5795 104.719 32.5795C103.772 32.5795 102.984 32.8371 102.355 33.3523C101.734 33.8674 101.268 34.5606 100.957 35.4318C100.654 36.2955 100.503 37.2614 100.503 38.3295C100.503 39.3902 100.654 40.3523 100.957 41.2159C101.268 42.0795 101.734 42.7689 102.355 43.2841C102.984 43.7917 103.772 44.0455 104.719 44.0455ZM123.028 47.3068C121.657 47.3068 120.43 46.9545 119.347 46.25C118.263 45.5455 117.407 44.5227 116.778 43.1818C116.15 41.8409 115.835 40.2121 115.835 38.2955C115.835 36.3561 116.153 34.7197 116.79 33.3864C117.434 32.0455 118.301 31.0341 119.392 30.3523C120.483 29.6629 121.699 29.3182 123.04 29.3182C124.063 29.3182 124.903 29.4924 125.562 29.8409C126.222 30.1818 126.744 30.5947 127.131 31.0795C127.517 31.5568 127.816 32.0076 128.028 32.4318H128.199V23.7273H132.324V47H128.278V44.25H128.028C127.816 44.6742 127.509 45.125 127.108 45.6023C126.706 46.072 126.176 46.4735 125.517 46.8068C124.858 47.1402 124.028 47.3068 123.028 47.3068ZM124.176 43.9318C125.047 43.9318 125.79 43.697 126.403 43.2273C127.017 42.75 127.483 42.0871 127.801 41.2386C128.119 40.3902 128.278 39.4015 128.278 38.2727C128.278 37.1439 128.119 36.1629 127.801 35.3295C127.491 34.4962 127.028 33.8485 126.415 33.3864C125.809 32.9242 125.063 32.6932 124.176 32.6932C123.259 32.6932 122.494 32.9318 121.881 33.4091C121.267 33.8864 120.805 34.5455 120.494 35.3864C120.184 36.2273 120.028 37.1894 120.028 38.2727C120.028 39.3636 120.184 40.3371 120.494 41.1932C120.813 42.0417 121.278 42.7121 121.892 43.2045C122.513 43.6894 123.275 43.9318 124.176 43.9318ZM136.707 47V29.5455H140.821V47H136.707ZM138.776 27.0682C138.124 27.0682 137.563 26.8523 137.094 26.4205C136.624 25.9811 136.389 25.4545 136.389 24.8409C136.389 24.2197 136.624 23.6932 137.094 23.2614C137.563 22.822 138.124 22.6023 138.776 22.6023C139.435 22.6023 139.995 22.822 140.457 23.2614C140.927 23.6932 141.162 24.2197 141.162 24.8409C141.162 25.4545 140.927 25.9811 140.457 26.4205C139.995 26.8523 139.435 27.0682 138.776 27.0682ZM149.165 36.7727V47H145.051V29.5455H148.983V32.5114H149.188C149.589 31.5341 150.229 30.7576 151.108 30.1818C151.994 29.6061 153.089 29.3182 154.392 29.3182C155.597 29.3182 156.646 29.5758 157.54 30.0909C158.441 30.6061 159.138 31.3523 159.631 32.3295C160.131 33.3068 160.377 34.4924 160.369 35.8864V47H156.256V36.5227C156.256 35.3561 155.953 34.4432 155.347 33.7841C154.748 33.125 153.919 32.7955 152.858 32.7955C152.138 32.7955 151.498 32.9545 150.938 33.2727C150.384 33.5833 149.949 34.0341 149.631 34.625C149.32 35.2159 149.165 35.9318 149.165 36.7727ZM169.574 47.3523C168.468 47.3523 167.472 47.1553 166.585 46.7614C165.706 46.3598 165.009 45.7689 164.494 44.9886C163.987 44.2083 163.733 43.2462 163.733 42.1023C163.733 41.1174 163.915 40.303 164.278 39.6591C164.642 39.0152 165.138 38.5 165.767 38.1136C166.396 37.7273 167.104 37.4356 167.892 37.2386C168.688 37.0341 169.509 36.8864 170.358 36.7955C171.381 36.6894 172.21 36.5947 172.847 36.5114C173.483 36.4205 173.945 36.2841 174.233 36.1023C174.528 35.9129 174.676 35.6212 174.676 35.2273V35.1591C174.676 34.303 174.422 33.6402 173.915 33.1705C173.407 32.7008 172.676 32.4659 171.722 32.4659C170.714 32.4659 169.915 32.6856 169.324 33.125C168.741 33.5644 168.347 34.0833 168.142 34.6818L164.301 34.1364C164.604 33.0758 165.104 32.1894 165.801 31.4773C166.498 30.7576 167.35 30.2197 168.358 29.8636C169.366 29.5 170.479 29.3182 171.699 29.3182C172.54 29.3182 173.377 29.4167 174.21 29.6136C175.044 29.8106 175.805 30.1364 176.494 30.5909C177.184 31.0379 177.737 31.6477 178.153 32.4205C178.578 33.1932 178.79 34.1591 178.79 35.3182V47H174.835V44.6023H174.699C174.449 45.0871 174.097 45.5417 173.642 45.9659C173.195 46.3826 172.631 46.7197 171.949 46.9773C171.275 47.2273 170.483 47.3523 169.574 47.3523ZM170.642 44.3295C171.468 44.3295 172.184 44.1667 172.79 43.8409C173.396 43.5076 173.862 43.0682 174.188 42.5227C174.521 41.9773 174.688 41.3826 174.688 40.7386V38.6818C174.559 38.7879 174.339 38.8864 174.028 38.9773C173.725 39.0682 173.384 39.1477 173.006 39.2159C172.627 39.2841 172.252 39.3447 171.881 39.3977C171.509 39.4508 171.188 39.4962 170.915 39.5341C170.301 39.6174 169.752 39.7538 169.267 39.9432C168.782 40.1326 168.4 40.3977 168.119 40.7386C167.839 41.072 167.699 41.5038 167.699 42.0341C167.699 42.7917 167.975 43.3636 168.528 43.75C169.081 44.1364 169.786 44.3295 170.642 44.3295ZM174.188 27.4545L171.881 24.5455L169.574 27.4545H165.972V27.2955L170.278 22.3864H173.494L177.79 27.2955V27.4545H174.188ZM182.926 47V29.5455H186.858V32.5114H187.062C187.426 31.5114 188.028 30.7311 188.869 30.1705C189.71 29.6023 190.714 29.3182 191.881 29.3182C193.062 29.3182 194.059 29.6061 194.869 30.1818C195.688 30.75 196.263 31.5265 196.597 32.5114H196.778C197.165 31.5417 197.816 30.7689 198.733 30.1932C199.657 29.6098 200.752 29.3182 202.017 29.3182C203.623 29.3182 204.934 29.8258 205.949 30.8409C206.964 31.8561 207.472 33.3371 207.472 35.2841V47H203.347V35.9205C203.347 34.8371 203.059 34.0455 202.483 33.5455C201.907 33.0379 201.203 32.7841 200.369 32.7841C199.377 32.7841 198.6 33.0947 198.04 33.7159C197.487 34.3295 197.21 35.1288 197.21 36.1136V47H193.176V35.75C193.176 34.8485 192.903 34.1288 192.358 33.5909C191.82 33.053 191.116 32.7841 190.244 32.7841C189.653 32.7841 189.116 32.9356 188.631 33.2386C188.146 33.5341 187.759 33.9545 187.472 34.5C187.184 35.0379 187.04 35.6667 187.04 36.3864V47H182.926ZM211.645 47V29.5455H215.759V47H211.645ZM213.713 27.0682C213.062 27.0682 212.501 26.8523 212.031 26.4205C211.562 25.9811 211.327 25.4545 211.327 24.8409C211.327 24.2197 211.562 23.6932 212.031 23.2614C212.501 22.822 213.062 22.6023 213.713 22.6023C214.372 22.6023 214.933 22.822 215.395 23.2614C215.865 23.6932 216.099 24.2197 216.099 24.8409C216.099 25.4545 215.865 25.9811 215.395 26.4205C214.933 26.8523 214.372 27.0682 213.713 27.0682ZM227.602 47.3409C225.86 47.3409 224.364 46.9583 223.114 46.1932C221.871 45.428 220.913 44.3712 220.239 43.0227C219.572 41.6667 219.239 40.1061 219.239 38.3409C219.239 36.5682 219.58 35.0038 220.261 33.6477C220.943 32.2841 221.905 31.2235 223.148 30.4659C224.398 29.7008 225.875 29.3182 227.58 29.3182C228.996 29.3182 230.25 29.5795 231.341 30.1023C232.439 30.6174 233.314 31.3485 233.966 32.2955C234.617 33.2348 234.989 34.3333 235.08 35.5909H231.148C230.989 34.75 230.61 34.0492 230.011 33.4886C229.42 32.9205 228.629 32.6364 227.636 32.6364C226.795 32.6364 226.057 32.8636 225.42 33.3182C224.784 33.7652 224.288 34.4091 223.932 35.25C223.583 36.0909 223.409 37.0985 223.409 38.2727C223.409 39.4621 223.583 40.4848 223.932 41.3409C224.28 42.1894 224.769 42.8447 225.398 43.3068C226.034 43.7614 226.78 43.9886 227.636 43.9886C228.242 43.9886 228.784 43.875 229.261 43.6477C229.746 43.4129 230.152 43.0758 230.477 42.6364C230.803 42.197 231.027 41.6629 231.148 41.0341H235.08C234.981 42.2689 234.617 43.3636 233.989 44.3182C233.36 45.2652 232.504 46.0076 231.42 46.5455C230.337 47.0758 229.064 47.3409 227.602 47.3409ZM243.48 47.3523C242.374 47.3523 241.378 47.1553 240.491 46.7614C239.613 46.3598 238.916 45.7689 238.401 44.9886C237.893 44.2083 237.639 43.2462 237.639 42.1023C237.639 41.1174 237.821 40.303 238.185 39.6591C238.548 39.0152 239.045 38.5 239.673 38.1136C240.302 37.7273 241.01 37.4356 241.798 37.2386C242.594 37.0341 243.416 36.8864 244.264 36.7955C245.287 36.6894 246.116 36.5947 246.753 36.5114C247.389 36.4205 247.851 36.2841 248.139 36.1023C248.435 35.9129 248.582 35.6212 248.582 35.2273V35.1591C248.582 34.303 248.329 33.6402 247.821 33.1705C247.313 32.7008 246.582 32.4659 245.628 32.4659C244.62 32.4659 243.821 32.6856 243.23 33.125C242.647 33.5644 242.253 34.0833 242.048 34.6818L238.207 34.1364C238.51 33.0758 239.01 32.1894 239.707 31.4773C240.404 30.7576 241.257 30.2197 242.264 29.8636C243.272 29.5 244.385 29.3182 245.605 29.3182C246.446 29.3182 247.283 29.4167 248.116 29.6136C248.95 29.8106 249.711 30.1364 250.401 30.5909C251.09 31.0379 251.643 31.6477 252.06 32.4205C252.484 33.1932 252.696 34.1591 252.696 35.3182V47H248.741V44.6023H248.605C248.355 45.0871 248.003 45.5417 247.548 45.9659C247.101 46.3826 246.537 46.7197 245.855 46.9773C245.181 47.2273 244.389 47.3523 243.48 47.3523ZM244.548 44.3295C245.374 44.3295 246.09 44.1667 246.696 43.8409C247.302 43.5076 247.768 43.0682 248.094 42.5227C248.427 41.9773 248.594 41.3826 248.594 40.7386V38.6818C248.465 38.7879 248.245 38.8864 247.935 38.9773C247.632 39.0682 247.291 39.1477 246.912 39.2159C246.533 39.2841 246.158 39.3447 245.787 39.3977C245.416 39.4508 245.094 39.4962 244.821 39.5341C244.207 39.6174 243.658 39.7538 243.173 39.9432C242.688 40.1326 242.306 40.3977 242.026 40.7386C241.745 41.072 241.605 41.5038 241.605 42.0341C241.605 42.7917 241.882 43.3636 242.435 43.75C242.988 44.1364 243.692 44.3295 244.548 44.3295Z" fill="#9A3732"/>
<path fill-rule="evenodd" clip-rule="evenodd" d="M21.8333 113.667C19.5321 113.667 17.6666 115.532 17.6666 117.833V126.167C17.6666 128.468 19.5321 130.333 21.8333 130.333H30.1666C32.4678 130.333 34.3333 128.468 34.3333 126.167V117.833C34.3333 115.532 32.4678 113.667 30.1666 113.667H21.8333ZM27.1207 118.222C26.6622 117.293 25.3374 117.293 24.8789 118.222L24.2219 119.553L22.7527 119.766C21.7275 119.915 21.3181 121.175 22.06 121.899L23.123 122.935L22.8721 124.398C22.6969 125.419 23.7687 126.198 24.6858 125.716L25.9998 125.025L27.3139 125.716C28.2309 126.198 29.3027 125.419 29.1275 124.398L28.8766 122.935L29.9397 121.899C30.6816 121.175 30.2722 119.915 29.2469 119.766L27.7778 119.553L27.1207 118.222Z" fill="#9A3732"/>
<path d="M43.2564 126.099C42.745 126.099 42.2905 126.012 41.8928 125.837C41.4974 125.661 41.1849 125.418 40.9553 125.105C40.7256 124.793 40.6037 124.432 40.5895 124.022H41.9247C41.9366 124.219 42.0017 124.39 42.12 124.537C42.2384 124.681 42.3958 124.794 42.5923 124.874C42.7888 124.955 43.009 124.995 43.2528 124.995C43.5133 124.995 43.7441 124.95 43.9453 124.86C44.1465 124.768 44.304 124.64 44.4176 124.477C44.5313 124.313 44.5869 124.125 44.5845 123.912C44.5869 123.692 44.5301 123.498 44.4141 123.33C44.2981 123.161 44.13 123.03 43.9098 122.935C43.692 122.841 43.4292 122.793 43.1214 122.793H42.4787V121.778H43.1214C43.3748 121.778 43.5961 121.734 43.7855 121.646C43.9773 121.559 44.1276 121.436 44.2365 121.277C44.3454 121.116 44.3987 120.93 44.3963 120.719C44.3987 120.513 44.3525 120.335 44.2578 120.183C44.1655 120.029 44.0341 119.91 43.8636 119.825C43.6955 119.739 43.4979 119.697 43.2706 119.697C43.0481 119.697 42.8421 119.737 42.6527 119.817C42.4633 119.898 42.3106 120.013 42.1946 120.162C42.0786 120.309 42.017 120.484 42.0099 120.688H40.7422C40.7517 120.28 40.8688 119.923 41.0938 119.615C41.321 119.305 41.6241 119.063 42.0028 118.891C42.3816 118.715 42.8066 118.628 43.2777 118.628C43.763 118.628 44.1844 118.719 44.5419 118.901C44.9018 119.081 45.1799 119.324 45.3764 119.629C45.5729 119.935 45.6712 120.272 45.6712 120.641C45.6735 121.051 45.5528 121.394 45.3089 121.671C45.0675 121.948 44.7502 122.129 44.3572 122.214V122.271C44.8686 122.342 45.2604 122.532 45.5327 122.839C45.8073 123.145 45.9434 123.525 45.9411 123.979C45.9411 124.387 45.825 124.751 45.593 125.073C45.3634 125.393 45.0462 125.644 44.6413 125.826C44.2389 126.008 43.7772 126.099 43.2564 126.099ZM49.7452 126.099C49.2173 126.099 48.7485 126.011 48.339 125.833C47.9318 125.656 47.6122 125.413 47.3801 125.105C47.1505 124.795 47.0369 124.443 47.0392 124.05C47.0369 123.745 47.1032 123.464 47.2381 123.209C47.373 122.953 47.5553 122.74 47.785 122.57C48.017 122.397 48.275 122.287 48.5591 122.239V122.19C48.1851 122.107 47.882 121.916 47.65 121.618C47.4204 121.317 47.3068 120.97 47.3091 120.577C47.3068 120.203 47.4109 119.87 47.6216 119.576C47.8323 119.282 48.1212 119.052 48.4881 118.884C48.8551 118.713 49.2741 118.628 49.7452 118.628C50.2116 118.628 50.6271 118.713 50.9917 118.884C51.3586 119.052 51.6474 119.282 51.8581 119.576C52.0712 119.87 52.1777 120.203 52.1777 120.577C52.1777 120.97 52.0605 121.317 51.8262 121.618C51.5942 121.916 51.2947 122.107 50.9277 122.19V122.239C51.2118 122.287 51.4675 122.397 51.6948 122.57C51.9244 122.74 52.1067 122.953 52.2417 123.209C52.379 123.464 52.4476 123.745 52.4476 124.05C52.4476 124.443 52.3316 124.795 52.0996 125.105C51.8676 125.413 51.548 125.656 51.1408 125.833C50.736 126.011 50.2708 126.099 49.7452 126.099ZM49.7452 125.084C50.0175 125.084 50.2542 125.038 50.4554 124.945C50.6567 124.851 50.8129 124.718 50.9242 124.548C51.0355 124.377 51.0923 124.181 51.0946 123.958C51.0923 123.726 51.0319 123.521 50.9135 123.344C50.7975 123.164 50.6377 123.023 50.4341 122.921C50.2329 122.819 50.0033 122.768 49.7452 122.768C49.4848 122.768 49.2528 122.819 49.0492 122.921C48.8456 123.023 48.6846 123.164 48.5662 123.344C48.4502 123.521 48.3934 123.726 48.3958 123.958C48.3934 124.181 48.4479 124.377 48.5591 124.548C48.6704 124.716 48.8266 124.847 49.0279 124.942C49.2315 125.036 49.4706 125.084 49.7452 125.084ZM49.7452 121.771C49.9677 121.771 50.1642 121.726 50.3347 121.636C50.5075 121.546 50.6436 121.42 50.7431 121.259C50.8425 121.098 50.8934 120.912 50.8958 120.702C50.8934 120.493 50.8437 120.311 50.7466 120.155C50.6496 119.996 50.5146 119.874 50.3418 119.789C50.169 119.701 49.9701 119.658 49.7452 119.658C49.5156 119.658 49.3132 119.701 49.138 119.789C48.9651 119.874 48.8302 119.996 48.7331 120.155C48.6384 120.311 48.5923 120.493 48.5946 120.702C48.5923 120.912 48.6396 121.098 48.7367 121.259C48.8361 121.418 48.9722 121.543 49.1451 121.636C49.3203 121.726 49.5203 121.771 49.7452 121.771Z" fill="black" fill-opacity="0.45"/>
<rect x="266" y="100" width="44" height="44" rx="15" fill="#9A3732"/>
<path fill-rule="evenodd" clip-rule="evenodd" d="M289.293 114.293C289.683 113.902 290.317 113.902 290.707 114.293L297.707 121.293C298.098 121.683 298.098 122.317 297.707 122.707L290.707 129.707C290.317 130.098 289.683 130.098 289.293 129.707C288.902 129.317 288.902 128.683 289.293 128.293L294.586 123H279C278.448 123 278 122.552 278 122C278 121.448 278.448 121 279 121H294.586L289.293 115.707C288.902 115.317 288.902 114.683 289.293 114.293Z" fill="#E6B4B2"/>
</svg>
