<svg width="32" height="36" viewBox="0 0 32 36" fill="none" xmlns="http://www.w3.org/2000/svg">
<g clip-path="url(#clip0_87_778)">
<path d="M4.02622 7.93957C2.77542 7.6849 1.51466 7.14458 0.713418 6.10008C0.572413 5.91596 0.443019 5.66473 0.547529 5.45652C0.635451 5.281 1.1862 5.58041 1.372 5.54427C2.59958 5.31197 3.14701 4.72691 4.38454 4.5686" fill="#FAEA00"/>
<path d="M3.92836 8.45752C2.3126 8.12886 1.09664 7.44571 0.315298 6.43047C-0.122649 5.8609 -0.00984416 5.42382 0.0963248 5.21217C0.341841 4.72519 0.899228 4.89039 1.16631 4.96954C1.22437 4.98675 1.28077 5.00568 1.32722 5.01428C1.82655 4.91448 2.20146 4.74929 2.59959 4.57377C3.09062 4.35867 3.59824 4.13497 4.32318 4.04205L4.4476 5.09172C3.86367 5.16571 3.46221 5.34295 2.99772 5.54772C2.5548 5.74216 2.09861 5.94349 1.46491 6.06395C1.43505 6.06911 1.40685 6.07255 1.37699 6.07427C2.00903 6.72472 2.93137 7.17556 4.12577 7.4199L3.93002 8.45752H3.92836Z" fill="#FAEA00"/>
<path d="M16.6552 36L16.5192 34.6165C16.491 34.3325 16.2554 34.0452 15.917 33.8817C15.5487 33.7027 15.1025 33.6614 14.6396 33.6322L13.9296 33.5857L14.2 32.9026C14.278 32.7081 14.2382 32.438 14.0972 32.1971C13.9495 31.9458 13.7356 31.7944 13.4369 31.5828L12.0767 30.6174L16.4113 30.6088V29.0756C16.4113 28.8812 16.3997 28.6988 16.3881 28.5095C16.3798 28.3753 16.3715 28.2359 16.3666 28.0896L17.3851 28.05C17.3901 28.1877 17.3984 28.3168 17.405 28.4424C17.4183 28.654 17.4299 28.8571 17.4299 29.0739V31.6688H16.9206C16.8509 31.6688 16.768 31.6688 16.6867 31.6671H14.9764C15.1506 31.9682 15.2451 32.3003 15.2551 32.6238C15.6234 32.6703 15.995 32.7512 16.345 32.9215C16.6519 33.0695 16.914 33.2794 17.1131 33.5255L18.3075 31.803L19.1352 32.4208L16.6535 36H16.6552Z" fill="#F6E400"/>
<path d="M14.0093 19.6287C14.9366 20.1776 15.8075 20.8538 16.7979 21.1859C17.775 21.5267 18.8018 21.7848 19.8436 21.7744C23.4102 21.7349 27.7465 20.3325 28.9376 16.4814C28.9891 16.3489 29.0239 16.2302 29.0537 16.139C29.0537 16.1269 29.0504 16.1562 29.0537 16.1768C29.0537 16.194 29.0571 16.1803 29.0139 16.1286C28.4499 15.5986 27.2306 14.7038 26.5903 14.1997C25.731 13.5492 24.8518 12.885 24.0174 12.1675L25.0625 11.8078C24.8816 12.534 24.6461 13.3255 24.1584 14.0276C23.6756 14.7314 23.022 15.2287 22.3817 15.6193C19.6478 17.328 16.0613 16.4143 14.3112 13.6748C12.9857 11.7321 13.6327 9.18021 14.1188 7.07056C14.4804 5.80408 14.1304 4.4705 13.5199 3.35028C12.9326 2.36429 11.6984 1.59511 10.5754 1.48154C9.95162 1.4368 9.28973 1.44712 8.68091 1.55725C6.20253 2.04422 4.51876 4.66838 4.58345 7.22543C4.62327 8.47642 4.80243 9.74118 5.9736 10.414C6.5791 10.8201 7.31233 11.3071 7.65738 12.0418C8.306 13.5527 8.00906 15.1203 7.54789 16.595C6.56085 19.1675 6.77319 22.2046 8.38895 24.421C10.1241 26.8128 14.6065 27.9847 17.3967 28.0397L17.4365 29.0963C14.4854 29.1737 11.6254 28.3804 9.12218 26.7474C6.53929 25.0473 5.60865 21.4527 6.25561 18.4861C6.61062 16.5502 8.13514 14.3511 6.98884 12.4583C6.42648 11.6874 5.11264 11.56 4.39434 10.7358C2.66743 8.66398 3.01248 4.82669 4.57848 2.73253C6.07148 0.585021 8.22638 -0.232339 10.723 0.0550277C13.6128 0.421549 15.7445 3.19025 15.3281 6.2119C14.9333 7.97568 13.9744 9.59147 14.1718 11.4327C14.3543 13.4856 16.267 14.962 18.1233 15.2889C19.9332 15.5677 22.0101 14.7451 23.1099 13.2601C23.4434 12.7766 23.6375 12.1554 23.7967 11.4826L24.0422 10.4501C25.517 11.7355 27.1095 12.9091 28.6473 14.1291C28.8066 14.2685 29.4303 14.7761 29.5929 14.9258C29.9927 15.2252 30.4207 15.8413 30.2564 16.4298C30.2166 16.6208 30.1569 16.7154 30.1038 16.8703C30.0259 17.0785 29.9595 17.3125 29.8666 17.5121C28.1264 21.3873 23.6342 22.7501 19.8137 22.4627C18.7172 22.375 17.6621 22.0154 16.6535 21.5576C15.6615 21.0775 14.8553 20.3273 14.0093 19.6321V19.6287Z" fill="black"/>
<path d="M14.3245 12.9143C15.6217 13.0364 16.9306 12.9934 18.0902 12.3412C19.0506 11.9076 19.7839 11.2486 20.4989 10.4691C21.0032 11.782 21.4693 13.2378 22.3386 14.3167L21.5672 15.0067C20.7444 13.9897 20.2865 12.7921 19.8303 11.5996L20.6498 11.7958C19.3476 12.9177 17.614 13.6456 15.912 13.6043C15.348 13.5888 14.8039 13.5079 14.2681 13.4236L14.3228 12.9125L14.3245 12.9143Z" fill="black"/>
<path d="M27.7649 19.9677L27.8428 26.5599L27.8478 26.923C25.4341 27.8625 22.5327 28.6558 20.0776 27.3738C17.775 26.3276 15.9386 24.495 14.3511 22.5282C15.2137 23.4384 16.1062 24.3263 17.0866 25.0818C20.7461 27.7799 23.0984 27.9451 27.1561 26.0609L26.8243 26.553L26.7463 19.9935L27.7649 19.9659V19.9677Z" fill="black"/>
<path d="M7.22423 5.69078C6.76306 5.69078 6.40308 5.25887 6.40308 4.7065C6.40308 4.15414 6.76471 3.72223 7.22423 3.72223C7.68374 3.72223 8.04538 4.15414 8.04538 4.7065C8.04538 5.25887 7.68374 5.69078 7.22423 5.69078ZM7.04175 4.7065C7.07161 4.7392 7.13631 4.77877 7.22423 4.77877C7.31215 4.77877 7.37519 4.73748 7.4067 4.7065C7.37684 4.67381 7.31215 4.63423 7.22423 4.63423C7.13631 4.63423 7.07327 4.67553 7.04175 4.7065Z" fill="black"/>
<path d="M27.6371 13.8332C28.2642 13.5561 28.8199 13.193 29.2861 12.7474C29.6477 12.3671 30.1354 11.6977 30.8056 12.0126C31.1954 12.1915 31.4045 12.6097 31.5206 12.9556C31.7263 13.6886 31.9021 14.4234 31.9536 15.1822C32.2057 17.8236 31.4343 20.5235 29.9612 22.6813C29.3043 23.5933 28.523 24.4055 27.6189 25.0542L27.02 24.199C29.0787 22.5161 30.4357 19.9831 30.7857 17.2953C30.9649 15.8654 30.9267 14.3012 30.4274 12.9573C30.3793 12.8953 30.4207 12.9366 30.444 12.9143C30.4589 12.8902 30.3494 12.9401 30.2283 13.0536C29.5316 13.68 28.6043 14.093 27.6985 14.1205L27.6388 13.8332H27.6371Z" fill="black"/>
<path d="M6.73486 4.63421L6.92895 5.04375L7.40671 4.99213L7.5245 4.68067L7.22424 4.45697L6.73486 4.63421Z" fill="black"/>
</g>
<defs>
<clipPath id="clip0_87_778">
<rect width="32" height="36" fill="white"/>
</clipPath>
</defs>
</svg>
